ISO-10303-21;
HEADER;
FILE_DESCRIPTION(('FreeCAD Model'),'2;1');
FILE_NAME('Open CASCADE Shape Model','2026-10-01T11:05:39',('FreeCAD'),(
    'FreeCAD'),'Open CASCADE STEP processor 7.8','FreeCAD','Unknown');
FILE_SCHEMA(('AUTOMOTIVE_DESIGN { 1 0 10303 214 1 1 1 1 }'));
ENDSEC;
DATA;
#1 = APPLICATION_PROTOCOL_DEFINITION('international standard',
  'automotive_design',2000,#2);
#2 = APPLICATION_CONTEXT(
  'core data for automotive mechanical design processes');
#3 = SHAPE_DEFINITION_REPRESENTATION(#4,#10);
#4 = PRODUCT_DEFINITION_SHAPE('','',#5);
#5 = PRODUCT_DEFINITION('design','',#6,#9);
#6 = PRODUCT_DEFINITION_FORMATION('','',#7);
#7 = PRODUCT('Open CASCADE STEP translator 7.8 3',
  'Open CASCADE STEP translator 7.8 3','',(#8));
#8 = PRODUCT_CONTEXT('',#2,'mechanical');
#9 = PRODUCT_DEFINITION_CONTEXT('part definition',#2,'design');
#10 = SHAPE_REPRESENTATION('',(#11,#15,#231,#447,#597,#747,#897,#1047,
    #1100,#1153),#1206);
#11 = AXIS2_PLACEMENT_3D('',#12,#13,#14);
#12 = CARTESIAN_POINT('',(0.,0.,0.));
#13 = DIRECTION('',(0.,0.,1.));
#14 = DIRECTION('',(1.,0.,-0.));
#15 = MANIFOLD_SOLID_BREP('',#16);
#16 = CLOSED_SHELL('',(#17,#57,#88,#119,#150,#181,#203,#217));
#17 = ADVANCED_FACE('',(#18),#52,.F.);
#18 = FACE_BOUND('',#19,.F.);
#19 = EDGE_LOOP('',(#20,#30,#38,#46));
#20 = ORIENTED_EDGE('',*,*,#21,.F.);
#21 = EDGE_CURVE('',#22,#24,#26,.T.);
#22 = VERTEX_POINT('',#23);
#23 = CARTESIAN_POINT('',(0.,0.,0.));
#24 = VERTEX_POINT('',#25);
#25 = CARTESIAN_POINT('',(160.,0.,0.));
#26 = LINE('',#27,#28);
#27 = CARTESIAN_POINT('',(0.,0.,0.));
#28 = VECTOR('',#29,1.);
#29 = DIRECTION('',(1.,0.,0.));
#30 = ORIENTED_EDGE('',*,*,#31,.T.);
#31 = EDGE_CURVE('',#22,#32,#34,.T.);
#32 = VERTEX_POINT('',#33);
#33 = CARTESIAN_POINT('',(0.,0.,1.6E+03));
#34 = LINE('',#35,#36);
#35 = CARTESIAN_POINT('',(0.,0.,0.));
#36 = VECTOR('',#37,1.);
#37 = DIRECTION('',(0.,0.,1.));
#38 = ORIENTED_EDGE('',*,*,#39,.T.);
#39 = EDGE_CURVE('',#32,#40,#42,.T.);
#40 = VERTEX_POINT('',#41);
#41 = CARTESIAN_POINT('',(160.,0.,1.6E+03));
#42 = LINE('',#43,#44);
#43 = CARTESIAN_POINT('',(0.,0.,1.6E+03));
#44 = VECTOR('',#45,1.);
#45 = DIRECTION('',(1.,0.,0.));
#46 = ORIENTED_EDGE('',*,*,#47,.F.);
#47 = EDGE_CURVE('',#24,#40,#48,.T.);
#48 = LINE('',#49,#50);
#49 = CARTESIAN_POINT('',(160.,0.,0.));
#50 = VECTOR('',#51,1.);
#51 = DIRECTION('',(0.,0.,1.));
#52 = PLANE('',#53);
#53 = AXIS2_PLACEMENT_3D('',#54,#55,#56);
#54 = CARTESIAN_POINT('',(0.,0.,0.));
#55 = DIRECTION('',(0.,1.,0.));
#56 = DIRECTION('',(0.,0.,1.));
#57 = ADVANCED_FACE('',(#58),#83,.T.);
#58 = FACE_BOUND('',#59,.T.);
#59 = EDGE_LOOP('',(#60,#61,#69,#77));
#60 = ORIENTED_EDGE('',*,*,#47,.F.);
#61 = ORIENTED_EDGE('',*,*,#62,.T.);
#62 = EDGE_CURVE('',#24,#63,#65,.T.);
#63 = VERTEX_POINT('',#64);
#64 = CARTESIAN_POINT('',(160.,14.,0.));
#65 = LINE('',#66,#67);
#66 = CARTESIAN_POINT('',(160.,0.,0.));
#67 = VECTOR('',#68,1.);
#68 = DIRECTION('',(0.,1.,0.));
#69 = ORIENTED_EDGE('',*,*,#70,.T.);
#70 = EDGE_CURVE('',#63,#71,#73,.T.);
#71 = VERTEX_POINT('',#72);
#72 = CARTESIAN_POINT('',(160.,14.,1.6E+03));
#73 = LINE('',#74,#75);
#74 = CARTESIAN_POINT('',(160.,14.,0.));
#75 = VECTOR('',#76,1.);
#76 = DIRECTION('',(0.,0.,1.));
#77 = ORIENTED_EDGE('',*,*,#78,.F.);
#78 = EDGE_CURVE('',#40,#71,#79,.T.);
#79 = LINE('',#80,#81);
#80 = CARTESIAN_POINT('',(160.,0.,1.6E+03));
#81 = VECTOR('',#82,1.);
#82 = DIRECTION('',(0.,1.,0.));
#83 = PLANE('',#84);
#84 = AXIS2_PLACEMENT_3D('',#85,#86,#87);
#85 = CARTESIAN_POINT('',(160.,0.,0.));
#86 = DIRECTION('',(1.,0.,0.));
#87 = DIRECTION('',(0.,0.,1.));
#88 = ADVANCED_FACE('',(#89),#114,.T.);
#89 = FACE_BOUND('',#90,.T.);
#90 = EDGE_LOOP('',(#91,#99,#107,#113));
#91 = ORIENTED_EDGE('',*,*,#92,.F.);
#92 = EDGE_CURVE('',#93,#63,#95,.T.);
#93 = VERTEX_POINT('',#94);
#94 = CARTESIAN_POINT('',(14.,14.,0.));
#95 = LINE('',#96,#97);
#96 = CARTESIAN_POINT('',(0.,14.,0.));
#97 = VECTOR('',#98,1.);
#98 = DIRECTION('',(1.,0.,0.));
#99 = ORIENTED_EDGE('',*,*,#100,.T.);
#100 = EDGE_CURVE('',#93,#101,#103,.T.);
#101 = VERTEX_POINT('',#102);
#102 = CARTESIAN_POINT('',(14.,14.,1.6E+03));
#103 = LINE('',#104,#105);
#104 = CARTESIAN_POINT('',(14.,14.,0.));
#105 = VECTOR('',#106,1.);
#106 = DIRECTION('',(0.,0.,1.));
#107 = ORIENTED_EDGE('',*,*,#108,.T.);
#108 = EDGE_CURVE('',#101,#71,#109,.T.);
#109 = LINE('',#110,#111);
#110 = CARTESIAN_POINT('',(0.,14.,1.6E+03));
#111 = VECTOR('',#112,1.);
#112 = DIRECTION('',(1.,0.,0.));
#113 = ORIENTED_EDGE('',*,*,#70,.F.);
#114 = PLANE('',#115);
#115 = AXIS2_PLACEMENT_3D('',#116,#117,#118);
#116 = CARTESIAN_POINT('',(0.,14.,0.));
#117 = DIRECTION('',(0.,1.,0.));
#118 = DIRECTION('',(0.,0.,1.));
#119 = ADVANCED_FACE('',(#120),#145,.T.);
#120 = FACE_BOUND('',#121,.T.);
#121 = EDGE_LOOP('',(#122,#123,#131,#139));
#122 = ORIENTED_EDGE('',*,*,#100,.F.);
#123 = ORIENTED_EDGE('',*,*,#124,.T.);
#124 = EDGE_CURVE('',#93,#125,#127,.T.);
#125 = VERTEX_POINT('',#126);
#126 = CARTESIAN_POINT('',(14.,160.,0.));
#127 = LINE('',#128,#129);
#128 = CARTESIAN_POINT('',(14.,14.,0.));
#129 = VECTOR('',#130,1.);
#130 = DIRECTION('',(0.,1.,0.));
#131 = ORIENTED_EDGE('',*,*,#132,.T.);
#132 = EDGE_CURVE('',#125,#133,#135,.T.);
#133 = VERTEX_POINT('',#134);
#134 = CARTESIAN_POINT('',(14.,160.,1.6E+03));
#135 = LINE('',#136,#137);
#136 = CARTESIAN_POINT('',(14.,160.,0.));
#137 = VECTOR('',#138,1.);
#138 = DIRECTION('',(0.,0.,1.));
#139 = ORIENTED_EDGE('',*,*,#140,.F.);
#140 = EDGE_CURVE('',#101,#133,#141,.T.);
#141 = LINE('',#142,#143);
#142 = CARTESIAN_POINT('',(14.,14.,1.6E+03));
#143 = VECTOR('',#144,1.);
#144 = DIRECTION('',(0.,1.,0.));
#145 = PLANE('',#146);
#146 = AXIS2_PLACEMENT_3D('',#147,#148,#149);
#147 = CARTESIAN_POINT('',(14.,14.,0.));
#148 = DIRECTION('',(1.,0.,0.));
#149 = DIRECTION('',(0.,0.,1.));
#150 = ADVANCED_FACE('',(#151),#176,.T.);
#151 = FACE_BOUND('',#152,.T.);
#152 = EDGE_LOOP('',(#153,#161,#169,#175));
#153 = ORIENTED_EDGE('',*,*,#154,.F.);
#154 = EDGE_CURVE('',#155,#125,#157,.T.);
#155 = VERTEX_POINT('',#156);
#156 = CARTESIAN_POINT('',(0.,160.,0.));
#157 = LINE('',#158,#159);
#158 = CARTESIAN_POINT('',(0.,160.,0.));
#159 = VECTOR('',#160,1.);
#160 = DIRECTION('',(1.,0.,0.));
#161 = ORIENTED_EDGE('',*,*,#162,.T.);
#162 = EDGE_CURVE('',#155,#163,#165,.T.);
#163 = VERTEX_POINT('',#164);
#164 = CARTESIAN_POINT('',(0.,160.,1.6E+03));
#165 = LINE('',#166,#167);
#166 = CARTESIAN_POINT('',(0.,160.,0.));
#167 = VECTOR('',#168,1.);
#168 = DIRECTION('',(0.,0.,1.));
#169 = ORIENTED_EDGE('',*,*,#170,.T.);
#170 = EDGE_CURVE('',#163,#133,#171,.T.);
#171 = LINE('',#172,#173);
#172 = CARTESIAN_POINT('',(0.,160.,1.6E+03));
#173 = VECTOR('',#174,1.);
#174 = DIRECTION('',(1.,0.,0.));
#175 = ORIENTED_EDGE('',*,*,#132,.F.);
#176 = PLANE('',#177);
#177 = AXIS2_PLACEMENT_3D('',#178,#179,#180);
#178 = CARTESIAN_POINT('',(0.,160.,0.));
#179 = DIRECTION('',(0.,1.,0.));
#180 = DIRECTION('',(0.,0.,1.));
#181 = ADVANCED_FACE('',(#182),#198,.T.);
#182 = FACE_BOUND('',#183,.T.);
#183 = EDGE_LOOP('',(#184,#185,#191,#192));
#184 = ORIENTED_EDGE('',*,*,#31,.T.);
#185 = ORIENTED_EDGE('',*,*,#186,.T.);
#186 = EDGE_CURVE('',#32,#163,#187,.T.);
#187 = LINE('',#188,#189);
#188 = CARTESIAN_POINT('',(0.,0.,1.6E+03));
#189 = VECTOR('',#190,1.);
#190 = DIRECTION('',(0.,1.,0.));
#191 = ORIENTED_EDGE('',*,*,#162,.F.);
#192 = ORIENTED_EDGE('',*,*,#193,.F.);
#193 = EDGE_CURVE('',#22,#155,#194,.T.);
#194 = LINE('',#195,#196);
#195 = CARTESIAN_POINT('',(0.,14.,0.));
#196 = VECTOR('',#197,1.);
#197 = DIRECTION('',(0.,1.,0.));
#198 = PLANE('',#199);
#199 = AXIS2_PLACEMENT_3D('',#200,#201,#202);
#200 = CARTESIAN_POINT('',(0.,80.,800.));
#201 = DIRECTION('',(-1.,-0.,-0.));
#202 = DIRECTION('',(0.,0.,-1.));
#203 = ADVANCED_FACE('',(#204),#212,.T.);
#204 = FACE_BOUND('',#205,.T.);
#205 = EDGE_LOOP('',(#206,#207,#208,#209,#210,#211));
#206 = ORIENTED_EDGE('',*,*,#186,.F.);
#207 = ORIENTED_EDGE('',*,*,#39,.T.);
#208 = ORIENTED_EDGE('',*,*,#78,.T.);
#209 = ORIENTED_EDGE('',*,*,#108,.F.);
#210 = ORIENTED_EDGE('',*,*,#140,.T.);
#211 = ORIENTED_EDGE('',*,*,#170,.F.);
#212 = PLANE('',#213);
#213 = AXIS2_PLACEMENT_3D('',#214,#215,#216);
#214 = CARTESIAN_POINT('',(46.69375,46.69375,1.6E+03));
#215 = DIRECTION('',(0.,0.,1.));
#216 = DIRECTION('',(1.,0.,0.));
#217 = ADVANCED_FACE('',(#218),#226,.T.);
#218 = FACE_BOUND('',#219,.T.);
#219 = EDGE_LOOP('',(#220,#221,#222,#223,#224,#225));
#220 = ORIENTED_EDGE('',*,*,#193,.T.);
#221 = ORIENTED_EDGE('',*,*,#154,.T.);
#222 = ORIENTED_EDGE('',*,*,#124,.F.);
#223 = ORIENTED_EDGE('',*,*,#92,.T.);
#224 = ORIENTED_EDGE('',*,*,#62,.F.);
#225 = ORIENTED_EDGE('',*,*,#21,.F.);
#226 = PLANE('',#227);
#227 = AXIS2_PLACEMENT_3D('',#228,#229,#230);
#228 = CARTESIAN_POINT('',(46.69375,46.69375,0.));
#229 = DIRECTION('',(-0.,-0.,-1.));
#230 = DIRECTION('',(-1.,0.,0.));
#231 = MANIFOLD_SOLID_BREP('',#232);
#232 = CLOSED_SHELL('',(#233,#273,#304,#344,#366,#397,#419,#433));
#233 = ADVANCED_FACE('',(#234),#268,.T.);
#234 = FACE_BOUND('',#235,.T.);
#235 = EDGE_LOOP('',(#236,#246,#254,#262));
#236 = ORIENTED_EDGE('',*,*,#237,.F.);
#237 = EDGE_CURVE('',#238,#240,#242,.T.);
#238 = VERTEX_POINT('',#239);
#239 = CARTESIAN_POINT('',(160.,-12.,700.));
#240 = VERTEX_POINT('',#241);
#241 = CARTESIAN_POINT('',(160.,-12.,1.5E+03));
#242 = LINE('',#243,#244);
#243 = CARTESIAN_POINT('',(160.,-12.,700.));
#244 = VECTOR('',#245,1.);
#245 = DIRECTION('',(0.,0.,1.));
#246 = ORIENTED_EDGE('',*,*,#247,.T.);
#247 = EDGE_CURVE('',#238,#248,#250,.T.);
#248 = VERTEX_POINT('',#249);
#249 = CARTESIAN_POINT('',(160.,0.,700.));
#250 = LINE('',#251,#252);
#251 = CARTESIAN_POINT('',(160.,-12.,700.));
#252 = VECTOR('',#253,1.);
#253 = DIRECTION('',(0.,1.,0.));
#254 = ORIENTED_EDGE('',*,*,#255,.T.);
#255 = EDGE_CURVE('',#248,#256,#258,.T.);
#256 = VERTEX_POINT('',#257);
#257 = CARTESIAN_POINT('',(160.,0.,1.5E+03));
#258 = LINE('',#259,#260);
#259 = CARTESIAN_POINT('',(160.,0.,700.));
#260 = VECTOR('',#261,1.);
#261 = DIRECTION('',(0.,0.,1.));
#262 = ORIENTED_EDGE('',*,*,#263,.F.);
#263 = EDGE_CURVE('',#240,#256,#264,.T.);
#264 = LINE('',#265,#266);
#265 = CARTESIAN_POINT('',(160.,-12.,1.5E+03));
#266 = VECTOR('',#267,1.);
#267 = DIRECTION('',(0.,1.,0.));
#268 = PLANE('',#269);
#269 = AXIS2_PLACEMENT_3D('',#270,#271,#272);
#270 = CARTESIAN_POINT('',(160.,-12.,700.));
#271 = DIRECTION('',(1.,0.,0.));
#272 = DIRECTION('',(0.,0.,1.));
#273 = ADVANCED_FACE('',(#274),#299,.T.);
#274 = FACE_BOUND('',#275,.T.);
#275 = EDGE_LOOP('',(#276,#284,#292,#298));
#276 = ORIENTED_EDGE('',*,*,#277,.F.);
#277 = EDGE_CURVE('',#278,#248,#280,.T.);
#278 = VERTEX_POINT('',#279);
#279 = CARTESIAN_POINT('',(0.,0.,700.));
#280 = LINE('',#281,#282);
#281 = CARTESIAN_POINT('',(-12.,0.,700.));
#282 = VECTOR('',#283,1.);
#283 = DIRECTION('',(1.,0.,0.));
#284 = ORIENTED_EDGE('',*,*,#285,.T.);
#285 = EDGE_CURVE('',#278,#286,#288,.T.);
#286 = VERTEX_POINT('',#287);
#287 = CARTESIAN_POINT('',(0.,0.,1.5E+03));
#288 = LINE('',#289,#290);
#289 = CARTESIAN_POINT('',(0.,0.,700.));
#290 = VECTOR('',#291,1.);
#291 = DIRECTION('',(0.,0.,1.));
#292 = ORIENTED_EDGE('',*,*,#293,.T.);
#293 = EDGE_CURVE('',#286,#256,#294,.T.);
#294 = LINE('',#295,#296);
#295 = CARTESIAN_POINT('',(-12.,0.,1.5E+03));
#296 = VECTOR('',#297,1.);
#297 = DIRECTION('',(1.,0.,0.));
#298 = ORIENTED_EDGE('',*,*,#255,.F.);
#299 = PLANE('',#300);
#300 = AXIS2_PLACEMENT_3D('',#301,#302,#303);
#301 = CARTESIAN_POINT('',(-12.,0.,700.));
#302 = DIRECTION('',(0.,1.,0.));
#303 = DIRECTION('',(0.,0.,1.));
#304 = ADVANCED_FACE('',(#305),#339,.T.);
#305 = FACE_BOUND('',#306,.T.);
#306 = EDGE_LOOP('',(#307,#317,#325,#333));
#307 = ORIENTED_EDGE('',*,*,#308,.F.);
#308 = EDGE_CURVE('',#309,#311,#313,.T.);
#309 = VERTEX_POINT('',#310);
#310 = CARTESIAN_POINT('',(-12.,160.,700.));
#311 = VERTEX_POINT('',#312);
#312 = CARTESIAN_POINT('',(0.,160.,700.));
#313 = LINE('',#314,#315);
#314 = CARTESIAN_POINT('',(-12.,160.,700.));
#315 = VECTOR('',#316,1.);
#316 = DIRECTION('',(1.,0.,0.));
#317 = ORIENTED_EDGE('',*,*,#318,.T.);
#318 = EDGE_CURVE('',#309,#319,#321,.T.);
#319 = VERTEX_POINT('',#320);
#320 = CARTESIAN_POINT('',(-12.,160.,1.5E+03));
#321 = LINE('',#322,#323);
#322 = CARTESIAN_POINT('',(-12.,160.,700.));
#323 = VECTOR('',#324,1.);
#324 = DIRECTION('',(0.,0.,1.));
#325 = ORIENTED_EDGE('',*,*,#326,.T.);
#326 = EDGE_CURVE('',#319,#327,#329,.T.);
#327 = VERTEX_POINT('',#328);
#328 = CARTESIAN_POINT('',(0.,160.,1.5E+03));
#329 = LINE('',#330,#331);
#330 = CARTESIAN_POINT('',(-12.,160.,1.5E+03));
#331 = VECTOR('',#332,1.);
#332 = DIRECTION('',(1.,0.,0.));
#333 = ORIENTED_EDGE('',*,*,#334,.F.);
#334 = EDGE_CURVE('',#311,#327,#335,.T.);
#335 = LINE('',#336,#337);
#336 = CARTESIAN_POINT('',(0.,160.,700.));
#337 = VECTOR('',#338,1.);
#338 = DIRECTION('',(0.,0.,1.));
#339 = PLANE('',#340);
#340 = AXIS2_PLACEMENT_3D('',#341,#342,#343);
#341 = CARTESIAN_POINT('',(-12.,160.,700.));
#342 = DIRECTION('',(0.,1.,0.));
#343 = DIRECTION('',(0.,0.,1.));
#344 = ADVANCED_FACE('',(#345),#361,.T.);
#345 = FACE_BOUND('',#346,.T.);
#346 = EDGE_LOOP('',(#347,#348,#354,#355));
#347 = ORIENTED_EDGE('',*,*,#285,.F.);
#348 = ORIENTED_EDGE('',*,*,#349,.T.);
#349 = EDGE_CURVE('',#278,#311,#350,.T.);
#350 = LINE('',#351,#352);
#351 = CARTESIAN_POINT('',(0.,-12.,700.));
#352 = VECTOR('',#353,1.);
#353 = DIRECTION('',(0.,1.,0.));
#354 = ORIENTED_EDGE('',*,*,#334,.T.);
#355 = ORIENTED_EDGE('',*,*,#356,.F.);
#356 = EDGE_CURVE('',#286,#327,#357,.T.);
#357 = LINE('',#358,#359);
#358 = CARTESIAN_POINT('',(0.,-12.,1.5E+03));
#359 = VECTOR('',#360,1.);
#360 = DIRECTION('',(0.,1.,0.));
#361 = PLANE('',#362);
#362 = AXIS2_PLACEMENT_3D('',#363,#364,#365);
#363 = CARTESIAN_POINT('',(0.,-12.,700.));
#364 = DIRECTION('',(1.,0.,0.));
#365 = DIRECTION('',(0.,0.,1.));
#366 = ADVANCED_FACE('',(#367),#392,.F.);
#367 = FACE_BOUND('',#368,.T.);
#368 = EDGE_LOOP('',(#369,#379,#385,#386));
#369 = ORIENTED_EDGE('',*,*,#370,.T.);
#370 = EDGE_CURVE('',#371,#373,#375,.T.);
#371 = VERTEX_POINT('',#372);
#372 = CARTESIAN_POINT('',(-12.,-12.,700.));
#373 = VERTEX_POINT('',#374);
#374 = CARTESIAN_POINT('',(-12.,-12.,1.5E+03));
#375 = LINE('',#376,#377);
#376 = CARTESIAN_POINT('',(-12.,-12.,700.));
#377 = VECTOR('',#378,1.);
#378 = DIRECTION('',(0.,0.,1.));
#379 = ORIENTED_EDGE('',*,*,#380,.T.);
#380 = EDGE_CURVE('',#373,#319,#381,.T.);
#381 = LINE('',#382,#383);
#382 = CARTESIAN_POINT('',(-12.,-12.,1.5E+03));
#383 = VECTOR('',#384,1.);
#384 = DIRECTION('',(0.,1.,0.));
#385 = ORIENTED_EDGE('',*,*,#318,.F.);
#386 = ORIENTED_EDGE('',*,*,#387,.F.);
#387 = EDGE_CURVE('',#371,#309,#388,.T.);
#388 = LINE('',#389,#390);
#389 = CARTESIAN_POINT('',(-12.,-12.,700.));
#390 = VECTOR('',#391,1.);
#391 = DIRECTION('',(0.,1.,0.));
#392 = PLANE('',#393);
#393 = AXIS2_PLACEMENT_3D('',#394,#395,#396);
#394 = CARTESIAN_POINT('',(-12.,-12.,700.));
#395 = DIRECTION('',(1.,0.,0.));
#396 = DIRECTION('',(0.,0.,1.));
#397 = ADVANCED_FACE('',(#398),#414,.T.);
#398 = FACE_BOUND('',#399,.T.);
#399 = EDGE_LOOP('',(#400,#406,#407,#413));
#400 = ORIENTED_EDGE('',*,*,#401,.T.);
#401 = EDGE_CURVE('',#371,#238,#402,.T.);
#402 = LINE('',#403,#404);
#403 = CARTESIAN_POINT('',(-12.,-12.,700.));
#404 = VECTOR('',#405,1.);
#405 = DIRECTION('',(1.,0.,0.));
#406 = ORIENTED_EDGE('',*,*,#237,.T.);
#407 = ORIENTED_EDGE('',*,*,#408,.F.);
#408 = EDGE_CURVE('',#373,#240,#409,.T.);
#409 = LINE('',#410,#411);
#410 = CARTESIAN_POINT('',(-12.,-12.,1.5E+03));
#411 = VECTOR('',#412,1.);
#412 = DIRECTION('',(1.,0.,0.));
#413 = ORIENTED_EDGE('',*,*,#370,.F.);
#414 = PLANE('',#415);
#415 = AXIS2_PLACEMENT_3D('',#416,#417,#418);
#416 = CARTESIAN_POINT('',(74.,-12.,1.1E+03));
#417 = DIRECTION('',(-0.,-1.,-0.));
#418 = DIRECTION('',(0.,0.,-1.));
#419 = ADVANCED_FACE('',(#420),#428,.T.);
#420 = FACE_BOUND('',#421,.T.);
#421 = EDGE_LOOP('',(#422,#423,#424,#425,#426,#427));
#422 = ORIENTED_EDGE('',*,*,#380,.F.);
#423 = ORIENTED_EDGE('',*,*,#408,.T.);
#424 = ORIENTED_EDGE('',*,*,#263,.T.);
#425 = ORIENTED_EDGE('',*,*,#293,.F.);
#426 = ORIENTED_EDGE('',*,*,#356,.T.);
#427 = ORIENTED_EDGE('',*,*,#326,.F.);
#428 = PLANE('',#429);
#429 = AXIS2_PLACEMENT_3D('',#430,#431,#432);
#430 = CARTESIAN_POINT('',(36.790697674419,36.790697674419,1.5E+03));
#431 = DIRECTION('',(0.,0.,1.));
#432 = DIRECTION('',(1.,0.,0.));
#433 = ADVANCED_FACE('',(#434),#442,.T.);
#434 = FACE_BOUND('',#435,.T.);
#435 = EDGE_LOOP('',(#436,#437,#438,#439,#440,#441));
#436 = ORIENTED_EDGE('',*,*,#387,.T.);
#437 = ORIENTED_EDGE('',*,*,#308,.T.);
#438 = ORIENTED_EDGE('',*,*,#349,.F.);
#439 = ORIENTED_EDGE('',*,*,#277,.T.);
#440 = ORIENTED_EDGE('',*,*,#247,.F.);
#441 = ORIENTED_EDGE('',*,*,#401,.F.);
#442 = PLANE('',#443);
#443 = AXIS2_PLACEMENT_3D('',#444,#445,#446);
#444 = CARTESIAN_POINT('',(36.790697674419,36.790697674419,700.));
#445 = DIRECTION('',(-0.,-0.,-1.));
#446 = DIRECTION('',(-1.,0.,0.));
#447 = MANIFOLD_SOLID_BREP('',#448);
#448 = CLOSED_SHELL('',(#449,#489,#529,#551,#573,#585));
#449 = ADVANCED_FACE('',(#450),#484,.F.);
#450 = FACE_BOUND('',#451,.F.);
#451 = EDGE_LOOP('',(#452,#462,#470,#478));
#452 = ORIENTED_EDGE('',*,*,#453,.F.);
#453 = EDGE_CURVE('',#454,#456,#458,.T.);
#454 = VERTEX_POINT('',#455);
#455 = CARTESIAN_POINT('',(122.35028842544,-160.4924240491,800.));
#456 = VERTEX_POINT('',#457);
#457 = CARTESIAN_POINT('',(122.35028842544,-160.4924240491,1.3E+03));
#458 = LINE('',#459,#460);
#459 = CARTESIAN_POINT('',(122.35028842544,-160.4924240491,800.));
#460 = VECTOR('',#461,1.);
#461 = DIRECTION('',(0.,0.,1.));
#462 = ORIENTED_EDGE('',*,*,#463,.T.);
#463 = EDGE_CURVE('',#454,#464,#466,.T.);
#464 = VERTEX_POINT('',#465);
#465 = CARTESIAN_POINT('',(-19.07106781186,-301.9137802864,800.));
#466 = LINE('',#467,#468);
#467 = CARTESIAN_POINT('',(122.35028842544,-160.4924240491,800.));
#468 = VECTOR('',#469,1.);
#469 = DIRECTION('',(-0.707106781187,-0.707106781187,0.));
#470 = ORIENTED_EDGE('',*,*,#471,.T.);
#471 = EDGE_CURVE('',#464,#472,#474,.T.);
#472 = VERTEX_POINT('',#473);
#473 = CARTESIAN_POINT('',(-19.07106781186,-301.9137802864,1.3E+03));
#474 = LINE('',#475,#476);
#475 = CARTESIAN_POINT('',(-19.07106781186,-301.9137802864,800.));
#476 = VECTOR('',#477,1.);
#477 = DIRECTION('',(0.,0.,1.));
#478 = ORIENTED_EDGE('',*,*,#479,.F.);
#479 = EDGE_CURVE('',#456,#472,#480,.T.);
#480 = LINE('',#481,#482);
#481 = CARTESIAN_POINT('',(122.35028842544,-160.4924240491,1.3E+03));
#482 = VECTOR('',#483,1.);
#483 = DIRECTION('',(-0.707106781187,-0.707106781187,0.));
#484 = PLANE('',#485);
#485 = AXIS2_PLACEMENT_3D('',#486,#487,#488);
#486 = CARTESIAN_POINT('',(122.35028842544,-160.4924240491,800.));
#487 = DIRECTION('',(-0.707106781187,0.707106781187,0.));
#488 = DIRECTION('',(0.,0.,1.));
#489 = ADVANCED_FACE('',(#490),#524,.T.);
#490 = FACE_BOUND('',#491,.T.);
#491 = EDGE_LOOP('',(#492,#502,#510,#518));
#492 = ORIENTED_EDGE('',*,*,#493,.F.);
#493 = EDGE_CURVE('',#494,#496,#498,.T.);
#494 = VERTEX_POINT('',#495);
#495 = CARTESIAN_POINT('',(-160.4924240491,122.35028842544,800.));
#496 = VERTEX_POINT('',#497);
#497 = CARTESIAN_POINT('',(-160.4924240491,122.35028842544,1.3E+03));
#498 = LINE('',#499,#500);
#499 = CARTESIAN_POINT('',(-160.4924240491,122.35028842544,800.));
#500 = VECTOR('',#501,1.);
#501 = DIRECTION('',(0.,0.,1.));
#502 = ORIENTED_EDGE('',*,*,#503,.T.);
#503 = EDGE_CURVE('',#494,#504,#506,.T.);
#504 = VERTEX_POINT('',#505);
#505 = CARTESIAN_POINT('',(-301.9137802864,-19.07106781186,800.));
#506 = LINE('',#507,#508);
#507 = CARTESIAN_POINT('',(-160.4924240491,122.35028842544,800.));
#508 = VECTOR('',#509,1.);
#509 = DIRECTION('',(-0.707106781187,-0.707106781187,0.));
#510 = ORIENTED_EDGE('',*,*,#511,.T.);
#511 = EDGE_CURVE('',#504,#512,#514,.T.);
#512 = VERTEX_POINT('',#513);
#513 = CARTESIAN_POINT('',(-301.9137802864,-19.07106781186,1.3E+03));
#514 = LINE('',#515,#516);
#515 = CARTESIAN_POINT('',(-301.9137802864,-19.07106781186,800.));
#516 = VECTOR('',#517,1.);
#517 = DIRECTION('',(0.,0.,1.));
#518 = ORIENTED_EDGE('',*,*,#519,.F.);
#519 = EDGE_CURVE('',#496,#512,#520,.T.);
#520 = LINE('',#521,#522);
#521 = CARTESIAN_POINT('',(-160.4924240491,122.35028842544,1.3E+03));
#522 = VECTOR('',#523,1.);
#523 = DIRECTION('',(-0.707106781187,-0.707106781187,0.));
#524 = PLANE('',#525);
#525 = AXIS2_PLACEMENT_3D('',#526,#527,#528);
#526 = CARTESIAN_POINT('',(-160.4924240491,122.35028842544,800.));
#527 = DIRECTION('',(-0.707106781187,0.707106781187,0.));
#528 = DIRECTION('',(0.,0.,1.));
#529 = ADVANCED_FACE('',(#530),#546,.F.);
#530 = FACE_BOUND('',#531,.F.);
#531 = EDGE_LOOP('',(#532,#538,#539,#545));
#532 = ORIENTED_EDGE('',*,*,#533,.F.);
#533 = EDGE_CURVE('',#454,#494,#534,.T.);
#534 = LINE('',#535,#536);
#535 = CARTESIAN_POINT('',(122.35028842544,-160.4924240491,800.));
#536 = VECTOR('',#537,1.);
#537 = DIRECTION('',(-0.707106781187,0.707106781187,0.));
#538 = ORIENTED_EDGE('',*,*,#453,.T.);
#539 = ORIENTED_EDGE('',*,*,#540,.T.);
#540 = EDGE_CURVE('',#456,#496,#541,.T.);
#541 = LINE('',#542,#543);
#542 = CARTESIAN_POINT('',(122.35028842544,-160.4924240491,1.3E+03));
#543 = VECTOR('',#544,1.);
#544 = DIRECTION('',(-0.707106781187,0.707106781187,0.));
#545 = ORIENTED_EDGE('',*,*,#493,.F.);
#546 = PLANE('',#547);
#547 = AXIS2_PLACEMENT_3D('',#548,#549,#550);
#548 = CARTESIAN_POINT('',(122.35028842544,-160.4924240491,800.));
#549 = DIRECTION('',(-0.707106781187,-0.707106781187,0.));
#550 = DIRECTION('',(0.,0.,1.));
#551 = ADVANCED_FACE('',(#552),#568,.T.);
#552 = FACE_BOUND('',#553,.T.);
#553 = EDGE_LOOP('',(#554,#560,#561,#567));
#554 = ORIENTED_EDGE('',*,*,#555,.F.);
#555 = EDGE_CURVE('',#464,#504,#556,.T.);
#556 = LINE('',#557,#558);
#557 = CARTESIAN_POINT('',(-19.07106781186,-301.9137802864,800.));
#558 = VECTOR('',#559,1.);
#559 = DIRECTION('',(-0.707106781187,0.707106781187,0.));
#560 = ORIENTED_EDGE('',*,*,#471,.T.);
#561 = ORIENTED_EDGE('',*,*,#562,.T.);
#562 = EDGE_CURVE('',#472,#512,#563,.T.);
#563 = LINE('',#564,#565);
#564 = CARTESIAN_POINT('',(-19.07106781186,-301.9137802864,1.3E+03));
#565 = VECTOR('',#566,1.);
#566 = DIRECTION('',(-0.707106781187,0.707106781187,0.));
#567 = ORIENTED_EDGE('',*,*,#511,.F.);
#568 = PLANE('',#569);
#569 = AXIS2_PLACEMENT_3D('',#570,#571,#572);
#570 = CARTESIAN_POINT('',(-19.07106781186,-301.9137802864,800.));
#571 = DIRECTION('',(-0.707106781187,-0.707106781187,0.));
#572 = DIRECTION('',(0.,0.,1.));
#573 = ADVANCED_FACE('',(#574),#580,.F.);
#574 = FACE_BOUND('',#575,.F.);
#575 = EDGE_LOOP('',(#576,#577,#578,#579));
#576 = ORIENTED_EDGE('',*,*,#463,.F.);
#577 = ORIENTED_EDGE('',*,*,#533,.T.);
#578 = ORIENTED_EDGE('',*,*,#503,.T.);
#579 = ORIENTED_EDGE('',*,*,#555,.F.);
#580 = PLANE('',#581);
#581 = AXIS2_PLACEMENT_3D('',#582,#583,#584);
#582 = CARTESIAN_POINT('',(122.35028842544,-160.4924240491,800.));
#583 = DIRECTION('',(0.,0.,1.));
#584 = DIRECTION('',(-0.707106781187,0.707106781187,0.));
#585 = ADVANCED_FACE('',(#586),#592,.T.);
#586 = FACE_BOUND('',#587,.T.);
#587 = EDGE_LOOP('',(#588,#589,#590,#591));
#588 = ORIENTED_EDGE('',*,*,#479,.F.);
#589 = ORIENTED_EDGE('',*,*,#540,.T.);
#590 = ORIENTED_EDGE('',*,*,#519,.T.);
#591 = ORIENTED_EDGE('',*,*,#562,.F.);
#592 = PLANE('',#593);
#593 = AXIS2_PLACEMENT_3D('',#594,#595,#596);
#594 = CARTESIAN_POINT('',(122.35028842544,-160.4924240491,1.3E+03));
#595 = DIRECTION('',(0.,0.,1.));
#596 = DIRECTION('',(-0.707106781187,0.707106781187,0.));
#597 = MANIFOLD_SOLID_BREP('',#598);
#598 = CLOSED_SHELL('',(#599,#639,#679,#701,#723,#735));
#599 = ADVANCED_FACE('',(#600),#634,.F.);
#600 = FACE_BOUND('',#601,.F.);
#601 = EDGE_LOOP('',(#602,#612,#620,#628));
#602 = ORIENTED_EDGE('',*,*,#603,.F.);
#603 = EDGE_CURVE('',#604,#606,#608,.T.);
#604 = VERTEX_POINT('',#605);
#605 = CARTESIAN_POINT('',(-29.67766952966,-291.3071785686,815.));
#606 = VERTEX_POINT('',#607);
#607 = CARTESIAN_POINT('',(-29.67766952966,-291.3071785686,1.285E+03));
#608 = LINE('',#609,#610);
#609 = CARTESIAN_POINT('',(-29.67766952966,-291.3071785686,815.));
#610 = VECTOR('',#611,1.);
#611 = DIRECTION('',(0.,0.,1.));
#612 = ORIENTED_EDGE('',*,*,#613,.T.);
#613 = EDGE_CURVE('',#604,#614,#616,.T.);
#614 = VERTEX_POINT('',#615);
#615 = CARTESIAN_POINT('',(-32.50609665441,-294.1356056934,815.));
#616 = LINE('',#617,#618);
#617 = CARTESIAN_POINT('',(-29.67766952966,-291.3071785686,815.));
#618 = VECTOR('',#619,1.);
#619 = DIRECTION('',(-0.707106781187,-0.707106781187,0.));
#620 = ORIENTED_EDGE('',*,*,#621,.T.);
#621 = EDGE_CURVE('',#614,#622,#624,.T.);
#622 = VERTEX_POINT('',#623);
#623 = CARTESIAN_POINT('',(-32.50609665441,-294.1356056934,1.285E+03));
#624 = LINE('',#625,#626);
#625 = CARTESIAN_POINT('',(-32.50609665441,-294.1356056934,815.));
#626 = VECTOR('',#627,1.);
#627 = DIRECTION('',(0.,0.,1.));
#628 = ORIENTED_EDGE('',*,*,#629,.F.);
#629 = EDGE_CURVE('',#606,#622,#630,.T.);
#630 = LINE('',#631,#632);
#631 = CARTESIAN_POINT('',(-29.67766952966,-291.3071785686,1.285E+03));
#632 = VECTOR('',#633,1.);
#633 = DIRECTION('',(-0.707106781187,-0.707106781187,0.));
#634 = PLANE('',#635);
#635 = AXIS2_PLACEMENT_3D('',#636,#637,#638);
#636 = CARTESIAN_POINT('',(-29.67766952966,-291.3071785686,815.));
#637 = DIRECTION('',(-0.707106781187,0.707106781187,0.));
#638 = DIRECTION('',(0.,0.,1.));
#639 = ADVANCED_FACE('',(#640),#674,.T.);
#640 = FACE_BOUND('',#641,.T.);
#641 = EDGE_LOOP('',(#642,#652,#660,#668));
#642 = ORIENTED_EDGE('',*,*,#643,.F.);
#643 = EDGE_CURVE('',#644,#646,#648,.T.);
#644 = VERTEX_POINT('',#645);
#645 = CARTESIAN_POINT('',(-291.3071785686,-29.67766952966,815.));
#646 = VERTEX_POINT('',#647);
#647 = CARTESIAN_POINT('',(-291.3071785686,-29.67766952966,1.285E+03));
#648 = LINE('',#649,#650);
#649 = CARTESIAN_POINT('',(-291.3071785686,-29.67766952966,815.));
#650 = VECTOR('',#651,1.);
#651 = DIRECTION('',(0.,0.,1.));
#652 = ORIENTED_EDGE('',*,*,#653,.T.);
#653 = EDGE_CURVE('',#644,#654,#656,.T.);
#654 = VERTEX_POINT('',#655);
#655 = CARTESIAN_POINT('',(-294.1356056934,-32.50609665441,815.));
#656 = LINE('',#657,#658);
#657 = CARTESIAN_POINT('',(-291.3071785686,-29.67766952966,815.));
#658 = VECTOR('',#659,1.);
#659 = DIRECTION('',(-0.707106781187,-0.707106781187,0.));
#660 = ORIENTED_EDGE('',*,*,#661,.T.);
#661 = EDGE_CURVE('',#654,#662,#664,.T.);
#662 = VERTEX_POINT('',#663);
#663 = CARTESIAN_POINT('',(-294.1356056934,-32.50609665441,1.285E+03));
#664 = LINE('',#665,#666);
#665 = CARTESIAN_POINT('',(-294.1356056934,-32.50609665441,815.));
#666 = VECTOR('',#667,1.);
#667 = DIRECTION('',(0.,0.,1.));
#668 = ORIENTED_EDGE('',*,*,#669,.F.);
#669 = EDGE_CURVE('',#646,#662,#670,.T.);
#670 = LINE('',#671,#672);
#671 = CARTESIAN_POINT('',(-291.3071785686,-29.67766952966,1.285E+03));
#672 = VECTOR('',#673,1.);
#673 = DIRECTION('',(-0.707106781187,-0.707106781187,0.));
#674 = PLANE('',#675);
#675 = AXIS2_PLACEMENT_3D('',#676,#677,#678);
#676 = CARTESIAN_POINT('',(-291.3071785686,-29.67766952966,815.));
#677 = DIRECTION('',(-0.707106781187,0.707106781187,0.));
#678 = DIRECTION('',(0.,0.,1.));
#679 = ADVANCED_FACE('',(#680),#696,.F.);
#680 = FACE_BOUND('',#681,.F.);
#681 = EDGE_LOOP('',(#682,#688,#689,#695));
#682 = ORIENTED_EDGE('',*,*,#683,.F.);
#683 = EDGE_CURVE('',#604,#644,#684,.T.);
#684 = LINE('',#685,#686);
#685 = CARTESIAN_POINT('',(-29.67766952966,-291.3071785686,815.));
#686 = VECTOR('',#687,1.);
#687 = DIRECTION('',(-0.707106781187,0.707106781187,0.));
#688 = ORIENTED_EDGE('',*,*,#603,.T.);
#689 = ORIENTED_EDGE('',*,*,#690,.T.);
#690 = EDGE_CURVE('',#606,#646,#691,.T.);
#691 = LINE('',#692,#693);
#692 = CARTESIAN_POINT('',(-29.67766952966,-291.3071785686,1.285E+03));
#693 = VECTOR('',#694,1.);
#694 = DIRECTION('',(-0.707106781187,0.707106781187,0.));
#695 = ORIENTED_EDGE('',*,*,#643,.F.);
#696 = PLANE('',#697);
#697 = AXIS2_PLACEMENT_3D('',#698,#699,#700);
#698 = CARTESIAN_POINT('',(-29.67766952966,-291.3071785686,815.));
#699 = DIRECTION('',(-0.707106781187,-0.707106781187,0.));
#700 = DIRECTION('',(0.,0.,1.));
#701 = ADVANCED_FACE('',(#702),#718,.T.);
#702 = FACE_BOUND('',#703,.T.);
#703 = EDGE_LOOP('',(#704,#710,#711,#717));
#704 = ORIENTED_EDGE('',*,*,#705,.F.);
#705 = EDGE_CURVE('',#614,#654,#706,.T.);
#706 = LINE('',#707,#708);
#707 = CARTESIAN_POINT('',(-32.50609665441,-294.1356056934,815.));
#708 = VECTOR('',#709,1.);
#709 = DIRECTION('',(-0.707106781187,0.707106781187,0.));
#710 = ORIENTED_EDGE('',*,*,#621,.T.);
#711 = ORIENTED_EDGE('',*,*,#712,.T.);
#712 = EDGE_CURVE('',#622,#662,#713,.T.);
#713 = LINE('',#714,#715);
#714 = CARTESIAN_POINT('',(-32.50609665441,-294.1356056934,1.285E+03));
#715 = VECTOR('',#716,1.);
#716 = DIRECTION('',(-0.707106781187,0.707106781187,0.));
#717 = ORIENTED_EDGE('',*,*,#661,.F.);
#718 = PLANE('',#719);
#719 = AXIS2_PLACEMENT_3D('',#720,#721,#722);
#720 = CARTESIAN_POINT('',(-32.50609665441,-294.1356056934,815.));
#721 = DIRECTION('',(-0.707106781187,-0.707106781187,0.));
#722 = DIRECTION('',(0.,0.,1.));
#723 = ADVANCED_FACE('',(#724),#730,.F.);
#724 = FACE_BOUND('',#725,.F.);
#725 = EDGE_LOOP('',(#726,#727,#728,#729));
#726 = ORIENTED_EDGE('',*,*,#613,.F.);
#727 = ORIENTED_EDGE('',*,*,#683,.T.);
#728 = ORIENTED_EDGE('',*,*,#653,.T.);
#729 = ORIENTED_EDGE('',*,*,#705,.F.);
#730 = PLANE('',#731);
#731 = AXIS2_PLACEMENT_3D('',#732,#733,#734);
#732 = CARTESIAN_POINT('',(-29.67766952966,-291.3071785686,815.));
#733 = DIRECTION('',(0.,0.,1.));
#734 = DIRECTION('',(-0.707106781187,0.707106781187,0.));
#735 = ADVANCED_FACE('',(#736),#742,.T.);
#736 = FACE_BOUND('',#737,.T.);
#737 = EDGE_LOOP('',(#738,#739,#740,#741));
#738 = ORIENTED_EDGE('',*,*,#629,.F.);
#739 = ORIENTED_EDGE('',*,*,#690,.T.);
#740 = ORIENTED_EDGE('',*,*,#669,.T.);
#741 = ORIENTED_EDGE('',*,*,#712,.F.);
#742 = PLANE('',#743);
#743 = AXIS2_PLACEMENT_3D('',#744,#745,#746);
#744 = CARTESIAN_POINT('',(-29.67766952966,-291.3071785686,1.285E+03));
#745 = DIRECTION('',(0.,0.,1.));
#746 = DIRECTION('',(-0.707106781187,0.707106781187,0.));
#747 = MANIFOLD_SOLID_BREP('',#748);
#748 = CLOSED_SHELL('',(#749,#789,#829,#851,#873,#885));
#749 = ADVANCED_FACE('',(#750),#784,.F.);
#750 = FACE_BOUND('',#751,.F.);
#751 = EDGE_LOOP('',(#752,#762,#770,#778));
#752 = ORIENTED_EDGE('',*,*,#753,.F.);
#753 = EDGE_CURVE('',#754,#756,#758,.T.);
#754 = VERTEX_POINT('',#755);
#755 = CARTESIAN_POINT('',(143.56349186104,-167.563491861,1.3E+03));
#756 = VERTEX_POINT('',#757);
#757 = CARTESIAN_POINT('',(143.56349186104,-167.563491861,1.312E+03));
#758 = LINE('',#759,#760);
#759 = CARTESIAN_POINT('',(143.56349186104,-167.563491861,1.3E+03));
#760 = VECTOR('',#761,1.);
#761 = DIRECTION('',(0.,0.,1.));
#762 = ORIENTED_EDGE('',*,*,#763,.T.);
#763 = EDGE_CURVE('',#754,#764,#766,.T.);
#764 = VERTEX_POINT('',#765);
#765 = CARTESIAN_POINT('',(-26.14213562373,-337.2691193458,1.3E+03));
#766 = LINE('',#767,#768);
#767 = CARTESIAN_POINT('',(143.56349186104,-167.563491861,1.3E+03));
#768 = VECTOR('',#769,1.);
#769 = DIRECTION('',(-0.707106781187,-0.707106781187,0.));
#770 = ORIENTED_EDGE('',*,*,#771,.T.);
#771 = EDGE_CURVE('',#764,#772,#774,.T.);
#772 = VERTEX_POINT('',#773);
#773 = CARTESIAN_POINT('',(-26.14213562373,-337.2691193458,1.312E+03));
#774 = LINE('',#775,#776);
#775 = CARTESIAN_POINT('',(-26.14213562373,-337.2691193458,1.3E+03));
#776 = VECTOR('',#777,1.);
#777 = DIRECTION('',(0.,0.,1.));
#778 = ORIENTED_EDGE('',*,*,#779,.F.);
#779 = EDGE_CURVE('',#756,#772,#780,.T.);
#780 = LINE('',#781,#782);
#781 = CARTESIAN_POINT('',(143.56349186104,-167.563491861,1.312E+03));
#782 = VECTOR('',#783,1.);
#783 = DIRECTION('',(-0.707106781187,-0.707106781187,0.));
#784 = PLANE('',#785);
#785 = AXIS2_PLACEMENT_3D('',#786,#787,#788);
#786 = CARTESIAN_POINT('',(143.56349186104,-167.563491861,1.3E+03));
#787 = DIRECTION('',(-0.707106781187,0.707106781187,0.));
#788 = DIRECTION('',(0.,0.,1.));
#789 = ADVANCED_FACE('',(#790),#824,.T.);
#790 = FACE_BOUND('',#791,.T.);
#791 = EDGE_LOOP('',(#792,#802,#810,#818));
#792 = ORIENTED_EDGE('',*,*,#793,.F.);
#793 = EDGE_CURVE('',#794,#796,#798,.T.);
#794 = VERTEX_POINT('',#795);
#795 = CARTESIAN_POINT('',(-167.563491861,143.56349186104,1.3E+03));
#796 = VERTEX_POINT('',#797);
#797 = CARTESIAN_POINT('',(-167.563491861,143.56349186104,1.312E+03));
#798 = LINE('',#799,#800);
#799 = CARTESIAN_POINT('',(-167.563491861,143.56349186104,1.3E+03));
#800 = VECTOR('',#801,1.);
#801 = DIRECTION('',(0.,0.,1.));
#802 = ORIENTED_EDGE('',*,*,#803,.T.);
#803 = EDGE_CURVE('',#794,#804,#806,.T.);
#804 = VERTEX_POINT('',#805);
#805 = CARTESIAN_POINT('',(-337.2691193458,-26.14213562373,1.3E+03));
#806 = LINE('',#807,#808);
#807 = CARTESIAN_POINT('',(-167.563491861,143.56349186104,1.3E+03));
#808 = VECTOR('',#809,1.);
#809 = DIRECTION('',(-0.707106781187,-0.707106781187,0.));
#810 = ORIENTED_EDGE('',*,*,#811,.T.);
#811 = EDGE_CURVE('',#804,#812,#814,.T.);
#812 = VERTEX_POINT('',#813);
#813 = CARTESIAN_POINT('',(-337.2691193458,-26.14213562373,1.312E+03));
#814 = LINE('',#815,#816);
#815 = CARTESIAN_POINT('',(-337.2691193458,-26.14213562373,1.3E+03));
#816 = VECTOR('',#817,1.);
#817 = DIRECTION('',(0.,0.,1.));
#818 = ORIENTED_EDGE('',*,*,#819,.F.);
#819 = EDGE_CURVE('',#796,#812,#820,.T.);
#820 = LINE('',#821,#822);
#821 = CARTESIAN_POINT('',(-167.563491861,143.56349186104,1.312E+03));
#822 = VECTOR('',#823,1.);
#823 = DIRECTION('',(-0.707106781187,-0.707106781187,0.));
#824 = PLANE('',#825);
#825 = AXIS2_PLACEMENT_3D('',#826,#827,#828);
#826 = CARTESIAN_POINT('',(-167.563491861,143.56349186104,1.3E+03));
#827 = DIRECTION('',(-0.707106781187,0.707106781187,0.));
#828 = DIRECTION('',(0.,0.,1.));
#829 = ADVANCED_FACE('',(#830),#846,.F.);
#830 = FACE_BOUND('',#831,.F.);
#831 = EDGE_LOOP('',(#832,#838,#839,#845));
#832 = ORIENTED_EDGE('',*,*,#833,.F.);
#833 = EDGE_CURVE('',#754,#794,#834,.T.);
#834 = LINE('',#835,#836);
#835 = CARTESIAN_POINT('',(143.56349186104,-167.563491861,1.3E+03));
#836 = VECTOR('',#837,1.);
#837 = DIRECTION('',(-0.707106781187,0.707106781187,0.));
#838 = ORIENTED_EDGE('',*,*,#753,.T.);
#839 = ORIENTED_EDGE('',*,*,#840,.T.);
#840 = EDGE_CURVE('',#756,#796,#841,.T.);
#841 = LINE('',#842,#843);
#842 = CARTESIAN_POINT('',(143.56349186104,-167.563491861,1.312E+03));
#843 = VECTOR('',#844,1.);
#844 = DIRECTION('',(-0.707106781187,0.707106781187,0.));
#845 = ORIENTED_EDGE('',*,*,#793,.F.);
#846 = PLANE('',#847);
#847 = AXIS2_PLACEMENT_3D('',#848,#849,#850);
#848 = CARTESIAN_POINT('',(143.56349186104,-167.563491861,1.3E+03));
#849 = DIRECTION('',(-0.707106781187,-0.707106781187,0.));
#850 = DIRECTION('',(0.,0.,1.));
#851 = ADVANCED_FACE('',(#852),#868,.T.);
#852 = FACE_BOUND('',#853,.T.);
#853 = EDGE_LOOP('',(#854,#860,#861,#867));
#854 = ORIENTED_EDGE('',*,*,#855,.F.);
#855 = EDGE_CURVE('',#764,#804,#856,.T.);
#856 = LINE('',#857,#858);
#857 = CARTESIAN_POINT('',(-26.14213562373,-337.2691193458,1.3E+03));
#858 = VECTOR('',#859,1.);
#859 = DIRECTION('',(-0.707106781187,0.707106781187,0.));
#860 = ORIENTED_EDGE('',*,*,#771,.T.);
#861 = ORIENTED_EDGE('',*,*,#862,.T.);
#862 = EDGE_CURVE('',#772,#812,#863,.T.);
#863 = LINE('',#864,#865);
#864 = CARTESIAN_POINT('',(-26.14213562373,-337.2691193458,1.312E+03));
#865 = VECTOR('',#866,1.);
#866 = DIRECTION('',(-0.707106781187,0.707106781187,0.));
#867 = ORIENTED_EDGE('',*,*,#811,.F.);
#868 = PLANE('',#869);
#869 = AXIS2_PLACEMENT_3D('',#870,#871,#872);
#870 = CARTESIAN_POINT('',(-26.14213562373,-337.2691193458,1.3E+03));
#871 = DIRECTION('',(-0.707106781187,-0.707106781187,0.));
#872 = DIRECTION('',(0.,0.,1.));
#873 = ADVANCED_FACE('',(#874),#880,.F.);
#874 = FACE_BOUND('',#875,.F.);
#875 = EDGE_LOOP('',(#876,#877,#878,#879));
#876 = ORIENTED_EDGE('',*,*,#763,.F.);
#877 = ORIENTED_EDGE('',*,*,#833,.T.);
#878 = ORIENTED_EDGE('',*,*,#803,.T.);
#879 = ORIENTED_EDGE('',*,*,#855,.F.);
#880 = PLANE('',#881);
#881 = AXIS2_PLACEMENT_3D('',#882,#883,#884);
#882 = CARTESIAN_POINT('',(143.56349186104,-167.563491861,1.3E+03));
#883 = DIRECTION('',(0.,0.,1.));
#884 = DIRECTION('',(-0.707106781187,0.707106781187,0.));
#885 = ADVANCED_FACE('',(#886),#892,.T.);
#886 = FACE_BOUND('',#887,.T.);
#887 = EDGE_LOOP('',(#888,#889,#890,#891));
#888 = ORIENTED_EDGE('',*,*,#779,.F.);
#889 = ORIENTED_EDGE('',*,*,#840,.T.);
#890 = ORIENTED_EDGE('',*,*,#819,.T.);
#891 = ORIENTED_EDGE('',*,*,#862,.F.);
#892 = PLANE('',#893);
#893 = AXIS2_PLACEMENT_3D('',#894,#895,#896);
#894 = CARTESIAN_POINT('',(143.56349186104,-167.563491861,1.312E+03));
#895 = DIRECTION('',(0.,0.,1.));
#896 = DIRECTION('',(-0.707106781187,0.707106781187,0.));
#897 = MANIFOLD_SOLID_BREP('',#898);
#898 = CLOSED_SHELL('',(#899,#939,#979,#1001,#1023,#1035));
#899 = ADVANCED_FACE('',(#900),#934,.F.);
#900 = FACE_BOUND('',#901,.F.);
#901 = EDGE_LOOP('',(#902,#912,#920,#928));
#902 = ORIENTED_EDGE('',*,*,#903,.F.);
#903 = EDGE_CURVE('',#904,#906,#908,.T.);
#904 = VERTEX_POINT('',#905);
#905 = CARTESIAN_POINT('',(214.27416997969,-280.7005768508,1.33E+03));
#906 = VERTEX_POINT('',#907);
#907 = CARTESIAN_POINT('',(-22.07595840976,-517.0507052403,
    1.728343110422E+03));
#908 = LINE('',#909,#910);
#909 = CARTESIAN_POINT('',(214.27416997969,-280.7005768508,1.33E+03));
#910 = VECTOR('',#911,1.);
#911 = DIRECTION('',(-0.454519477672,-0.454519477672,0.766044443119));
#912 = ORIENTED_EDGE('',*,*,#913,.T.);
#913 = EDGE_CURVE('',#904,#914,#916,.T.);
#914 = VERTEX_POINT('',#915);
#915 = CARTESIAN_POINT('',(208.85741777549,-286.117329055,
    1.323572123903E+03));
#916 = LINE('',#917,#918);
#917 = CARTESIAN_POINT('',(214.27416997969,-280.7005768508,1.33E+03));
#918 = VECTOR('',#919,1.);
#919 = DIRECTION('',(-0.54167522042,-0.54167522042,-0.642787609687));
#920 = ORIENTED_EDGE('',*,*,#921,.T.);
#921 = EDGE_CURVE('',#914,#922,#924,.T.);
#922 = VERTEX_POINT('',#923);
#923 = CARTESIAN_POINT('',(-27.49271061396,-522.4674574445,
    1.721915234325E+03));
#924 = LINE('',#925,#926);
#925 = CARTESIAN_POINT('',(208.85741777549,-286.117329055,
    1.323572123903E+03));
#926 = VECTOR('',#927,1.);
#927 = DIRECTION('',(-0.454519477672,-0.454519477672,0.766044443119));
#928 = ORIENTED_EDGE('',*,*,#929,.F.);
#929 = EDGE_CURVE('',#906,#922,#930,.T.);
#930 = LINE('',#931,#932);
#931 = CARTESIAN_POINT('',(-22.07595840976,-517.0507052403,
    1.728343110422E+03));
#932 = VECTOR('',#933,1.);
#933 = DIRECTION('',(-0.54167522042,-0.54167522042,-0.642787609687));
#934 = PLANE('',#935);
#935 = AXIS2_PLACEMENT_3D('',#936,#937,#938);
#936 = CARTESIAN_POINT('',(214.27416997969,-280.7005768508,1.33E+03));
#937 = DIRECTION('',(-0.707106781187,0.707106781187,2.775557561563E-17)
  );
#938 = DIRECTION('',(-0.454519477672,-0.454519477672,0.766044443119));
#939 = ADVANCED_FACE('',(#940),#974,.T.);
#940 = FACE_BOUND('',#941,.T.);
#941 = EDGE_LOOP('',(#942,#952,#960,#968));
#942 = ORIENTED_EDGE('',*,*,#943,.F.);
#943 = EDGE_CURVE('',#944,#946,#948,.T.);
#944 = VERTEX_POINT('',#945);
#945 = CARTESIAN_POINT('',(-280.7005768508,214.27416997969,1.33E+03));
#946 = VERTEX_POINT('',#947);
#947 = CARTESIAN_POINT('',(-517.0507052403,-22.07595840976,
    1.728343110422E+03));
#948 = LINE('',#949,#950);
#949 = CARTESIAN_POINT('',(-280.7005768508,214.27416997969,1.33E+03));
#950 = VECTOR('',#951,1.);
#951 = DIRECTION('',(-0.454519477672,-0.454519477672,0.766044443119));
#952 = ORIENTED_EDGE('',*,*,#953,.T.);
#953 = EDGE_CURVE('',#944,#954,#956,.T.);
#954 = VERTEX_POINT('',#955);
#955 = CARTESIAN_POINT('',(-286.117329055,208.85741777549,
    1.323572123903E+03));
#956 = LINE('',#957,#958);
#957 = CARTESIAN_POINT('',(-280.7005768508,214.27416997969,1.33E+03));
#958 = VECTOR('',#959,1.);
#959 = DIRECTION('',(-0.54167522042,-0.54167522042,-0.642787609687));
#960 = ORIENTED_EDGE('',*,*,#961,.T.);
#961 = EDGE_CURVE('',#954,#962,#964,.T.);
#962 = VERTEX_POINT('',#963);
#963 = CARTESIAN_POINT('',(-522.4674574445,-27.49271061396,
    1.721915234325E+03));
#964 = LINE('',#965,#966);
#965 = CARTESIAN_POINT('',(-286.117329055,208.85741777549,
    1.323572123903E+03));
#966 = VECTOR('',#967,1.);
#967 = DIRECTION('',(-0.454519477672,-0.454519477672,0.766044443119));
#968 = ORIENTED_EDGE('',*,*,#969,.F.);
#969 = EDGE_CURVE('',#946,#962,#970,.T.);
#970 = LINE('',#971,#972);
#971 = CARTESIAN_POINT('',(-517.0507052403,-22.07595840976,
    1.728343110422E+03));
#972 = VECTOR('',#973,1.);
#973 = DIRECTION('',(-0.54167522042,-0.54167522042,-0.642787609687));
#974 = PLANE('',#975);
#975 = AXIS2_PLACEMENT_3D('',#976,#977,#978);
#976 = CARTESIAN_POINT('',(-280.7005768508,214.27416997969,1.33E+03));
#977 = DIRECTION('',(-0.707106781187,0.707106781187,2.775557561563E-17)
  );
#978 = DIRECTION('',(-0.454519477672,-0.454519477672,0.766044443119));
#979 = ADVANCED_FACE('',(#980),#996,.F.);
#980 = FACE_BOUND('',#981,.F.);
#981 = EDGE_LOOP('',(#982,#988,#989,#995));
#982 = ORIENTED_EDGE('',*,*,#983,.F.);
#983 = EDGE_CURVE('',#904,#944,#984,.T.);
#984 = LINE('',#985,#986);
#985 = CARTESIAN_POINT('',(214.27416997969,-280.7005768508,1.33E+03));
#986 = VECTOR('',#987,1.);
#987 = DIRECTION('',(-0.707106781187,0.707106781187,2.775557561563E-17)
  );
#988 = ORIENTED_EDGE('',*,*,#903,.T.);
#989 = ORIENTED_EDGE('',*,*,#990,.T.);
#990 = EDGE_CURVE('',#906,#946,#991,.T.);
#991 = LINE('',#992,#993);
#992 = CARTESIAN_POINT('',(-22.07595840976,-517.0507052403,
    1.728343110422E+03));
#993 = VECTOR('',#994,1.);
#994 = DIRECTION('',(-0.707106781187,0.707106781187,2.775557561563E-17)
  );
#995 = ORIENTED_EDGE('',*,*,#943,.F.);
#996 = PLANE('',#997);
#997 = AXIS2_PLACEMENT_3D('',#998,#999,#1000);
#998 = CARTESIAN_POINT('',(214.27416997969,-280.7005768508,1.33E+03));
#999 = DIRECTION('',(-0.54167522042,-0.54167522042,-0.642787609687));
#1000 = DIRECTION('',(-0.454519477672,-0.454519477672,0.766044443119));
#1001 = ADVANCED_FACE('',(#1002),#1018,.T.);
#1002 = FACE_BOUND('',#1003,.T.);
#1003 = EDGE_LOOP('',(#1004,#1010,#1011,#1017));
#1004 = ORIENTED_EDGE('',*,*,#1005,.F.);
#1005 = EDGE_CURVE('',#914,#954,#1006,.T.);
#1006 = LINE('',#1007,#1008);
#1007 = CARTESIAN_POINT('',(208.85741777549,-286.117329055,
    1.323572123903E+03));
#1008 = VECTOR('',#1009,1.);
#1009 = DIRECTION('',(-0.707106781187,0.707106781187,2.775557561563E-17)
  );
#1010 = ORIENTED_EDGE('',*,*,#921,.T.);
#1011 = ORIENTED_EDGE('',*,*,#1012,.T.);
#1012 = EDGE_CURVE('',#922,#962,#1013,.T.);
#1013 = LINE('',#1014,#1015);
#1014 = CARTESIAN_POINT('',(-27.49271061396,-522.4674574445,
    1.721915234325E+03));
#1015 = VECTOR('',#1016,1.);
#1016 = DIRECTION('',(-0.707106781187,0.707106781187,2.775557561563E-17)
  );
#1017 = ORIENTED_EDGE('',*,*,#961,.F.);
#1018 = PLANE('',#1019);
#1019 = AXIS2_PLACEMENT_3D('',#1020,#1021,#1022);
#1020 = CARTESIAN_POINT('',(208.85741777549,-286.117329055,
    1.323572123903E+03));
#1021 = DIRECTION('',(-0.54167522042,-0.54167522042,-0.642787609687));
#1022 = DIRECTION('',(-0.454519477672,-0.454519477672,0.766044443119));
#1023 = ADVANCED_FACE('',(#1024),#1030,.F.);
#1024 = FACE_BOUND('',#1025,.F.);
#1025 = EDGE_LOOP('',(#1026,#1027,#1028,#1029));
#1026 = ORIENTED_EDGE('',*,*,#913,.F.);
#1027 = ORIENTED_EDGE('',*,*,#983,.T.);
#1028 = ORIENTED_EDGE('',*,*,#953,.T.);
#1029 = ORIENTED_EDGE('',*,*,#1005,.F.);
#1030 = PLANE('',#1031);
#1031 = AXIS2_PLACEMENT_3D('',#1032,#1033,#1034);
#1032 = CARTESIAN_POINT('',(214.27416997969,-280.7005768508,1.33E+03));
#1033 = DIRECTION('',(-0.454519477672,-0.454519477672,0.766044443119));
#1034 = DIRECTION('',(-0.707106781187,0.707106781187,2.775557561563E-17)
  );
#1035 = ADVANCED_FACE('',(#1036),#1042,.T.);
#1036 = FACE_BOUND('',#1037,.T.);
#1037 = EDGE_LOOP('',(#1038,#1039,#1040,#1041));
#1038 = ORIENTED_EDGE('',*,*,#929,.F.);
#1039 = ORIENTED_EDGE('',*,*,#990,.T.);
#1040 = ORIENTED_EDGE('',*,*,#969,.T.);
#1041 = ORIENTED_EDGE('',*,*,#1012,.F.);
#1042 = PLANE('',#1043);
#1043 = AXIS2_PLACEMENT_3D('',#1044,#1045,#1046);
#1044 = CARTESIAN_POINT('',(-22.07595840976,-517.0507052403,
    1.728343110422E+03));
#1045 = DIRECTION('',(-0.454519477672,-0.454519477672,0.766044443119));
#1046 = DIRECTION('',(-0.707106781187,0.707106781187,2.775557561563E-17)
  );
#1047 = MANIFOLD_SOLID_BREP('',#1048);
#1048 = CLOSED_SHELL('',(#1049,#1082,#1091));
#1049 = ADVANCED_FACE('',(#1050),#1077,.T.);
#1050 = FACE_BOUND('',#1051,.T.);
#1051 = EDGE_LOOP('',(#1052,#1061,#1069,#1076));
#1052 = ORIENTED_EDGE('',*,*,#1053,.F.);
#1053 = EDGE_CURVE('',#1054,#1054,#1056,.T.);
#1054 = VERTEX_POINT('',#1055);
#1055 = CARTESIAN_POINT('',(-45.94112549695,-204.3330444827,1.572E+03));
#1056 = CIRCLE('',#1057,8.);
#1057 = AXIS2_PLACEMENT_3D('',#1058,#1059,#1060);
#1058 = CARTESIAN_POINT('',(-40.28427124746,-209.9898987322,1.572E+03));
#1059 = DIRECTION('',(0.,0.,1.));
#1060 = DIRECTION('',(-0.707106781187,0.707106781187,0.));
#1061 = ORIENTED_EDGE('',*,*,#1062,.F.);
#1062 = EDGE_CURVE('',#1063,#1054,#1065,.T.);
#1063 = VERTEX_POINT('',#1064);
#1064 = CARTESIAN_POINT('',(-45.94112549695,-204.3330444827,1.312E+03));
#1065 = LINE('',#1066,#1067);
#1066 = CARTESIAN_POINT('',(-45.94112549695,-204.3330444827,1.312E+03));
#1067 = VECTOR('',#1068,1.);
#1068 = DIRECTION('',(0.,0.,1.));
#1069 = ORIENTED_EDGE('',*,*,#1070,.T.);
#1070 = EDGE_CURVE('',#1063,#1063,#1071,.T.);
#1071 = CIRCLE('',#1072,8.);
#1072 = AXIS2_PLACEMENT_3D('',#1073,#1074,#1075);
#1073 = CARTESIAN_POINT('',(-40.28427124746,-209.9898987322,1.312E+03));
#1074 = DIRECTION('',(0.,0.,1.));
#1075 = DIRECTION('',(-0.707106781187,0.707106781187,0.));
#1076 = ORIENTED_EDGE('',*,*,#1062,.T.);
#1077 = CYLINDRICAL_SURFACE('',#1078,8.);
#1078 = AXIS2_PLACEMENT_3D('',#1079,#1080,#1081);
#1079 = CARTESIAN_POINT('',(-40.28427124746,-209.9898987322,1.312E+03));
#1080 = DIRECTION('',(0.,0.,1.));
#1081 = DIRECTION('',(-0.707106781187,0.707106781187,0.));
#1082 = ADVANCED_FACE('',(#1083),#1086,.T.);
#1083 = FACE_BOUND('',#1084,.T.);
#1084 = EDGE_LOOP('',(#1085));
#1085 = ORIENTED_EDGE('',*,*,#1053,.T.);
#1086 = PLANE('',#1087);
#1087 = AXIS2_PLACEMENT_3D('',#1088,#1089,#1090);
#1088 = CARTESIAN_POINT('',(-40.28427124746,-209.9898987322,1.572E+03));
#1089 = DIRECTION('',(0.,0.,1.));
#1090 = DIRECTION('',(-0.707106781187,0.707106781187,0.));
#1091 = ADVANCED_FACE('',(#1092),#1095,.F.);
#1092 = FACE_BOUND('',#1093,.T.);
#1093 = EDGE_LOOP('',(#1094));
#1094 = ORIENTED_EDGE('',*,*,#1070,.F.);
#1095 = PLANE('',#1096);
#1096 = AXIS2_PLACEMENT_3D('',#1097,#1098,#1099);
#1097 = CARTESIAN_POINT('',(-40.28427124746,-209.9898987322,1.312E+03));
#1098 = DIRECTION('',(0.,0.,1.));
#1099 = DIRECTION('',(-0.707106781187,0.707106781187,0.));
#1100 = MANIFOLD_SOLID_BREP('',#1101);
#1101 = CLOSED_SHELL('',(#1102,#1135,#1144));
#1102 = ADVANCED_FACE('',(#1103),#1130,.T.);
#1103 = FACE_BOUND('',#1104,.T.);
#1104 = EDGE_LOOP('',(#1105,#1114,#1122,#1129));
#1105 = ORIENTED_EDGE('',*,*,#1106,.F.);
#1106 = EDGE_CURVE('',#1107,#1107,#1109,.T.);
#1107 = VERTEX_POINT('',#1108);
#1108 = CARTESIAN_POINT('',(-217.060966544,-33.21320343559,1.512E+03));
#1109 = CIRCLE('',#1110,10.);
#1110 = AXIS2_PLACEMENT_3D('',#1111,#1112,#1113);
#1111 = CARTESIAN_POINT('',(-209.9898987322,-40.28427124746,1.512E+03));
#1112 = DIRECTION('',(0.,0.,1.));
#1113 = DIRECTION('',(-0.707106781187,0.707106781187,0.));
#1114 = ORIENTED_EDGE('',*,*,#1115,.F.);
#1115 = EDGE_CURVE('',#1116,#1107,#1118,.T.);
#1116 = VERTEX_POINT('',#1117);
#1117 = CARTESIAN_POINT('',(-217.060966544,-33.21320343559,1.312E+03));
#1118 = LINE('',#1119,#1120);
#1119 = CARTESIAN_POINT('',(-217.060966544,-33.21320343559,1.312E+03));
#1120 = VECTOR('',#1121,1.);
#1121 = DIRECTION('',(0.,0.,1.));
#1122 = ORIENTED_EDGE('',*,*,#1123,.T.);
#1123 = EDGE_CURVE('',#1116,#1116,#1124,.T.);
#1124 = CIRCLE('',#1125,10.);
#1125 = AXIS2_PLACEMENT_3D('',#1126,#1127,#1128);
#1126 = CARTESIAN_POINT('',(-209.9898987322,-40.28427124746,1.312E+03));
#1127 = DIRECTION('',(0.,0.,1.));
#1128 = DIRECTION('',(-0.707106781187,0.707106781187,0.));
#1129 = ORIENTED_EDGE('',*,*,#1115,.T.);
#1130 = CYLINDRICAL_SURFACE('',#1131,10.);
#1131 = AXIS2_PLACEMENT_3D('',#1132,#1133,#1134);
#1132 = CARTESIAN_POINT('',(-209.9898987322,-40.28427124746,1.312E+03));
#1133 = DIRECTION('',(0.,0.,1.));
#1134 = DIRECTION('',(-0.707106781187,0.707106781187,0.));
#1135 = ADVANCED_FACE('',(#1136),#1139,.T.);
#1136 = FACE_BOUND('',#1137,.T.);
#1137 = EDGE_LOOP('',(#1138));
#1138 = ORIENTED_EDGE('',*,*,#1106,.T.);
#1139 = PLANE('',#1140);
#1140 = AXIS2_PLACEMENT_3D('',#1141,#1142,#1143);
#1141 = CARTESIAN_POINT('',(-209.9898987322,-40.28427124746,1.512E+03));
#1142 = DIRECTION('',(0.,0.,1.));
#1143 = DIRECTION('',(-0.707106781187,0.707106781187,0.));
#1144 = ADVANCED_FACE('',(#1145),#1148,.F.);
#1145 = FACE_BOUND('',#1146,.T.);
#1146 = EDGE_LOOP('',(#1147));
#1147 = ORIENTED_EDGE('',*,*,#1123,.F.);
#1148 = PLANE('',#1149);
#1149 = AXIS2_PLACEMENT_3D('',#1150,#1151,#1152);
#1150 = CARTESIAN_POINT('',(-209.9898987322,-40.28427124746,1.312E+03));
#1151 = DIRECTION('',(0.,0.,1.));
#1152 = DIRECTION('',(-0.707106781187,0.707106781187,0.));
#1153 = MANIFOLD_SOLID_BREP('',#1154);
#1154 = CLOSED_SHELL('',(#1155,#1188,#1197));
#1155 = ADVANCED_FACE('',(#1156),#1183,.T.);
#1156 = FACE_BOUND('',#1157,.T.);
#1157 = EDGE_LOOP('',(#1158,#1167,#1175,#1182));
#1158 = ORIENTED_EDGE('',*,*,#1159,.F.);
#1159 = EDGE_CURVE('',#1160,#1160,#1162,.T.);
#1160 = VERTEX_POINT('',#1161);
#1161 = CARTESIAN_POINT('',(-82.71067811865,-26.14213562373,1.342E+03));
#1162 = CIRCLE('',#1163,40.);
#1163 = AXIS2_PLACEMENT_3D('',#1164,#1165,#1166);
#1164 = CARTESIAN_POINT('',(-54.42640687119,-54.42640687119,1.342E+03));
#1165 = DIRECTION('',(0.,0.,1.));
#1166 = DIRECTION('',(-0.707106781187,0.707106781187,0.));
#1167 = ORIENTED_EDGE('',*,*,#1168,.F.);
#1168 = EDGE_CURVE('',#1169,#1160,#1171,.T.);
#1169 = VERTEX_POINT('',#1170);
#1170 = CARTESIAN_POINT('',(-82.71067811865,-26.14213562373,1.312E+03));
#1171 = LINE('',#1172,#1173);
#1172 = CARTESIAN_POINT('',(-82.71067811865,-26.14213562373,1.312E+03));
#1173 = VECTOR('',#1174,1.);
#1174 = DIRECTION('',(0.,0.,1.));
#1175 = ORIENTED_EDGE('',*,*,#1176,.T.);
#1176 = EDGE_CURVE('',#1169,#1169,#1177,.T.);
#1177 = CIRCLE('',#1178,40.);
#1178 = AXIS2_PLACEMENT_3D('',#1179,#1180,#1181);
#1179 = CARTESIAN_POINT('',(-54.42640687119,-54.42640687119,1.312E+03));
#1180 = DIRECTION('',(0.,0.,1.));
#1181 = DIRECTION('',(-0.707106781187,0.707106781187,0.));
#1182 = ORIENTED_EDGE('',*,*,#1168,.T.);
#1183 = CYLINDRICAL_SURFACE('',#1184,40.);
#1184 = AXIS2_PLACEMENT_3D('',#1185,#1186,#1187);
#1185 = CARTESIAN_POINT('',(-54.42640687119,-54.42640687119,1.312E+03));
#1186 = DIRECTION('',(0.,0.,1.));
#1187 = DIRECTION('',(-0.707106781187,0.707106781187,0.));
#1188 = ADVANCED_FACE('',(#1189),#1192,.T.);
#1189 = FACE_BOUND('',#1190,.T.);
#1190 = EDGE_LOOP('',(#1191));
#1191 = ORIENTED_EDGE('',*,*,#1159,.T.);
#1192 = PLANE('',#1193);
#1193 = AXIS2_PLACEMENT_3D('',#1194,#1195,#1196);
#1194 = CARTESIAN_POINT('',(-54.42640687119,-54.42640687119,1.342E+03));
#1195 = DIRECTION('',(0.,0.,1.));
#1196 = DIRECTION('',(-0.707106781187,0.707106781187,0.));
#1197 = ADVANCED_FACE('',(#1198),#1201,.F.);
#1198 = FACE_BOUND('',#1199,.T.);
#1199 = EDGE_LOOP('',(#1200));
#1200 = ORIENTED_EDGE('',*,*,#1176,.F.);
#1201 = PLANE('',#1202);
#1202 = AXIS2_PLACEMENT_3D('',#1203,#1204,#1205);
#1203 = CARTESIAN_POINT('',(-54.42640687119,-54.42640687119,1.312E+03));
#1204 = DIRECTION('',(0.,0.,1.));
#1205 = DIRECTION('',(-0.707106781187,0.707106781187,0.));
#1206 = ( GEOMETRIC_REPRESENTATION_CONTEXT(3) 
GLOBAL_UNCERTAINTY_ASSIGNED_CONTEXT((#1210)) 
GLOBAL_UNIT_ASSIGNED_CONTEXT((#1207,#1208,#1209)) REPRESENTATION_CONTEXT
('Context #1','3D Context with UNIT and UNCERTAINTY') );
#1207 = ( LENGTH_UNIT() NAMED_UNIT(*) SI_UNIT(.MILLI.,.METRE.) );
#1208 = ( NAMED_UNIT(*) PLANE_ANGLE_UNIT() SI_UNIT($,.RADIAN.) );
#1209 = ( NAMED_UNIT(*) SI_UNIT($,.STERADIAN.) SOLID_ANGLE_UNIT() );
#1210 = UNCERTAINTY_MEASURE_WITH_UNIT(LENGTH_MEASURE(1.E-07),#1207,
  'distance_accuracy_value','confusion accuracy');
#1211 = PRODUCT_RELATED_PRODUCT_CATEGORY('part',$,(#7));
ENDSEC;
END-ISO-10303-21;
