<svg xmlns="http://www.w3.org/2000/svg" width="297mm" height="167.7mm" viewBox="0 0 1860 1050"><rect x="0" y="0" width="1860" height="1050" fill="white"/><polyline points="145,958 145,970 175,970 175,958" fill="none" stroke="black" stroke-width="2.2"/>
<line x1="160" y1="956" x2="160" y2="967" stroke="black" stroke-width="2.2"/>
<line x1="160" y1="956" x2="160" y2="923" stroke="black" stroke-width="2.2"/>
<polyline points="160,887 175,905 160,923 145,905 160,887" fill="white" stroke="black" stroke-width="2.2"/>
<line x1="145" y1="905" x2="175" y2="905" stroke="black" stroke-width="1.6" stroke-dasharray="8,5"/>
<line x1="160" y1="887" x2="160" y2="838" stroke="black" stroke-width="2.2"/>
<circle cx="160" cy="810" r="28" fill="white" stroke="black" stroke-width="2.2"/>
<polygon points="160,784 151,799 169,799" fill="black" stroke="black" stroke-width="1"/>
<circle cx="80" cy="810" r="24" fill="white" stroke="black" stroke-width="2.2"/>
<text x="80" y="818" font-family="Arial" font-size="22" text-anchor="middle">M</text>
<line x1="104" y1="807" x2="132" y2="807" stroke="black" stroke-width="1.8"/>
<line x1="104" y1="813" x2="132" y2="813" stroke="black" stroke-width="1.8"/>
<line x1="160" y1="782" x2="160" y2="700" stroke="black" stroke-width="2.2"/>
<circle cx="160" cy="700" r="4" fill="black" stroke="black" stroke-width="1"/>
<line x1="160" y1="700" x2="400" y2="700" stroke="black" stroke-width="2.2"/>
<circle cx="260" cy="700" r="4" fill="black" stroke="black" stroke-width="1"/>
<line x1="260" y1="700" x2="260" y2="738" stroke="black" stroke-width="2.2"/>
<rect x="238.0" y="738.0" width="44" height="44" rx="0" fill="white" stroke="black" stroke-width="2.2"/>
<line x1="269" y1="746" x2="269" y2="774" stroke="black" stroke-width="2"/>
<polygon points="269,774 274.0,764.0 264.0,764.0" fill="black" stroke="black" stroke-width="1"/>
<polyline points="282.0,760 285.6666666666667,768 289.3333333333333,752 293.0,768 296.6666666666667,752 300.3333333333333,768 304.0,760" fill="none" stroke="black" stroke-width="1.8"/>
<line x1="280.0" y1="774" x2="308.0" y2="746" stroke="black" stroke-width="1.6"/>
<polygon points="308.0,746 297.3933982822018,749.5355339059328 304.46446609406723,756.6066017177983" fill="black" stroke="black" stroke-width="1"/>
<polyline points="260,730.0 228,730.0 228,760 238.0,760" fill="none" stroke="black" stroke-width="1.6" stroke-dasharray="8,5"/>
<line x1="260" y1="782" x2="260" y2="800" stroke="black" stroke-width="2.2"/>
<polyline points="245,800 245,812 275,812 275,800" fill="none" stroke="black" stroke-width="2.2"/>
<line x1="260" y1="798" x2="260" y2="809" stroke="black" stroke-width="2.2"/>
<line x1="400" y1="700" x2="400" y2="740" stroke="black" stroke-width="2.2"/>
<rect x="380.0" y="740.0" width="40" height="40" rx="0" fill="white" stroke="black" stroke-width="2.2"/>
<line x1="400" y1="780.0" x2="400" y2="771.0" stroke="black" stroke-width="2.2"/>
<line x1="394" y1="771.0" x2="406" y2="771.0" stroke="black" stroke-width="2.2"/>
<line x1="400" y1="740.0" x2="400" y2="749.0" stroke="black" stroke-width="2.2"/>
<line x1="394" y1="749.0" x2="406" y2="749.0" stroke="black" stroke-width="2.2"/>
<rect x="340.0" y="740.0" width="40" height="40" rx="0" fill="white" stroke="black" stroke-width="2.2"/>
<line x1="360" y1="776.0" x2="360" y2="744.0" stroke="black" stroke-width="2"/>
<polygon points="360,744.0 355.0,754.0 365.0,754.0" fill="black" stroke="black" stroke-width="1"/>
<polyline points="420.0,760 423.3333333333333,768 426.6666666666667,752 430.0,768 433.3333333333333,752 436.6666666666667,768 440.0,760" fill="none" stroke="black" stroke-width="1.8"/>
<rect x="322.0" y="745.0" width="18" height="30" rx="0" fill="white" stroke="black" stroke-width="2.2"/>
<line x1="322.0" y1="775.0" x2="340.0" y2="745.0" stroke="black" stroke-width="1.8"/>
<line x1="400" y1="780" x2="400" y2="800" stroke="black" stroke-width="2.2"/>
<polyline points="385,800 385,812 415,812 415,800" fill="none" stroke="black" stroke-width="2.2"/>
<line x1="400" y1="798" x2="400" y2="809" stroke="black" stroke-width="2.2"/>
<line x1="160" y1="700" x2="160" y2="640" stroke="black" stroke-width="2.2"/>
<polyline points="150,620 160,634 170,620" fill="none" stroke="black" stroke-width="2.2"/>
<circle cx="160" cy="626" r="6" fill="white" stroke="black" stroke-width="2.2"/>
<line x1="160" y1="620" x2="160" y2="560" stroke="black" stroke-width="2.2"/>
<line x1="160" y1="560" x2="880" y2="560" stroke="black" stroke-width="2.2"/>
<circle cx="260" cy="560" r="4" fill="black" stroke="black" stroke-width="1"/>
<circle cx="340" cy="560" r="4" fill="black" stroke="black" stroke-width="1"/>
<circle cx="520" cy="560" r="4" fill="black" stroke="black" stroke-width="1"/>
<circle cx="740" cy="560" r="4" fill="black" stroke="black" stroke-width="1"/>
<line x1="260" y1="560" x2="260" y2="525" stroke="black" stroke-width="2.2"/>
<rect x="242" y="455" width="36" height="70" rx="18" fill="white" stroke="black" stroke-width="2.2"/>
<line x1="242" y1="490" x2="278" y2="490" stroke="black" stroke-width="2.2"/>
<line x1="340" y1="560" x2="340" y2="546" stroke="black" stroke-width="2.2"/>
<circle cx="340" cy="530" r="16" fill="white" stroke="black" stroke-width="2.2"/>
<text x="340" y="537" font-family="Arial" font-size="18" text-anchor="middle">P</text>
<line x1="520" y1="560" x2="520" y2="527" stroke="black" stroke-width="2.2"/>
<rect x="498.0" y="483.0" width="44" height="44" rx="0" fill="white" stroke="black" stroke-width="2.2"/>
<line x1="520" y1="521" x2="520" y2="489" stroke="black" stroke-width="2"/>
<polygon points="520,489 515.0,499.0 525.0,499.0" fill="black" stroke="black" stroke-width="1"/>
<polyline points="542.0,505 545.6666666666666,513 549.3333333333334,497 553.0,513 556.6666666666666,497 560.3333333333334,513 564.0,505" fill="none" stroke="black" stroke-width="1.8"/>
<line x1="540.0" y1="519" x2="568.0" y2="491" stroke="black" stroke-width="1.6"/>
<polygon points="568.0,491 557.3933982822017,494.53553390593277 564.4644660940672,501.6066017177982" fill="black" stroke="black" stroke-width="1"/>
<polyline points="520,471.0 488,471.0 488,505 498.0,505" fill="none" stroke="black" stroke-width="1.6" stroke-dasharray="8,5"/>
<polyline points="520,483 520,442 508,442 508,425" fill="none" stroke="black" stroke-width="2.2"/>
<rect x="445.0" y="375.0" width="50" height="50" rx="0" fill="white" stroke="black" stroke-width="2.2"/>
<rect x="495.0" y="375.0" width="50" height="50" rx="0" fill="white" stroke="black" stroke-width="2.2"/>
<rect x="545.0" y="375.0" width="50" height="50" rx="0" fill="white" stroke="black" stroke-width="2.2"/>
<line x1="508" y1="425.0" x2="508" y2="416.0" stroke="black" stroke-width="2.2"/>
<line x1="502" y1="416.0" x2="514" y2="416.0" stroke="black" stroke-width="2.2"/>
<line x1="532" y1="375.0" x2="532" y2="425.0" stroke="black" stroke-width="2.2"/>
<polyline points="508,375.0 508,400 532,400" fill="none" stroke="black" stroke-width="2.2"/>
<circle cx="532" cy="400" r="4" fill="black" stroke="black" stroke-width="1"/>
<line x1="458" y1="422.0" x2="458" y2="378.0" stroke="black" stroke-width="2"/>
<polygon points="458,378.0 453.0,388.0 463.0,388.0" fill="black" stroke="black" stroke-width="1"/>
<line x1="482" y1="378.0" x2="482" y2="422.0" stroke="black" stroke-width="2"/>
<polygon points="482,422.0 487.0,412.0 477.0,412.0" fill="black" stroke="black" stroke-width="1"/>
<line x1="558" y1="422.0" x2="582" y2="378.0" stroke="black" stroke-width="2"/>
<polygon points="582,378.0 572.8220008286223,384.384695075741 581.6009565577663,389.1732163825467" fill="black" stroke="black" stroke-width="1"/>
<line x1="558" y1="378.0" x2="582" y2="422.0" stroke="black" stroke-width="2"/>
<polygon points="582,422.0 581.6009565577663,410.8267836174533 572.8220008286223,415.615304924259" fill="black" stroke="black" stroke-width="1"/>
<polyline points="429.0,400 431.6666666666667,408 434.3333333333333,392 437.0,408 439.6666666666667,392 442.3333333333333,408 445.0,400" fill="none" stroke="black" stroke-width="1.8"/>
<rect x="411.0" y="385.0" width="18" height="30" rx="0" fill="white" stroke="black" stroke-width="2.2"/>
<line x1="411.0" y1="415.0" x2="429.0" y2="385.0" stroke="black" stroke-width="1.8"/>
<polyline points="595.0,400 597.6666666666666,408 600.3333333333334,392 603.0,408 605.6666666666666,392 608.3333333333334,408 611.0,400" fill="none" stroke="black" stroke-width="1.8"/>
<rect x="611.0" y="385.0" width="18" height="30" rx="0" fill="white" stroke="black" stroke-width="2.2"/>
<line x1="611.0" y1="415.0" x2="629.0" y2="385.0" stroke="black" stroke-width="1.8"/>
<line x1="532" y1="425" x2="532" y2="452" stroke="black" stroke-width="2.2"/>
<polyline points="517,452 517,464 547,464 547,452" fill="none" stroke="black" stroke-width="2.2"/>
<line x1="532" y1="450" x2="532" y2="461" stroke="black" stroke-width="2.2"/>
<polyline points="508,375 508,345 460,345 460,306" fill="none" stroke="black" stroke-width="2.2"/>
<polyline points="460,282 460,214" fill="none" stroke="black" stroke-width="2.2"/>
<polyline points="450,200 460,214 470,200" fill="none" stroke="black" stroke-width="2.2"/>
<circle cx="460" cy="206" r="6" fill="white" stroke="black" stroke-width="2.2"/>
<line x1="460" y1="200" x2="460" y2="170" stroke="black" stroke-width="2.2"/>
<polyline points="532,375 532,345 600,345 600,306" fill="none" stroke="black" stroke-width="2.2"/>
<polyline points="600,282 600,214" fill="none" stroke="black" stroke-width="2.2"/>
<polyline points="590,200 600,214 610,200" fill="none" stroke="black" stroke-width="2.2"/>
<circle cx="600" cy="206" r="6" fill="white" stroke="black" stroke-width="2.2"/>
<line x1="600" y1="200" x2="600" y2="170" stroke="black" stroke-width="2.2"/>
<circle cx="600" cy="250" r="4" fill="black" stroke="black" stroke-width="1"/>
<polyline points="600,250 476,250 476,208 466,208" fill="none" stroke="black" stroke-width="1.6" stroke-dasharray="8,5"/>
<circle cx="460" cy="236" r="4" fill="black" stroke="black" stroke-width="1"/>
<polyline points="460,236 584,236 584,208 594,208" fill="none" stroke="black" stroke-width="1.6" stroke-dasharray="8,5"/>
<rect x="440" y="282" width="180" height="24" rx="0" fill="white" stroke="black" stroke-width="2.2"/>
<line x1="460" y1="282" x2="460" y2="306" stroke="black" stroke-width="2.2"/>
<line x1="600" y1="282" x2="600" y2="306" stroke="black" stroke-width="2.2"/>
<line x1="440" y1="294" x2="402" y2="294" stroke="black" stroke-width="2.2"/>
<path d="M 372 286 Q 384 294 396 286 M 372 302 Q 384 294 396 302" fill="none" stroke="black" stroke-width="2"/>
<line x1="370" y1="308" x2="398" y2="280" stroke="black" stroke-width="1.6"/>
<polygon points="398,280 387.3933982822018,283.53553390593277 394.46446609406723,290.6066017177982" fill="black" stroke="black" stroke-width="1"/>
<line x1="366" y1="294" x2="350" y2="294" stroke="black" stroke-width="2.2"/>
<line x1="350" y1="294" x2="350" y2="318" stroke="black" stroke-width="2.2"/>
<polyline points="335,318 335,330 365,330 365,318" fill="none" stroke="black" stroke-width="2.2"/>
<line x1="350" y1="316" x2="350" y2="327" stroke="black" stroke-width="2.2"/>
<circle cx="460" cy="325" r="4" fill="black" stroke="black" stroke-width="1"/>
<line x1="460" y1="325" x2="425" y2="325" stroke="black" stroke-width="2.2"/>
<circle cx="409" cy="325" r="16" fill="white" stroke="black" stroke-width="2.2"/>
<text x="409" y="332" font-family="Arial" font-size="18" text-anchor="middle">P</text>
<rect x="440" y="120" width="180" height="50" rx="0" fill="white" stroke="black" stroke-width="2.2"/>
<line x1="540" y1="120" x2="540" y2="170" stroke="black" stroke-width="5"/>
<rect x="540" y="139.0" width="130" height="12" rx="0" fill="white" stroke="black" stroke-width="2"/>
<line x1="540" y1="120" x2="540" y2="170" stroke="black" stroke-width="5"/>
<rect x="425" y="102" width="272" height="162" rx="0" fill="none" stroke="black" stroke-width="1.4" stroke-dasharray="8,5"/>
<line x1="740" y1="560" x2="740" y2="527" stroke="black" stroke-width="2.2"/>
<rect x="718.0" y="483.0" width="44" height="44" rx="0" fill="white" stroke="black" stroke-width="2.2"/>
<line x1="740" y1="521" x2="740" y2="489" stroke="black" stroke-width="2"/>
<polygon points="740,489 735.0,499.0 745.0,499.0" fill="black" stroke="black" stroke-width="1"/>
<polyline points="762.0,505 765.6666666666666,513 769.3333333333334,497 773.0,513 776.6666666666666,497 780.3333333333334,513 784.0,505" fill="none" stroke="black" stroke-width="1.8"/>
<line x1="760.0" y1="519" x2="788.0" y2="491" stroke="black" stroke-width="1.6"/>
<polygon points="788.0,491 777.3933982822017,494.53553390593277 784.4644660940672,501.6066017177982" fill="black" stroke="black" stroke-width="1"/>
<polyline points="740,471.0 708,471.0 708,505 718.0,505" fill="none" stroke="black" stroke-width="1.6" stroke-dasharray="8,5"/>
<line x1="740" y1="483" x2="740" y2="320" stroke="black" stroke-width="2.2"/>
<rect x="720.0" y="280.0" width="40" height="40" rx="0" fill="white" stroke="black" stroke-width="2.2"/>
<line x1="740" y1="320.0" x2="740" y2="311.0" stroke="black" stroke-width="2.2"/>
<line x1="734" y1="311.0" x2="746" y2="311.0" stroke="black" stroke-width="2.2"/>
<line x1="740" y1="280.0" x2="740" y2="289.0" stroke="black" stroke-width="2.2"/>
<line x1="734" y1="289.0" x2="746" y2="289.0" stroke="black" stroke-width="2.2"/>
<rect x="680.0" y="280.0" width="40" height="40" rx="0" fill="white" stroke="black" stroke-width="2.2"/>
<line x1="700" y1="316.0" x2="700" y2="284.0" stroke="black" stroke-width="2"/>
<polygon points="700,284.0 695.0,294.0 705.0,294.0" fill="black" stroke="black" stroke-width="1"/>
<polyline points="760.0,300 763.3333333333334,308 766.6666666666666,292 770.0,308 773.3333333333334,292 776.6666666666666,308 780.0,300" fill="none" stroke="black" stroke-width="1.8"/>
<rect x="662.0" y="285.0" width="18" height="30" rx="0" fill="white" stroke="black" stroke-width="2.2"/>
<line x1="662.0" y1="315.0" x2="680.0" y2="285.0" stroke="black" stroke-width="1.8"/>
<polyline points="740,280 740,210 930,210" fill="none" stroke="black" stroke-width="2.2"/>
<circle cx="930" cy="210" r="4" fill="black" stroke="black" stroke-width="1"/>
<line x1="880" y1="560" x2="880" y2="527" stroke="black" stroke-width="2.2"/>
<rect x="858.0" y="483.0" width="44" height="44" rx="0" fill="white" stroke="black" stroke-width="2.2"/>
<line x1="880" y1="521" x2="880" y2="489" stroke="black" stroke-width="2"/>
<polygon points="880,489 875.0,499.0 885.0,499.0" fill="black" stroke="black" stroke-width="1"/>
<polyline points="902.0,505 905.6666666666666,513 909.3333333333334,497 913.0,513 916.6666666666666,497 920.3333333333334,513 924.0,505" fill="none" stroke="black" stroke-width="1.8"/>
<line x1="900.0" y1="519" x2="928.0" y2="491" stroke="black" stroke-width="1.6"/>
<polygon points="928.0,491 917.3933982822017,494.53553390593277 924.4644660940672,501.6066017177982" fill="black" stroke="black" stroke-width="1"/>
<polyline points="880,471.0 848,471.0 848,505 858.0,505" fill="none" stroke="black" stroke-width="1.6" stroke-dasharray="8,5"/>
<polyline points="880,483 880,442 868,442 868,425" fill="none" stroke="black" stroke-width="2.2"/>
<rect x="805.0" y="375.0" width="50" height="50" rx="0" fill="white" stroke="black" stroke-width="2.2"/>
<rect x="855.0" y="375.0" width="50" height="50" rx="0" fill="white" stroke="black" stroke-width="2.2"/>
<rect x="905.0" y="375.0" width="50" height="50" rx="0" fill="white" stroke="black" stroke-width="2.2"/>
<line x1="868" y1="425.0" x2="868" y2="416.0" stroke="black" stroke-width="2.2"/>
<line x1="862" y1="416.0" x2="874" y2="416.0" stroke="black" stroke-width="2.2"/>
<line x1="892" y1="375.0" x2="892" y2="425.0" stroke="black" stroke-width="2.2"/>
<polyline points="868,375.0 868,400 892,400" fill="none" stroke="black" stroke-width="2.2"/>
<circle cx="892" cy="400" r="4" fill="black" stroke="black" stroke-width="1"/>
<line x1="818" y1="422.0" x2="818" y2="378.0" stroke="black" stroke-width="2"/>
<polygon points="818,378.0 813.0,388.0 823.0,388.0" fill="black" stroke="black" stroke-width="1"/>
<line x1="842" y1="378.0" x2="842" y2="422.0" stroke="black" stroke-width="2"/>
<polygon points="842,422.0 847.0,412.0 837.0,412.0" fill="black" stroke="black" stroke-width="1"/>
<line x1="918" y1="422.0" x2="942" y2="378.0" stroke="black" stroke-width="2"/>
<polygon points="942,378.0 932.8220008286223,384.384695075741 941.6009565577663,389.1732163825467" fill="black" stroke="black" stroke-width="1"/>
<line x1="918" y1="378.0" x2="942" y2="422.0" stroke="black" stroke-width="2"/>
<polygon points="942,422.0 941.6009565577663,410.8267836174533 932.8220008286223,415.615304924259" fill="black" stroke="black" stroke-width="1"/>
<polyline points="789.0,400 791.6666666666666,408 794.3333333333334,392 797.0,408 799.6666666666666,392 802.3333333333334,408 805.0,400" fill="none" stroke="black" stroke-width="1.8"/>
<rect x="771.0" y="385.0" width="18" height="30" rx="0" fill="white" stroke="black" stroke-width="2.2"/>
<line x1="771.0" y1="415.0" x2="789.0" y2="385.0" stroke="black" stroke-width="1.8"/>
<polyline points="955.0,400 957.6666666666666,408 960.3333333333334,392 963.0,408 965.6666666666666,392 968.3333333333334,408 971.0,400" fill="none" stroke="black" stroke-width="1.8"/>
<rect x="971.0" y="385.0" width="18" height="30" rx="0" fill="white" stroke="black" stroke-width="2.2"/>
<line x1="971.0" y1="415.0" x2="989.0" y2="385.0" stroke="black" stroke-width="1.8"/>
<line x1="892" y1="425" x2="892" y2="452" stroke="black" stroke-width="2.2"/>
<polyline points="877,452 877,464 907,464 907,452" fill="none" stroke="black" stroke-width="2.2"/>
<line x1="892" y1="450" x2="892" y2="461" stroke="black" stroke-width="2.2"/>
<polyline points="868,375 868,345 930,345 930,290" fill="none" stroke="black" stroke-width="2.2"/>
<rect x="910.0" y="250.0" width="40" height="40" rx="0" fill="white" stroke="black" stroke-width="2.2"/>
<line x1="930" y1="290.0" x2="930" y2="281.0" stroke="black" stroke-width="2.2"/>
<line x1="924" y1="281.0" x2="936" y2="281.0" stroke="black" stroke-width="2.2"/>
<line x1="930" y1="250.0" x2="930" y2="259.0" stroke="black" stroke-width="2.2"/>
<line x1="924" y1="259.0" x2="936" y2="259.0" stroke="black" stroke-width="2.2"/>
<rect x="870.0" y="250.0" width="40" height="40" rx="0" fill="white" stroke="black" stroke-width="2.2"/>
<line x1="890" y1="286.0" x2="890" y2="254.0" stroke="black" stroke-width="2"/>
<polygon points="890,254.0 885.0,264.0 895.0,264.0" fill="black" stroke="black" stroke-width="1"/>
<polyline points="950.0,270 953.3333333333334,278 956.6666666666666,262 960.0,278 963.3333333333334,262 966.6666666666666,278 970.0,270" fill="none" stroke="black" stroke-width="1.8"/>
<rect x="852.0" y="255.0" width="18" height="30" rx="0" fill="white" stroke="black" stroke-width="2.2"/>
<line x1="852.0" y1="285.0" x2="870.0" y2="255.0" stroke="black" stroke-width="1.8"/>
<line x1="930" y1="250" x2="930" y2="140" stroke="black" stroke-width="2.2"/>
<circle cx="930" cy="175" r="4" fill="black" stroke="black" stroke-width="1"/>
<line x1="930" y1="175" x2="959" y2="175" stroke="black" stroke-width="2.2"/>
<circle cx="975" cy="175" r="16" fill="white" stroke="black" stroke-width="2.2"/>
<text x="975" y="182" font-family="Arial" font-size="18" text-anchor="middle">P</text>
<polyline points="892,375 892,362 1130,362 1130,290" fill="none" stroke="black" stroke-width="2.2"/>
<rect x="1110.0" y="250.0" width="40" height="40" rx="0" fill="white" stroke="black" stroke-width="2.2"/>
<line x1="1130" y1="290.0" x2="1130" y2="281.0" stroke="black" stroke-width="2.2"/>
<line x1="1124" y1="281.0" x2="1136" y2="281.0" stroke="black" stroke-width="2.2"/>
<line x1="1130" y1="250.0" x2="1130" y2="259.0" stroke="black" stroke-width="2.2"/>
<line x1="1124" y1="259.0" x2="1136" y2="259.0" stroke="black" stroke-width="2.2"/>
<rect x="1070.0" y="250.0" width="40" height="40" rx="0" fill="white" stroke="black" stroke-width="2.2"/>
<line x1="1090" y1="286.0" x2="1090" y2="254.0" stroke="black" stroke-width="2"/>
<polygon points="1090,254.0 1085.0,264.0 1095.0,264.0" fill="black" stroke="black" stroke-width="1"/>
<polyline points="1150.0,270 1153.3333333333333,278 1156.6666666666667,262 1160.0,278 1163.3333333333333,262 1166.6666666666667,278 1170.0,270" fill="none" stroke="black" stroke-width="1.8"/>
<rect x="1052.0" y="255.0" width="18" height="30" rx="0" fill="white" stroke="black" stroke-width="2.2"/>
<line x1="1052.0" y1="285.0" x2="1070.0" y2="255.0" stroke="black" stroke-width="1.8"/>
<line x1="1130" y1="250" x2="1130" y2="140" stroke="black" stroke-width="2.2"/>
<circle cx="1130" cy="170" r="4" fill="black" stroke="black" stroke-width="1"/>
<line x1="1130" y1="170" x2="1170" y2="170" stroke="black" stroke-width="2.2"/>
<circle cx="1186" cy="170" r="16" fill="white" stroke="black" stroke-width="2.2"/>
<text x="1186" y="177" font-family="Arial" font-size="18" text-anchor="middle">P</text>
<circle cx="1130" cy="205" r="4" fill="black" stroke="black" stroke-width="1"/>
<polyline points="1130,205 1250,205 1250,225" fill="none" stroke="black" stroke-width="2.2"/>
<rect x="1230.0" y="225.0" width="40" height="40" rx="0" fill="white" stroke="black" stroke-width="2.2"/>
<line x1="1250" y1="265.0" x2="1250" y2="256.0" stroke="black" stroke-width="2.2"/>
<line x1="1244" y1="256.0" x2="1256" y2="256.0" stroke="black" stroke-width="2.2"/>
<line x1="1250" y1="225.0" x2="1250" y2="234.0" stroke="black" stroke-width="2.2"/>
<line x1="1244" y1="234.0" x2="1256" y2="234.0" stroke="black" stroke-width="2.2"/>
<rect x="1190.0" y="225.0" width="40" height="40" rx="0" fill="white" stroke="black" stroke-width="2.2"/>
<line x1="1210" y1="261.0" x2="1210" y2="229.0" stroke="black" stroke-width="2"/>
<polygon points="1210,229.0 1205.0,239.0 1215.0,239.0" fill="black" stroke="black" stroke-width="1"/>
<polyline points="1270.0,245 1273.3333333333333,253 1276.6666666666667,237 1280.0,253 1283.3333333333333,237 1286.6666666666667,253 1290.0,245" fill="none" stroke="black" stroke-width="1.8"/>
<rect x="1172.0" y="230.0" width="18" height="30" rx="0" fill="white" stroke="black" stroke-width="2.2"/>
<line x1="1172.0" y1="260.0" x2="1190.0" y2="230.0" stroke="black" stroke-width="1.8"/>
<line x1="1250" y1="265" x2="1250" y2="278" stroke="black" stroke-width="2.2"/>
<path d="M 1242 278 Q 1250 290 1242 302 M 1258 278 Q 1250 290 1258 302" fill="none" stroke="black" stroke-width="2"/>
<line x1="1250" y1="302" x2="1250" y2="318" stroke="black" stroke-width="2.2"/>
<polyline points="1235,318 1235,330 1265,330 1265,318" fill="none" stroke="black" stroke-width="2.2"/>
<line x1="1250" y1="316" x2="1250" y2="327" stroke="black" stroke-width="2.2"/>
<rect x="900" y="90" width="260" height="50" rx="0" fill="white" stroke="black" stroke-width="2.2"/>
<line x1="1000" y1="90" x2="1000" y2="140" stroke="black" stroke-width="5"/>
<rect x="840" y="109.0" width="160" height="12" rx="0" fill="white" stroke="black" stroke-width="2"/>
<line x1="1000" y1="90" x2="1000" y2="140" stroke="black" stroke-width="5"/>
<line x1="175" y1="964" x2="215" y2="985" stroke="black" stroke-width="1.4"/>
<circle cx="175" cy="964" r="4" fill="black" stroke="black" stroke-width="1"/>
<text x="219" y="993" font-family="Arial" font-size="24" text-anchor="start">1</text>
<line x1="175" y1="905" x2="225" y2="922" stroke="black" stroke-width="1.4"/>
<circle cx="175" cy="905" r="4" fill="black" stroke="black" stroke-width="1"/>
<text x="229" y="930" font-family="Arial" font-size="24" text-anchor="start">2</text>
<line x1="184" y1="797" x2="222" y2="845" stroke="black" stroke-width="1.4"/>
<circle cx="184" cy="797" r="4" fill="black" stroke="black" stroke-width="1"/>
<text x="226" y="853" font-family="Arial" font-size="24" text-anchor="start">3</text>
<line x1="70" y1="788" x2="45" y2="748" stroke="black" stroke-width="1.4"/>
<circle cx="70" cy="788" r="4" fill="black" stroke="black" stroke-width="1"/>
<text x="41" y="744" font-family="Arial" font-size="24" text-anchor="end">4</text>
<line x1="282" y1="770" x2="305" y2="835" stroke="black" stroke-width="1.4"/>
<circle cx="282" cy="770" r="4" fill="black" stroke="black" stroke-width="1"/>
<text x="309" y="843" font-family="Arial" font-size="24" text-anchor="start">5</text>
<line x1="420" y1="770" x2="470" y2="810" stroke="black" stroke-width="1.4"/>
<circle cx="420" cy="770" r="4" fill="black" stroke="black" stroke-width="1"/>
<text x="474" y="818" font-family="Arial" font-size="24" text-anchor="start">6</text>
<line x1="170" y1="630" x2="215" y2="645" stroke="black" stroke-width="1.4"/>
<circle cx="170" cy="630" r="4" fill="black" stroke="black" stroke-width="1"/>
<text x="219" y="653" font-family="Arial" font-size="24" text-anchor="start">7</text>
<line x1="278" y1="470" x2="318" y2="445" stroke="black" stroke-width="1.4"/>
<circle cx="278" cy="470" r="4" fill="black" stroke="black" stroke-width="1"/>
<text x="322" y="441" font-family="Arial" font-size="24" text-anchor="start">8</text>
<line x1="354" y1="520" x2="392" y2="500" stroke="black" stroke-width="1.4"/>
<circle cx="354" cy="520" r="4" fill="black" stroke="black" stroke-width="1"/>
<text x="396" y="496" font-family="Arial" font-size="24" text-anchor="start">9</text>
<line x1="542" y1="508" x2="590" y2="530" stroke="black" stroke-width="1.4"/>
<circle cx="542" cy="508" r="4" fill="black" stroke="black" stroke-width="1"/>
<text x="594" y="538" font-family="Arial" font-size="24" text-anchor="start">10</text>
<line x1="570" y1="425" x2="610" y2="462" stroke="black" stroke-width="1.4"/>
<circle cx="570" cy="425" r="4" fill="black" stroke="black" stroke-width="1"/>
<text x="614" y="470" font-family="Arial" font-size="24" text-anchor="start">11</text>
<line x1="620" y1="130" x2="700" y2="70" stroke="black" stroke-width="1.4"/>
<circle cx="620" cy="130" r="4" fill="black" stroke="black" stroke-width="1"/>
<text x="704" y="66" font-family="Arial" font-size="24" text-anchor="start">12</text>
<line x1="452" y1="212" x2="395" y2="190" stroke="black" stroke-width="1.4"/>
<circle cx="452" cy="212" r="4" fill="black" stroke="black" stroke-width="1"/>
<text x="391" y="186" font-family="Arial" font-size="24" text-anchor="end">13</text>
<line x1="398" y1="336" x2="365" y2="372" stroke="black" stroke-width="1.4"/>
<circle cx="398" cy="336" r="4" fill="black" stroke="black" stroke-width="1"/>
<text x="361" y="380" font-family="Arial" font-size="24" text-anchor="end">14</text>
<line x1="620" y1="290" x2="660" y2="262" stroke="black" stroke-width="1.4"/>
<circle cx="620" cy="290" r="4" fill="black" stroke="black" stroke-width="1"/>
<text x="664" y="258" font-family="Arial" font-size="24" text-anchor="start">15</text>
<line x1="902" y1="510" x2="960" y2="530" stroke="black" stroke-width="1.4"/>
<circle cx="902" cy="510" r="4" fill="black" stroke="black" stroke-width="1"/>
<text x="964" y="538" font-family="Arial" font-size="24" text-anchor="start">16</text>
<line x1="718" y1="515" x2="685" y2="545" stroke="black" stroke-width="1.4"/>
<circle cx="718" cy="515" r="4" fill="black" stroke="black" stroke-width="1"/>
<text x="681" y="553" font-family="Arial" font-size="24" text-anchor="end">17</text>
<line x1="984" y1="392" x2="1040" y2="420" stroke="black" stroke-width="1.4"/>
<circle cx="984" cy="392" r="4" fill="black" stroke="black" stroke-width="1"/>
<text x="1044" y="428" font-family="Arial" font-size="24" text-anchor="start">18</text>
<line x1="1150" y1="285" x2="1185" y2="318" stroke="black" stroke-width="1.4"/>
<circle cx="1150" cy="285" r="4" fill="black" stroke="black" stroke-width="1"/>
<text x="1189" y="326" font-family="Arial" font-size="24" text-anchor="start">19</text>
<line x1="950" y1="285" x2="990" y2="318" stroke="black" stroke-width="1.4"/>
<circle cx="950" cy="285" r="4" fill="black" stroke="black" stroke-width="1"/>
<text x="994" y="326" font-family="Arial" font-size="24" text-anchor="start">20</text>
<line x1="1270" y1="232" x2="1310" y2="212" stroke="black" stroke-width="1.4"/>
<circle cx="1270" cy="232" r="4" fill="black" stroke="black" stroke-width="1"/>
<text x="1314" y="208" font-family="Arial" font-size="24" text-anchor="start">21</text>
<line x1="1258" y1="292" x2="1298" y2="305" stroke="black" stroke-width="1.4"/>
<circle cx="1258" cy="292" r="4" fill="black" stroke="black" stroke-width="1"/>
<text x="1302" y="313" font-family="Arial" font-size="24" text-anchor="start">22</text>
<line x1="760" y1="312" x2="800" y2="338" stroke="black" stroke-width="1.4"/>
<circle cx="760" cy="312" r="4" fill="black" stroke="black" stroke-width="1"/>
<text x="804" y="346" font-family="Arial" font-size="24" text-anchor="start">23</text>
<line x1="1198" y1="160" x2="1238" y2="138" stroke="black" stroke-width="1.4"/>
<circle cx="1198" cy="160" r="4" fill="black" stroke="black" stroke-width="1"/>
<text x="1242" y="134" font-family="Arial" font-size="24" text-anchor="start">24</text>
<line x1="988" y1="186" x2="1035" y2="205" stroke="black" stroke-width="1.4"/>
<circle cx="988" cy="186" r="4" fill="black" stroke="black" stroke-width="1"/>
<text x="1039" y="213" font-family="Arial" font-size="24" text-anchor="start">25</text>
<line x1="1160" y1="100" x2="1215" y2="70" stroke="black" stroke-width="1.4"/>
<circle cx="1160" cy="100" r="4" fill="black" stroke="black" stroke-width="1"/>
<text x="1219" y="66" font-family="Arial" font-size="24" text-anchor="start">26</text><text x="670" y="1025" font-family="SimSun, Songti SC, serif" font-size="40" text-anchor="middle">图1</text><g font-family="Microsoft YaHei, SimHei, sans-serif" font-size="21"><text x="1380" y="60" font-size="26" font-weight="bold">附图标记说明</text><text x="1380" y="100">1</text><text x="1425" y="100">油箱</text><text x="1380" y="134">2</text><text x="1425" y="134">吸油过滤器</text><text x="1380" y="168">3</text><text x="1425" y="168">定量液压泵</text><text x="1380" y="202">4</text><text x="1425" y="202">电动机</text><text x="1380" y="236">5</text><text x="1425" y="236">溢流阀</text><text x="1380" y="270">6</text><text x="1425" y="270">电磁卸荷阀</text><text x="1380" y="304">7</text><text x="1425" y="304">单向阀</text><text x="1380" y="338">8</text><text x="1425" y="338">蓄能器</text><text x="1380" y="372">9</text><text x="1425" y="372">压力传感器 S0（蓄能器）</text><text x="1380" y="406">10</text><text x="1425" y="406">卡盘减压阀</text><text x="1380" y="440">11</text><text x="1425" y="440">卡盘三位四通电磁换向阀（Y型中位）</text><text x="1380" y="474">12</text><text x="1425" y="474">卡盘回转液压缸</text><text x="1380" y="508">13</text><text x="1425" y="508">内置液控单向阀（卡盘锁紧）</text><text x="1380" y="542">14</text><text x="1425" y="542">压力传感器 S1（卡盘）</text><text x="1380" y="576">15</text><text x="1425" y="576">回转接头（试验台用针阀模拟泄漏）</text><text x="1380" y="610">16</text><text x="1425" y="610">尾座减压阀 R1（无杆腔设定）</text><text x="1380" y="644">17</text><text x="1425" y="644">预压减压阀 R2（有杆腔预压）</text><text x="1380" y="678">18</text><text x="1425" y="678">尾座三位四通电磁换向阀（Y型中位）</text><text x="1380" y="712">19</text><text x="1425" y="712">第一锁闭座阀 V1（无杆腔）</text><text x="1380" y="746">20</text><text x="1425" y="746">第二锁闭座阀 V2（有杆腔）</text><text x="1380" y="780">21</text><text x="1425" y="780">微泄座阀 V3</text><text x="1380" y="814">22</text><text x="1425" y="814">阻尼孔</text><text x="1380" y="848">23</text><text x="1425" y="848">预压座阀 V4</text><text x="1380" y="882">24</text><text x="1425" y="882">压力传感器 S2（无杆腔）</text><text x="1380" y="916">25</text><text x="1425" y="916">压力传感器 S3（有杆腔）</text><text x="1380" y="950">26</text><text x="1425" y="950">尾座液压缸</text><text x="1380" y="1000" font-size="17" fill="#555">注：虚线为先导控制油路；控制器27与各传感器、电磁铁的</text><text x="1380" y="1024" font-size="17" fill="#555">信号连接见图4。提交专利时使用“纯编号版”。</text></g></svg>