<?xml version="1.0" encoding="utf-8" standalone="no"?>
<!DOCTYPE svg PUBLIC "-//W3C//DTD SVG 1.1//EN"
  "http://www.w3.org/Graphics/SVG/1.1/DTD/svg11.dtd">
<svg xmlns:xlink="http://www.w3.org/1999/xlink" width="436.535433pt" height="236.530003pt" viewBox="0 0 436.535433 236.530003" xmlns="http://www.w3.org/2000/svg" version="1.1">
 <metadata>
  <rdf:RDF xmlns:dc="http://purl.org/dc/elements/1.1/" xmlns:cc="http://creativecommons.org/ns#" xmlns:rdf="http://www.w3.org/1999/02/22-rdf-syntax-ns#">
   <cc:Work>
    <dc:type rdf:resource="http://purl.org/dc/dcmitype/StillImage"/>
    <dc:date>2026-10-01T17:50:37.899352</dc:date>
    <dc:format>image/svg+xml</dc:format>
    <dc:creator>
     <cc:Agent>
      <dc:title>Matplotlib v3.11.2, https://matplotlib.org/</dc:title>
     </cc:Agent>
    </dc:creator>
   </cc:Work>
  </rdf:RDF>
 </metadata>
 <defs>
  <style type="text/css">*{stroke-linejoin: round; stroke-linecap: butt}</style>
 </defs>
 <g id="figure_1">
  <g id="patch_1">
   <path d="M 0 236.530003 
L 436.535433 236.530003 
L 436.535433 0 
L 0 0 
z
" style="fill: #ffffff"/>
  </g>
  <g id="axes_1">
   <g id="patch_2">
    <path d="M 92.8265 228.026066 
L 369.84252 228.026066 
L 369.84252 201.892479 
L 92.8265 201.892479 
z
" clip-path="url(#pefad4f92df)" style="fill: #ffffff; stroke: #000000; stroke-width: 0.9; stroke-linejoin: miter"/>
   </g>
   <g id="patch_3">
    <path d="M 118.960087 201.892479 
L 181.680695 201.892479 
L 181.680695 157.465381 
L 118.960087 157.465381 
z
" clip-path="url(#pefad4f92df)" style="fill: #ffffff; stroke: #000000; stroke-width: 0.9; stroke-linejoin: miter"/>
   </g>
   <g id="patch_4">
    <path d="M 108.506652 157.465381 
L 192.13413 157.465381 
L 192.13413 89.518056 
L 108.506652 89.518056 
z
" clip-path="url(#pefad4f92df)" style="fill: url(#h666fdaefed); stroke: #000000; stroke-width: 0.9; stroke-linejoin: miter"/>
   </g>
   <g id="patch_5">
    <path d="M 113.73337 152.238664 
L 186.907412 152.238664 
L 186.907412 94.744773 
L 113.73337 94.744773 
z
" clip-path="url(#pefad4f92df)" style="fill: #ffffff; stroke: #000000; stroke-width: 0.9; stroke-linejoin: miter"/>
   </g>
   <g id="patch_6">
    <path d="M 142.480315 151.193321 
L 152.93375 151.193321 
L 152.93375 95.790117 
L 142.480315 95.790117 
z
" clip-path="url(#pefad4f92df)" style="fill: url(#h2052e03f31); stroke: #000000; stroke-width: 0.9; stroke-linejoin: miter"/>
   </g>
   <g id="patch_7">
    <path d="M 152.93375 129.76378 
L 348.93565 129.76378 
L 348.93565 117.219658 
L 152.93375 117.219658 
z
" clip-path="url(#pefad4f92df)" style="fill: #ffffff; stroke: #000000; stroke-width: 0.9; stroke-linejoin: miter"/>
   </g>
   <g id="patch_8">
    <path d="M 205.723595 147.011947 
L 213.040999 147.011947 
L 213.040999 132.89981 
L 205.723595 132.89981 
z
" clip-path="url(#pefad4f92df)" style="fill: url(#h666fdaefed); stroke: #000000; stroke-width: 0.9; stroke-linejoin: miter"/>
   </g>
   <g id="patch_9">
    <path d="M 205.723595 114.083627 
L 213.040999 114.083627 
L 213.040999 99.971491 
L 205.723595 99.971491 
z
" clip-path="url(#pefad4f92df)" style="fill: url(#h666fdaefed); stroke: #000000; stroke-width: 0.9; stroke-linejoin: miter"/>
   </g>
   <g id="patch_10">
    <path d="M 213.040999 201.892479 
L 307.121911 201.892479 
L 307.121911 71.224545 
L 213.040999 71.224545 
z
" clip-path="url(#pefad4f92df)" style="fill: #ffffff; stroke: #000000; stroke-width: 0.9; stroke-linejoin: miter"/>
   </g>
   <g id="patch_11">
    <path d="M 307.121911 175.758892 
L 338.482216 175.758892 
L 338.482216 71.224545 
L 307.121911 71.224545 
z
" clip-path="url(#pefad4f92df)" style="fill: #ffffff; stroke: #000000; stroke-width: 0.9; stroke-linejoin: miter"/>
   </g>
   <g id="patch_12">
    <path d="M 338.482216 133.945153 
L 351.549009 133.945153 
L 351.549009 113.038284 
L 338.482216 113.038284 
z
" clip-path="url(#pefad4f92df)" style="fill: #ffffff; stroke: #000000; stroke-width: 0.9; stroke-linejoin: miter"/>
   </g>
   <g id="patch_13">
    <path d="M 231.33451 71.224545 
L 257.468097 71.224545 
L 257.468097 58.157752 
L 231.33451 58.157752 
z
" clip-path="url(#pefad4f92df)" style="fill: #ffffff; stroke: #000000; stroke-width: 0.9; stroke-linejoin: miter"/>
   </g>
   <g id="patch_14">
    <path d="M 241.265273 58.157752 
L 247.537334 58.157752 
L 247.537334 47.704317 
L 241.265273 47.704317 
z
" clip-path="url(#pefad4f92df)" style="fill: #ffffff; stroke: #000000; stroke-width: 0.9; stroke-linejoin: miter"/>
   </g>
   <g id="patch_15">
    <path d="M 213.040999 131.854466 
L 307.121911 131.854466 
L 307.121911 115.128971 
L 213.040999 115.128971 
z
" clip-path="url(#pefad4f92df)" style="fill: #ffffff; stroke: #000000; stroke-width: 0.9; stroke-linejoin: miter"/>
   </g>
   <g id="line2d_1">
    <path d="M 193.179473 113.038284 
L 196.315504 102.584849 
" clip-path="url(#pefad4f92df)" style="fill: none; stroke: #000000; stroke-width: 1.1"/>
   </g>
   <g id="line2d_2">
    <path d="M 193.179473 133.945153 
L 196.315504 144.398588 
" clip-path="url(#pefad4f92df)" style="fill: none; stroke: #000000; stroke-width: 1.1"/>
   </g>
   <g id="line2d_3">
    <path d="M 196.315504 102.584849 
L 196.315504 102.584849 
" clip-path="url(#pefad4f92df)" style="fill: none; stroke: #000000; stroke-width: 1.1"/>
   </g>
   <g id="line2d_4">
    <path d="M 196.315504 113.038284 
L 199.451534 102.584849 
" clip-path="url(#pefad4f92df)" style="fill: none; stroke: #000000; stroke-width: 1.1"/>
   </g>
   <g id="line2d_5">
    <path d="M 196.315504 133.945153 
L 199.451534 144.398588 
" clip-path="url(#pefad4f92df)" style="fill: none; stroke: #000000; stroke-width: 1.1"/>
   </g>
   <g id="line2d_6">
    <path d="M 199.451534 102.584849 
L 199.451534 102.584849 
" clip-path="url(#pefad4f92df)" style="fill: none; stroke: #000000; stroke-width: 1.1"/>
   </g>
   <g id="line2d_7">
    <path d="M 199.451534 113.038284 
L 202.587564 102.584849 
" clip-path="url(#pefad4f92df)" style="fill: none; stroke: #000000; stroke-width: 1.1"/>
   </g>
   <g id="line2d_8">
    <path d="M 199.451534 133.945153 
L 202.587564 144.398588 
" clip-path="url(#pefad4f92df)" style="fill: none; stroke: #000000; stroke-width: 1.1"/>
   </g>
   <g id="line2d_9">
    <path d="M 202.587564 102.584849 
L 202.587564 102.584849 
" clip-path="url(#pefad4f92df)" style="fill: none; stroke: #000000; stroke-width: 1.1"/>
   </g>
   <g id="line2d_10">
    <path d="M 202.587564 113.038284 
L 205.723595 102.584849 
" clip-path="url(#pefad4f92df)" style="fill: none; stroke: #000000; stroke-width: 1.1"/>
   </g>
   <g id="line2d_11">
    <path d="M 202.587564 133.945153 
L 205.723595 144.398588 
" clip-path="url(#pefad4f92df)" style="fill: none; stroke: #000000; stroke-width: 1.1"/>
   </g>
   <g id="line2d_12">
    <path d="M 205.723595 102.584849 
L 205.723595 102.584849 
" clip-path="url(#pefad4f92df)" style="fill: none; stroke: #000000; stroke-width: 1.1"/>
   </g>
   <g id="patch_16">
    <path d="M 213.040999 129.76378 
L 307.121911 129.76378 
L 307.121911 117.219658 
L 213.040999 117.219658 
z
" clip-path="url(#pefad4f92df)" style="fill: #ffffff; stroke: #000000; stroke-width: 0.9; stroke-linejoin: miter"/>
   </g>
   <g id="line2d_13">
    <path d="M 184.294054 89.518056 
L 184.294054 34.637524 
L 66.692913 34.637524 
" clip-path="url(#pefad4f92df)" style="fill: none; stroke: #000000; stroke-width: 1.4"/>
   </g>
   <g id="line2d_14">
    <path d="M 184.294054 34.637524 
L 244.401303 34.637524 
L 244.401303 47.704317 
" clip-path="url(#pefad4f92df)" style="fill: none; stroke: #000000; stroke-width: 1.4"/>
   </g>
   <g id="line2d_15">
    <path d="M 257.468097 64.952484 
L 280.988325 64.952484 
L 280.988325 18.957372 
L 66.692913 18.957372 
" clip-path="url(#pefad4f92df)" style="fill: none; stroke: #000000; stroke-width: 1.4"/>
   </g>
   <g id="line2d_16">
    <path d="M 98.053217 18.957372 
L 58.689764 18.957372 
L 34.193185 18.957372 
" clip-path="url(#pefad4f92df)" style="fill: none; stroke: #000000; stroke-width: 0.6; stroke-linecap: square"/>
   </g>
   <g id="line2d_17">
    <path d="M 98.053217 34.637524 
L 58.689764 43.348719 
L 34.193185 43.348719 
" clip-path="url(#pefad4f92df)" style="fill: none; stroke: #000000; stroke-width: 0.6; stroke-linecap: square"/>
   </g>
   <g id="line2d_18">
    <path d="M 118.960087 92.131415 
L 58.689764 92.131415 
L 34.193185 92.131415 
" clip-path="url(#pefad4f92df)" style="fill: none; stroke: #000000; stroke-width: 0.6; stroke-linecap: square"/>
   </g>
   <g id="line2d_19">
    <path d="M 134.640239 180.98561 
L 58.689764 180.98561 
L 34.193185 180.98561 
" clip-path="url(#pefad4f92df)" style="fill: none; stroke: #000000; stroke-width: 0.6; stroke-linecap: square"/>
   </g>
   <g id="line2d_20">
    <path d="M 139.866956 214.959272 
L 58.689764 214.959272 
L 34.193185 214.959272 
" clip-path="url(#pefad4f92df)" style="fill: none; stroke: #000000; stroke-width: 0.6; stroke-linecap: square"/>
   </g>
   <g id="line2d_21">
    <path d="M 244.401303 63.384469 
L 377.845669 63.384469 
L 402.342248 63.384469 
" clip-path="url(#pefad4f92df)" style="fill: none; stroke: #000000; stroke-width: 0.6; stroke-linecap: square"/>
   </g>
   <g id="line2d_22">
    <path d="M 322.802064 81.67798 
L 377.845669 87.775817 
L 402.342248 87.775817 
" clip-path="url(#pefad4f92df)" style="fill: none; stroke: #000000; stroke-width: 0.6; stroke-linecap: square"/>
   </g>
   <g id="line2d_23">
    <path d="M 209.382297 102.584849 
L 377.845669 112.167164 
L 402.342248 112.167164 
" clip-path="url(#pefad4f92df)" style="fill: none; stroke: #000000; stroke-width: 0.6; stroke-linecap: square"/>
   </g>
   <g id="line2d_24">
    <path d="M 199.451534 107.811567 
L 377.845669 136.558512 
L 402.342248 136.558512 
" clip-path="url(#pefad4f92df)" style="fill: none; stroke: #000000; stroke-width: 0.6; stroke-linecap: square"/>
   </g>
   <g id="line2d_25">
    <path d="M 328.028781 123.491719 
L 377.845669 160.94986 
L 402.342248 160.94986 
" clip-path="url(#pefad4f92df)" style="fill: none; stroke: #000000; stroke-width: 0.6; stroke-linecap: square"/>
   </g>
   <g id="line2d_26">
    <path d="M 270.53489 165.305458 
L 377.845669 185.341207 
L 402.342248 185.341207 
" clip-path="url(#pefad4f92df)" style="fill: none; stroke: #000000; stroke-width: 0.6; stroke-linecap: square"/>
   </g>
   <g id="line2d_27">
    <defs>
     <path id="m8de0e84b22" d="M 0 0.9 
C 0.238683 0.9 0.467622 0.80517 0.636396 0.636396 
C 0.80517 0.467622 0.9 0.238683 0.9 0 
C 0.9 -0.238683 0.80517 -0.467622 0.636396 -0.636396 
C 0.467622 -0.80517 0.238683 -0.9 0 -0.9 
C -0.238683 -0.9 -0.467622 -0.80517 -0.636396 -0.636396 
C -0.80517 -0.467622 -0.9 -0.238683 -0.9 0 
C -0.9 0.238683 -0.80517 0.467622 -0.636396 0.636396 
C -0.467622 0.80517 -0.238683 0.9 0 0.9 
z
" style="stroke: #000000"/>
    </defs>
    <g clip-path="url(#pefad4f92df)">
     <use xlink:href="#m8de0e84b22" x="98.053217" y="18.957372" style="stroke: #000000"/>
    </g>
   </g>
   <g id="text_1">
    <text style="font-size: 10px; font-family: 'Times New Roman'; text-anchor: end" x="30.011811" y="21.345067" transform="rotate(-0 30.011811 21.345067)">86</text>
   </g>
   <g id="line2d_28">
    <g clip-path="url(#pefad4f92df)">
     <use xlink:href="#m8de0e84b22" x="98.053217" y="34.637524" style="stroke: #000000"/>
    </g>
   </g>
   <g id="text_2">
    <text style="font-size: 10px; font-family: 'Times New Roman'; text-anchor: end" x="30.011811" y="45.736415" transform="rotate(-0 30.011811 45.736415)">87</text>
   </g>
   <g id="line2d_29">
    <g clip-path="url(#pefad4f92df)">
     <use xlink:href="#m8de0e84b22" x="118.960087" y="92.131415" style="stroke: #000000"/>
    </g>
   </g>
   <g id="text_3">
    <text style="font-size: 10px; font-family: 'Times New Roman'; text-anchor: end" x="30.011811" y="94.51911" transform="rotate(-0 30.011811 94.51911)">12</text>
   </g>
   <g id="line2d_30">
    <g clip-path="url(#pefad4f92df)">
     <use xlink:href="#m8de0e84b22" x="134.640239" y="180.98561" style="stroke: #000000"/>
    </g>
   </g>
   <g id="text_4">
    <text style="font-size: 10px; font-family: 'Times New Roman'; text-anchor: end" x="30.011811" y="183.373305" transform="rotate(-0 30.011811 183.373305)">84</text>
   </g>
   <g id="line2d_31">
    <g clip-path="url(#pefad4f92df)">
     <use xlink:href="#m8de0e84b22" x="139.866956" y="214.959272" style="stroke: #000000"/>
    </g>
   </g>
   <g id="text_5">
    <text style="font-size: 10px; font-family: 'Times New Roman'; text-anchor: end" x="30.011811" y="217.346968" transform="rotate(-0 30.011811 217.346968)">43</text>
   </g>
   <g id="line2d_32">
    <g clip-path="url(#pefad4f92df)">
     <use xlink:href="#m8de0e84b22" x="244.401303" y="63.384469" style="stroke: #000000"/>
    </g>
   </g>
   <g id="text_6">
    <text style="font-size: 10px; font-family: 'Times New Roman'; text-anchor: start" x="406.523622" y="65.772164" transform="rotate(-0 406.523622 65.772164)">15</text>
   </g>
   <g id="line2d_33">
    <g clip-path="url(#pefad4f92df)">
     <use xlink:href="#m8de0e84b22" x="322.802064" y="81.67798" style="stroke: #000000"/>
    </g>
   </g>
   <g id="text_7">
    <text style="font-size: 10px; font-family: 'Times New Roman'; text-anchor: start" x="406.523622" y="90.163512" transform="rotate(-0 406.523622 90.163512)">46</text>
   </g>
   <g id="line2d_34">
    <g clip-path="url(#pefad4f92df)">
     <use xlink:href="#m8de0e84b22" x="209.382297" y="102.584849" style="stroke: #000000"/>
    </g>
   </g>
   <g id="text_8">
    <text style="font-size: 10px; font-family: 'Times New Roman'; text-anchor: start" x="406.523622" y="114.55486" transform="rotate(-0 406.523622 114.55486)">44</text>
   </g>
   <g id="line2d_35">
    <g clip-path="url(#pefad4f92df)">
     <use xlink:href="#m8de0e84b22" x="199.451534" y="107.811567" style="stroke: #000000"/>
    </g>
   </g>
   <g id="text_9">
    <text style="font-size: 10px; font-family: 'Times New Roman'; text-anchor: start" x="406.523622" y="138.946207" transform="rotate(-0 406.523622 138.946207)">82</text>
   </g>
   <g id="line2d_36">
    <g clip-path="url(#pefad4f92df)">
     <use xlink:href="#m8de0e84b22" x="328.028781" y="123.491719" style="stroke: #000000"/>
    </g>
   </g>
   <g id="text_10">
    <text style="font-size: 10px; font-family: 'Times New Roman'; text-anchor: start" x="406.523622" y="163.337555" transform="rotate(-0 406.523622 163.337555)">83</text>
   </g>
   <g id="line2d_37">
    <g clip-path="url(#pefad4f92df)">
     <use xlink:href="#m8de0e84b22" x="270.53489" y="165.305458" style="stroke: #000000"/>
    </g>
   </g>
   <g id="text_11">
    <text style="font-size: 10px; font-family: 'Times New Roman'; text-anchor: start" x="406.523622" y="187.728903" transform="rotate(-0 406.523622 187.728903)">45</text>
   </g>
  </g>
 </g>
 <defs>
  <clipPath id="pefad4f92df">
   <rect x="0" y="0" width="436.535433" height="236.530003"/>
  </clipPath>
 </defs>
 <defs>
  <pattern id="h666fdaefed" patternUnits="userSpaceOnUse" x="0" y="0" width="72" height="72">
   <rect x="0" y="0" width="73" height="73" fill="#ffffff"/>
   <path d="M -36 36 
L 36 -36 
M -33 39 
L 39 -33 
M -30 42 
L 42 -30 
M -27 45 
L 45 -27 
M -24 48 
L 48 -24 
M -21 51 
L 51 -21 
M -18 54 
L 54 -18 
M -15 57 
L 57 -15 
M -12 60 
L 60 -12 
M -9 63 
L 63 -9 
M -6 66 
L 66 -6 
M -3 69 
L 69 -3 
M 0 72 
L 72 0 
M 3 75 
L 75 3 
M 6 78 
L 78 6 
M 9 81 
L 81 9 
M 12 84 
L 84 12 
M 15 87 
L 87 15 
M 18 90 
L 90 18 
M 21 93 
L 93 21 
M 24 96 
L 96 24 
M 27 99 
L 99 27 
M 30 102 
L 102 30 
M 33 105 
L 105 33 
M 36 108 
L 108 36 
" style="fill: #000000; stroke: #000000; stroke-width: 0.5; stroke-linecap: butt; stroke-linejoin: miter"/>
  </pattern>
  <pattern id="h2052e03f31" patternUnits="userSpaceOnUse" x="0" y="0" width="72" height="72">
   <rect x="0" y="0" width="73" height="73" fill="#ffffff"/>
   <path d="M -36 36 
L 36 -36 
M -33 39 
L 39 -33 
M -30 42 
L 42 -30 
M -27 45 
L 45 -27 
M -24 48 
L 48 -24 
M -21 51 
L 51 -21 
M -18 54 
L 54 -18 
M -15 57 
L 57 -15 
M -12 60 
L 60 -12 
M -9 63 
L 63 -9 
M -6 66 
L 66 -6 
M -3 69 
L 69 -3 
M 0 72 
L 72 0 
M 3 75 
L 75 3 
M 6 78 
L 78 6 
M 9 81 
L 81 9 
M 12 84 
L 84 12 
M 15 87 
L 87 15 
M 18 90 
L 90 18 
M 21 93 
L 93 21 
M 24 96 
L 96 24 
M 27 99 
L 99 27 
M 30 102 
L 102 30 
M 33 105 
L 105 33 
M 36 108 
L 108 36 
M -36 36 
L 36 108 
M -33 33 
L 39 105 
M -30 30 
L 42 102 
M -27 27 
L 45 99 
M -24 24 
L 48 96 
M -21 21 
L 51 93 
M -18 18 
L 54 90 
M -15 15 
L 57 87 
M -12 12 
L 60 84 
M -9 9 
L 63 81 
M -6 6 
L 66 78 
M -3 3 
L 69 75 
M 0 0 
L 72 72 
M 3 -3 
L 75 69 
M 6 -6 
L 78 66 
M 9 -9 
L 81 63 
M 12 -12 
L 84 60 
M 15 -15 
L 87 57 
M 18 -18 
L 90 54 
M 21 -21 
L 93 51 
M 24 -24 
L 96 48 
M 27 -27 
L 99 45 
M 30 -30 
L 102 42 
M 33 -33 
L 105 39 
M 36 -36 
L 108 36 
" style="fill: #000000; stroke: #000000; stroke-width: 0.5; stroke-linecap: butt; stroke-linejoin: miter"/>
  </pattern>
 </defs>
</svg>
