ISO-10303-21;
HEADER;
FILE_DESCRIPTION (( 'STEP AP214' ),
    '1' );
FILE_NAME ('HB0.STEP',
    '2018-09-13T09:24:09',
    ( '' ),
    ( '' ),
    'SwSTEP 2.0',
    'SolidWorks 2016',
    '' );
FILE_SCHEMA (( 'AUTOMOTIVE_DESIGN' ));
ENDSEC;

DATA;
#1 = CARTESIAN_POINT ( 'NONE',  ( 0.0000000000000000000, 6.735557395310442000E-016, -5.500000000000000000 ) ) ;
#2 = CARTESIAN_POINT ( 'NONE',  ( 5.000000000000000000, 0.0000000000000000000, 0.0000000000000000000 ) ) ;
#3 = CARTESIAN_POINT ( 'NONE',  ( 3.200000000000000600, 4.653657836759942700E-016, -3.799999999999999800 ) ) ;
#4 = CARTESIAN_POINT ( 'NONE',  ( 4.000000000000000000, 6.123233995736766300E-016, -5.000000000000000000 ) ) ;
#5 = DIRECTION ( 'NONE',  ( 0.0000000000000000000, 0.0000000000000000000, 1.000000000000000000 ) ) ;
#6 = CARTESIAN_POINT ( 'NONE',  ( 0.0000000000000000000, -1.154700538379251200, 1.999999999999997300 ) ) ;
#7 = CARTESIAN_POINT ( 'NONE',  ( -0.0000000000000000000, -2.309401076758501100, -6.141423107153985600E-016 ) ) ;
#8 = CARTESIAN_POINT ( 'NONE',  ( 3.600000000000001000, 4.163799117101000600E-016, -3.399999999999999900 ) ) ;
#9 = CARTESIAN_POINT ( 'NONE',  ( 0.0000000000000000000, 1.154700538379250400, 1.999999999999997300 ) ) ;
#10 = CARTESIAN_POINT ( 'NONE',  ( 5.334314575050760800, 0.0000000000000000000, 3.399999999999999900 ) ) ;
#11 = CARTESIAN_POINT ( 'NONE',  ( 3.200000000000000600, 0.0000000000000000000, 3.799999999999999800 ) ) ;
#12 = ADVANCED_FACE ( 'NONE', ( #491 ), #574, .F. ) ;
#13 = DIRECTION ( 'NONE',  ( 0.0000000000000000000, 0.0000000000000000000, 1.000000000000000000 ) ) ;
#14 = DIRECTION ( 'NONE',  ( -1.000000000000000000, -0.0000000000000000000, -0.0000000000000000000 ) ) ;
#15 = CARTESIAN_POINT ( 'NONE',  ( -1.573951397329142400, 0.0000000000000000000, 0.0000000000000000000 ) ) ;
#16 = CARTESIAN_POINT ( 'NONE',  ( 6.201721238055121400, -1.518983612677672800E-015, 0.0000000000000000000 ) ) ;
#17 = CARTESIAN_POINT ( 'NONE',  ( 3.200000000000000200, 4.653657836759942700E-016, -3.799999999999999800 ) ) ;
#18 = CARTESIAN_POINT ( 'NONE',  ( 10.00000000000000000, 0.0000000000000000000, 3.499999999999999600 ) ) ;
#19 = CARTESIAN_POINT ( 'NONE',  ( 3.199999999999999700, 6.123233995736766300E-016, -5.000000000000000000 ) ) ;
#20 = CARTESIAN_POINT ( 'NONE',  ( 6.099999999999996100, 4.898587196589412800E-016, 4.000000000000000000 ) ) ;
#21 = CARTESIAN_POINT ( 'NONE',  ( -0.0000000000000000000, -1.154700538379251200, -1.999999999999997800 ) ) ;
#22 = CARTESIAN_POINT ( 'NONE',  ( 5.617157287525380100, 4.602931305427578600E-016, 3.517157287525381800 ) ) ;
#23 = CARTESIAN_POINT ( 'NONE',  ( 0.0000000000000000000, 1.154700538379251700, -1.999999999999997300 ) ) ;
#24 = DIRECTION ( 'NONE',  ( -1.000000000000000000, -0.0000000000000000000, -0.0000000000000000000 ) ) ;
#25 = CARTESIAN_POINT ( 'NONE',  ( 4.814093077491092400, -1.154700538379251700, 1.999999999999997300 ) ) ;
#26 = DIRECTION ( 'NONE',  ( 0.0000000000000000000, 0.4999999999999997800, -0.8660254037844387100 ) ) ;
#27 = CARTESIAN_POINT ( 'NONE',  ( 4.000000000000000000, 6.123233995736766300E-016, -5.000000000000000000 ) ) ;
#28 = CARTESIAN_POINT ( 'NONE',  ( -1.573951397329142400, 0.0000000000000000000, 5.500000000000000000 ) ) ;
#29 = CARTESIAN_POINT ( 'NONE',  ( 0.0000000000000000000, 1.154700538379251000, 1.999999999999997300 ) ) ;
#30 = CARTESIAN_POINT ( 'NONE',  ( -1.573951397329142400, 4.163799117101000600E-016, -3.399999999999999900 ) ) ;
#31 = CARTESIAN_POINT ( 'NONE',  ( 4.000000000000000000, 0.0000000000000000000, 3.799999999999999800 ) ) ;
#32 = DIRECTION ( 'NONE',  ( -1.000000000000000000, -0.0000000000000000000, -0.0000000000000000000 ) ) ;
#33 = CARTESIAN_POINT ( 'NONE',  ( 9.500000000000001800, 0.0000000000000000000, 4.000000000000000000 ) ) ;
#34 = DIRECTION ( 'NONE',  ( -1.000000000000000000, -0.0000000000000000000, -0.0000000000000000000 ) ) ;
#35 = DIRECTION ( 'NONE',  ( -1.000000000000000000, -0.0000000000000000000, -0.0000000000000000000 ) ) ;
#36 = CARTESIAN_POINT ( 'NONE',  ( 5.000000000000000900, 2.449293546244918900E-016, -1.999999999999997800 ) ) ;
#37 = DIRECTION ( 'NONE',  ( -1.000000000000000000, -0.0000000000000000000, -0.0000000000000000000 ) ) ;
#38 = DIRECTION ( 'NONE',  ( -0.7071067811865463500, 8.659560562354950100E-017, -0.7071067811865487900 ) ) ;
#39 = CARTESIAN_POINT ( 'NONE',  ( 10.00099999999999900, -1.154700538379251200, 1.999999999999997300 ) ) ;
#40 = CARTESIAN_POINT ( 'NONE',  ( 10.00099999999999900, 2.309401076758500700, -4.612521832883825100E-016 ) ) ;
#41 = CARTESIAN_POINT ( 'NONE',  ( 10.00000000000000000, 0.0000000000000000000, 0.0000000000000000000 ) ) ;
#42 = DIRECTION ( 'NONE',  ( 1.000000000000000000, 0.0000000000000000000, 0.0000000000000000000 ) ) ;
#43 =( NAMED_UNIT ( * ) SI_UNIT ( $, .STERADIAN. ) SOLID_ANGLE_UNIT ( ) );
#44 = DIRECTION ( 'NONE',  ( 0.0000000000000000000, 0.0000000000000000000, 1.000000000000000000 ) ) ;
#45 = CARTESIAN_POINT ( 'NONE',  ( 9.500000000000001800, 4.898587196589412800E-016, -4.000000000000000000 ) ) ;
#46 = CARTESIAN_POINT ( 'NONE',  ( -1.573951397329142400, 4.898587196589412800E-016, -4.000000000000000000 ) ) ;
#47 = DIRECTION ( 'NONE',  ( -1.000000000000000000, -0.0000000000000000000, -0.0000000000000000000 ) ) ;
#48 = DIRECTION ( 'NONE',  ( 0.0000000000000000000, -0.4999999999999998900, 0.8660254037844386000 ) ) ;
#49 = CARTESIAN_POINT ( 'NONE',  ( 4.927188794739420200, -1.342923420133615800, -1.673988405654407900 ) ) ;
#50 = ADVANCED_FACE ( 'NONE', ( #490, #484 ), #842, .F. ) ;
#51 = CARTESIAN_POINT ( 'NONE',  ( -0.0000000000000000000, -1.154700538379251200, -1.999999999999997800 ) ) ;
#52 = CARTESIAN_POINT ( 'NONE',  ( 6.099999999999996100, 0.0000000000000000000, 0.0000000000000000000 ) ) ;
#53 = DIRECTION ( 'NONE',  ( -1.000000000000000000, -0.0000000000000000000, -0.0000000000000000000 ) ) ;
#54 = DIRECTION ( 'NONE',  ( 0.0000000000000000000, 0.0000000000000000000, 1.000000000000000000 ) ) ;
#55 = CARTESIAN_POINT ( 'NONE',  ( 4.814093077491091500, -1.154700538379251000, -1.999999999999997800 ) ) ;
#56 = CARTESIAN_POINT ( 'NONE',  ( 4.982351060012675200, -1.927354523524253700, -0.6617240410582846400 ) ) ;
#57 = CARTESIAN_POINT ( 'NONE',  ( 4.999696899736209200, -1.534163732629752400, -1.342750467955750900 ) ) ;
#58 = CARTESIAN_POINT ( 'NONE',  ( 5.000150076440002400, -1.829076285005396800, -0.8319469434513185900 ) ) ;
#59 = CARTESIAN_POINT ( 'NONE',  ( 3.600000000000001000, 4.653657836759942700E-016, -3.799999999999999800 ) ) ;
#60 = ADVANCED_FACE ( 'NONE', ( #485 ), #476, .T. ) ;
#61 = CARTESIAN_POINT ( 'NONE',  ( 4.917516111939717000, -2.120048896595125400, -0.3279675965669042200 ) ) ;
#62 = CARTESIAN_POINT ( 'NONE',  ( 4.870724187307231100, -2.215151082630577100, -0.1632457784426337400 ) ) ;
#63 = CARTESIAN_POINT ( 'NONE',  ( 4.814093077491092400, -2.309401076758501100, -4.536615974342307600E-016 ) ) ;
#64 = CARTESIAN_POINT ( 'NONE',  ( -0.0000000000000000000, -2.309401076758501100, -6.141423107153985600E-016 ) ) ;
#65 = DIRECTION ( 'NONE',  ( 0.0000000000000000000, 0.4999999999999998300, 0.8660254037844387100 ) ) ;
#66 = ADVANCED_FACE ( 'NONE', ( #479 ), #472, .T. ) ;
#67 = DIRECTION ( 'NONE',  ( -0.0000000000000000000, 1.000000000000000000, 1.224646799147353200E-016 ) ) ;
#68 = DIRECTION ( 'NONE',  ( 0.0000000000000000000, -1.224646799147353200E-016, 1.000000000000000000 ) ) ;
#69 = CARTESIAN_POINT ( 'NONE',  ( 4.982493092828959500, -0.3895871167664045100, -1.999999999999998200 ) ) ;
#70 = CARTESIAN_POINT ( 'NONE',  ( 4.814093077491092400, 1.154700538379251700, -1.999999999999997300 ) ) ;
#71 = ADVANCED_FACE ( 'NONE', ( #478 ), #267, .F. ) ;
#72 = CARTESIAN_POINT ( 'NONE',  ( 5.000000000000000900, 2.449293546244918900E-016, -1.999999999999997800 ) ) ;
#73 = CARTESIAN_POINT ( 'NONE',  ( 5.000000000000000000, -0.1954045354546466700, -1.999999999999997300 ) ) ;
#74 = ADVANCED_FACE ( 'NONE', ( #480 ), #463, .T. ) ;
#75 = CARTESIAN_POINT ( 'NONE',  ( 4.870025540113210200, -0.9685260385005972600, -1.999999999999997800 ) ) ;
#76 = CARTESIAN_POINT ( 'NONE',  ( 4.814093077491091500, -1.154700538379251000, -1.999999999999997800 ) ) ;
#77 = DIRECTION ( 'NONE',  ( 0.0000000000000000000, -0.4999999999999997800, -0.8660254037844387100 ) ) ;
#78 = CARTESIAN_POINT ( 'NONE',  ( 5.000000000000000000, 2.449293598294704900E-016, -1.999999999999998700 ) ) ;
#79 = CARTESIAN_POINT ( 'NONE',  ( 5.000000000000000000, 0.0000000000000000000, 0.0000000000000000000 ) ) ;
#80 = DIRECTION ( 'NONE',  ( 0.0000000000000000000, 0.0000000000000000000, 1.000000000000000000 ) ) ;
#81 = DIRECTION ( 'NONE',  ( -0.5150380749100549300, 1.049727191138618100E-016, -0.8571673007021118900 ) ) ;
#82 = CARTESIAN_POINT ( 'NONE',  ( -1.573951397329142400, 0.0000000000000000000, 0.0000000000000000000 ) ) ;
#83 = CARTESIAN_POINT ( 'NONE',  ( 4.000000000000000000, 0.0000000000000000000, 5.000000000000000000 ) ) ;
#84 = CARTESIAN_POINT ( 'NONE',  ( 4.000000000000000000, 0.0000000000000000000, 5.000000000000000000 ) ) ;
#85 = CARTESIAN_POINT ( 'NONE',  ( 5.334314575050760800, 0.0000000000000000000, 3.799999999999999800 ) ) ;
#86 = DIRECTION ( 'NONE',  ( 0.0000000000000000000, -1.000000000000000000, 0.0000000000000000000 ) ) ;
#87 = UNCERTAINTY_MEASURE_WITH_UNIT (LENGTH_MEASURE( 1.000000000000000100E-005 ), #975, 'distance_accuracy_value', 'NONE');
#88 = DIRECTION ( 'NONE',  ( 0.0000000000000000000, 0.0000000000000000000, -1.000000000000000000 ) ) ;
#89 = CARTESIAN_POINT ( 'NONE',  ( 5.000000000000000900, -5.204707037421930600E-024, 1.999999999999997300 ) ) ;
#90 = CARTESIAN_POINT ( 'NONE',  ( 4.000000000000000000, 0.0000000000000000000, 0.0000000000000000000 ) ) ;
#91 = DIRECTION ( 'NONE',  ( -1.000000000000000000, -0.0000000000000000000, -0.0000000000000000000 ) ) ;
#92 = DIRECTION ( 'NONE',  ( 0.0000000000000000000, 0.0000000000000000000, 1.000000000000000000 ) ) ;
#93 = DIRECTION ( 'NONE',  ( -1.000000000000000000, -0.0000000000000000000, -0.0000000000000000000 ) ) ;
#94 = CARTESIAN_POINT ( 'NONE',  ( 3.600000000000001000, 0.0000000000000000000, 0.0000000000000000000 ) ) ;
#95 = DIRECTION ( 'NONE',  ( 0.0000000000000000000, 0.0000000000000000000, 1.000000000000000000 ) ) ;
#96 = DIRECTION ( 'NONE',  ( 1.000000000000000000, 0.0000000000000000000, 0.0000000000000000000 ) ) ;
#97 = ADVANCED_FACE ( 'NONE', ( #466 ), #294, .F. ) ;
#98 = CARTESIAN_POINT ( 'NONE',  ( 5.000000000000000000, 0.1951822488349474500, 1.999999999999997300 ) ) ;
#99 = CARTESIAN_POINT ( 'NONE',  ( 3.999999999999999100, 0.0000000000000000000, 0.0000000000000000000 ) ) ;
#100 = DIRECTION ( 'NONE',  ( -1.000000000000000000, -0.0000000000000000000, -0.0000000000000000000 ) ) ;
#101 = DIRECTION ( 'NONE',  ( 0.0000000000000000000, 0.0000000000000000000, 1.000000000000000000 ) ) ;
#102 = CARTESIAN_POINT ( 'NONE',  ( 4.982058068883598700, 0.3932477444156268800, 1.999999999999997800 ) ) ;
#103 = DIRECTION ( 'NONE',  ( -1.000000000000000000, -0.0000000000000000000, -0.0000000000000000000 ) ) ;
#104 = ADVANCED_FACE ( 'NONE', ( #468 ), #460, .F. ) ;
#105 = CARTESIAN_POINT ( 'NONE',  ( 4.916806945515048700, 0.7792988962213469600, 1.999999999999997300 ) ) ;
#106 = CARTESIAN_POINT ( 'NONE',  ( 5.334314575050760800, 4.653657836759942700E-016, -3.799999999999999800 ) ) ;
#107 = CARTESIAN_POINT ( 'NONE',  ( 4.870087994979399100, 0.9683181537958597300, 1.999999999999997800 ) ) ;
#108 = CARTESIAN_POINT ( 'NONE',  ( 4.814093077491092400, 1.154700538379251000, 1.999999999999997300 ) ) ;
#109 = CARTESIAN_POINT ( 'NONE',  ( -1.573951397329142400, 6.735557395310442000E-016, -5.500000000000000000 ) ) ;
#110 = DIRECTION ( 'NONE',  ( -0.0000000000000000000, -1.000000000000000000, -1.877893248421449800E-016 ) ) ;
#111 = DIRECTION ( 'NONE',  ( -1.000000000000000000, 0.0000000000000000000, -0.0000000000000000000 ) ) ;
#112 = CARTESIAN_POINT ( 'NONE',  ( 4.000000000000000000, 5.500000000000000000, 0.0000000000000000000 ) ) ;
#113 = DIRECTION ( 'NONE',  ( -1.000000000000000000, -0.0000000000000000000, -0.0000000000000000000 ) ) ;
#114 = DIRECTION ( 'NONE',  ( -1.000000000000000000, -0.0000000000000000000, -0.0000000000000000000 ) ) ;
#115 = PLANE ( 'NONE',  #755 ) ;
#116 = CARTESIAN_POINT ( 'NONE',  ( 4.000000000000000000, 0.0000000000000000000, 0.0000000000000000000 ) ) ;
#117 = DIRECTION ( 'NONE',  ( 1.000000000000000000, 0.0000000000000000000, 0.0000000000000000000 ) ) ;
#118 = DIRECTION ( 'NONE',  ( 0.0000000000000000000, 0.0000000000000000000, -1.000000000000000000 ) ) ;
#119 = CARTESIAN_POINT ( 'NONE',  ( -1.573951397329142400, 0.0000000000000000000, 3.399999999999999900 ) ) ;
#120 = CARTESIAN_POINT ( 'NONE',  ( 4.000000000000000000, 6.123233995736766300E-016, -5.000000000000000000 ) ) ;
#121 = CARTESIAN_POINT ( 'NONE',  ( 3.200000000000000200, 0.0000000000000000000, 0.0000000000000000000 ) ) ;
#122 = DIRECTION ( 'NONE',  ( -1.000000000000000000, -0.0000000000000000000, -0.0000000000000000000 ) ) ;
#123 = DIRECTION ( 'NONE',  ( 0.0000000000000000000, 0.0000000000000000000, 1.000000000000000000 ) ) ;
#124 = DIRECTION ( 'NONE',  ( -1.000000000000000000, -0.0000000000000000000, -0.0000000000000000000 ) ) ;
#125 = CARTESIAN_POINT ( 'NONE',  ( 0.0000000000000000000, 1.154700538379251700, -1.999999999999997300 ) ) ;
#126 = CARTESIAN_POINT ( 'NONE',  ( 3.600000000000001000, 0.0000000000000000000, 3.399999999999999900 ) ) ;
#127 = CARTESIAN_POINT ( 'NONE',  ( 3.200000000000000200, 0.0000000000000000000, 0.0000000000000000000 ) ) ;
#128 = DIRECTION ( 'NONE',  ( 0.0000000000000000000, -1.224646799147353200E-016, 1.000000000000000000 ) ) ;
#129 = DIRECTION ( 'NONE',  ( 1.000000000000000000, 0.0000000000000000000, 0.0000000000000000000 ) ) ;
#130 = DIRECTION ( 'NONE',  ( 0.0000000000000000000, 0.0000000000000000000, -1.000000000000000000 ) ) ;
#131 = DIRECTION ( 'NONE',  ( 1.000000000000000000, 0.0000000000000000000, 0.0000000000000000000 ) ) ;
#132 = DIRECTION ( 'NONE',  ( -0.0000000000000000000, 1.000000000000000000, 1.224646799147353200E-016 ) ) ;
#133 = CARTESIAN_POINT ( 'NONE',  ( 3.200000000000000200, 0.0000000000000000000, 0.0000000000000000000 ) ) ;
#134 = DIRECTION ( 'NONE',  ( 1.000000000000000000, 0.0000000000000000000, 0.0000000000000000000 ) ) ;
#135 = DIRECTION ( 'NONE',  ( 0.0000000000000000000, 0.0000000000000000000, -1.000000000000000000 ) ) ;
#136 = CARTESIAN_POINT ( 'NONE',  ( 3.999999999999999100, 0.0000000000000000000, 5.500000000000000000 ) ) ;
#137 = CARTESIAN_POINT ( 'NONE',  ( 4.000000000000000000, 0.0000000000000000000, 0.0000000000000000000 ) ) ;
#138 = DIRECTION ( 'NONE',  ( -1.000000000000000000, -0.0000000000000000000, -0.0000000000000000000 ) ) ;
#139 = CARTESIAN_POINT ( 'NONE',  ( 4.917567792809619800, -0.7758645054909527600, -1.999999999999997100 ) ) ;
#140 = DIRECTION ( 'NONE',  ( 0.0000000000000000000, 0.0000000000000000000, -1.000000000000000000 ) ) ;
#141 = CARTESIAN_POINT ( 'NONE',  ( 4.814093077491092400, 1.154700538379251000, 1.999999999999997300 ) ) ;
#142 = DIRECTION ( 'NONE',  ( 0.0000000000000000000, 0.0000000000000000000, -1.000000000000000000 ) ) ;
#143 = CARTESIAN_POINT ( 'NONE',  ( 4.927188794739419300, 1.342923420133616200, 1.673988405654408100 ) ) ;
#144 = CARTESIAN_POINT ( 'NONE',  ( 3.200000000000000200, 0.0000000000000000000, 0.0000000000000000000 ) ) ;
#145 = DIRECTION ( 'NONE',  ( 1.000000000000000000, 0.0000000000000000000, 0.0000000000000000000 ) ) ;
#146 = DIRECTION ( 'NONE',  ( 0.0000000000000000000, 0.0000000000000000000, -1.000000000000000000 ) ) ;
#147 = DIRECTION ( 'NONE',  ( -1.000000000000000000, -0.0000000000000000000, -0.0000000000000000000 ) ) ;
#148 = DIRECTION ( 'NONE',  ( 0.0000000000000000000, 0.0000000000000000000, 1.000000000000000000 ) ) ;
#149 = CARTESIAN_POINT ( 'NONE',  ( 4.999696899736209200, 1.534163732629752100, 1.342750467955749600 ) ) ;
#150 = DIRECTION ( 'NONE',  ( -0.0000000000000000000, 0.0000000000000000000, 1.000000000000000000 ) ) ;
#151 = CARTESIAN_POINT ( 'NONE',  ( -1.573951397329142400, 0.0000000000000000000, 0.0000000000000000000 ) ) ;
#152 = CARTESIAN_POINT ( 'NONE',  ( 5.000150076440001500, 1.829076285005396300, 0.8319469434513169200 ) ) ;
#153 = CARTESIAN_POINT ( 'NONE',  ( 4.982351060012675200, 1.927354523524253300, 0.6617240410582840800 ) ) ;
#154 = ADVANCED_FACE ( 'NONE', ( #465 ), #454, .T. ) ;
#155 = CARTESIAN_POINT ( 'NONE',  ( 4.917516111939717900, 2.120048896595123600, 0.3279675965669034400 ) ) ;
#156 = CARTESIAN_POINT ( 'NONE',  ( 4.870724187307232000, 2.215151082630576300, 0.1632457784426332400 ) ) ;
#157 = DIRECTION ( 'NONE',  ( 0.7071067811865452400, 8.659560562354961200E-017, 0.7071067811865499000 ) ) ;
#158 = ADVANCED_FACE ( 'NONE', ( #461 ), #464, .T. ) ;
#159 = CARTESIAN_POINT ( 'NONE',  ( 10.00099999999999900, -1.154700538379251200, -1.999999999999997800 ) ) ;
#160 = CARTESIAN_POINT ( 'NONE',  ( 4.814093077491092400, 2.309401076758500700, -4.961124279125277600E-016 ) ) ;
#161 = CARTESIAN_POINT ( 'NONE',  ( 6.099999999999996100, 4.898587196589412800E-016, 4.000000000000000000 ) ) ;
#162 = CARTESIAN_POINT ( 'NONE',  ( 3.199999999999999700, 0.0000000000000000000, 0.0000000000000000000 ) ) ;
#163 = DIRECTION ( 'NONE',  ( -1.000000000000000000, -0.0000000000000000000, -0.0000000000000000000 ) ) ;
#164 = DIRECTION ( 'NONE',  ( 0.0000000000000000000, 0.0000000000000000000, 1.000000000000000000 ) ) ;
#165 = CARTESIAN_POINT ( 'NONE',  ( 10.00099999999999900, -2.309401076758501100, -6.141423107153985600E-016 ) ) ;
#166 = CARTESIAN_POINT ( 'NONE',  ( 4.000000000000000000, 0.0000000000000000000, 3.799999999999999800 ) ) ;
#167 = DIRECTION ( 'NONE',  ( -1.000000000000000000, -0.0000000000000000000, -0.0000000000000000000 ) ) ;
#168 = CARTESIAN_POINT ( 'NONE',  ( 10.00000000000000000, 0.0000000000000000000, 0.0000000000000000000 ) ) ;
#169 = PRODUCT_DEFINITION_SHAPE ( 'NONE', 'NONE',  #955 ) ;
#170 = B_SPLINE_CURVE_WITH_KNOTS ( 'NONE', 3,
 ( #141, #143, #149, #152, #153, #155, #156, #160 ),
 .UNSPECIFIED., .F., .F.,
 ( 4, 2, 2, 4 ),
 ( 2.386335897418328400E-007, 0.001167194647185766200, 0.001750672653983778600, 0.002334150660781790100 ),
 .UNSPECIFIED. ) ;
#171 = PRODUCT_DEFINITION_CONTEXT ( 'detailed design', #868, 'design' ) ;
#172 = DIRECTION ( 'NONE',  ( 1.000000000000000000, 0.0000000000000000000, 0.0000000000000000000 ) ) ;
#173 = DIRECTION ( 'NONE',  ( 1.000000000000000000, 0.0000000000000000000, 0.0000000000000000000 ) ) ;
#174 = DIRECTION ( 'NONE',  ( 0.0000000000000000000, 0.0000000000000000000, 1.000000000000000000 ) ) ;
#175 = CARTESIAN_POINT ( 'NONE',  ( 4.000000000000000000, 0.0000000000000000000, 0.0000000000000000000 ) ) ;
#176 = DIRECTION ( 'NONE',  ( -1.000000000000000000, -0.0000000000000000000, -0.0000000000000000000 ) ) ;
#177 = CARTESIAN_POINT ( 'NONE',  ( 0.0000000000000000000, 0.0000000000000000000, 0.0000000000000000000 ) ) ;
#178 = DIRECTION ( 'NONE',  ( 0.0000000000000000000, 0.0000000000000000000, 1.000000000000000000 ) ) ;
#179 = CARTESIAN_POINT ( 'NONE',  ( 4.000000000000000000, 0.0000000000000000000, 0.0000000000000000000 ) ) ;
#180 = DIRECTION ( 'NONE',  ( 0.0000000000000000000, 0.0000000000000000000, 1.000000000000000000 ) ) ;
#181 = CARTESIAN_POINT ( 'NONE',  ( 9.500000000000001800, 0.0000000000000000000, 0.0000000000000000000 ) ) ;
#182 = PRODUCT_DEFINITION_CONTEXT ( 'detailed design', #866, 'design' ) ;
#183 = DIRECTION ( 'NONE',  ( -1.000000000000000000, -0.0000000000000000000, -0.0000000000000000000 ) ) ;
#184 = DIRECTION ( 'NONE',  ( 0.0000000000000000000, 0.0000000000000000000, 1.000000000000000000 ) ) ;
#185 = CARTESIAN_POINT ( 'NONE',  ( 4.000000000000000000, 0.0000000000000000000, 0.0000000000000000000 ) ) ;
#186 = CARTESIAN_POINT ( 'NONE',  ( 9.500000000000001800, 4.898587196589412800E-016, -4.000000000000000000 ) ) ;
#187 = CARTESIAN_POINT ( 'NONE',  ( 6.099999999999996100, 0.0000000000000000000, -4.000000000000000000 ) ) ;
#188 = CARTESIAN_POINT ( 'NONE',  ( 5.334314575050760800, 0.0000000000000000000, 0.0000000000000000000 ) ) ;
#189 = DIRECTION ( 'NONE',  ( -1.000000000000000000, -0.0000000000000000000, -0.0000000000000000000 ) ) ;
#190 = DIRECTION ( 'NONE',  ( 0.0000000000000000000, 0.0000000000000000000, 1.000000000000000000 ) ) ;
#191 = FILL_AREA_STYLE_COLOUR ( '', #354 ) ;
#192 = DIRECTION ( 'NONE',  ( 1.000000000000000000, 0.0000000000000000000, 0.0000000000000000000 ) ) ;
#193 = CARTESIAN_POINT ( 'NONE',  ( 5.334314575050760800, 0.0000000000000000000, 0.0000000000000000000 ) ) ;
#194 = DIRECTION ( 'NONE',  ( -1.000000000000000000, -0.0000000000000000000, -0.0000000000000000000 ) ) ;
#195 = PLANE ( 'NONE',  #751 ) ;
#196 = DIRECTION ( 'NONE',  ( 0.0000000000000000000, 0.0000000000000000000, -1.000000000000000000 ) ) ;
#197 = DIRECTION ( 'NONE',  ( -1.000000000000000000, -0.0000000000000000000, -0.0000000000000000000 ) ) ;
#198 = FILL_AREA_STYLE ('',( #191 ) ) ;
#199 = ADVANCED_FACE ( 'NONE', ( #455 ), #462, .F. ) ;
#200 = PLANE ( 'NONE',  #813 ) ;
#201 =( LENGTH_UNIT ( ) NAMED_UNIT ( * ) SI_UNIT ( .MILLI., .METRE. ) );
#202 = SURFACE_SIDE_STYLE ('',( #349 ) ) ;
#203 = DIRECTION ( 'NONE',  ( 0.0000000000000000000, -0.8660254037844387100, -0.4999999999999999400 ) ) ;
#204 = SURFACE_STYLE_USAGE ( .BOTH. , #202 ) ;
#205 =( NAMED_UNIT ( * ) PLANE_ANGLE_UNIT ( ) SI_UNIT ( $, .RADIAN. ) );
#206 =( NAMED_UNIT ( * ) SI_UNIT ( $, .STERADIAN. ) SOLID_ANGLE_UNIT ( ) );
#207 = DIRECTION ( 'NONE',  ( 0.0000000000000000000, 0.0000000000000000000, 1.000000000000000000 ) ) ;
#208 = DIRECTION ( 'NONE',  ( -1.000000000000000000, -0.0000000000000000000, -0.0000000000000000000 ) ) ;
#209 = CARTESIAN_POINT ( 'NONE',  ( 3.600000000000001000, 0.0000000000000000000, 0.0000000000000000000 ) ) ;
#210 = UNCERTAINTY_MEASURE_WITH_UNIT (LENGTH_MEASURE( 1.000000000000000100E-005 ), #278, 'distance_accuracy_value', 'NONE');
#211 = CARTESIAN_POINT ( 'NONE',  ( 3.200000000000000200, 0.0000000000000000000, 0.0000000000000000000 ) ) ;
#212 = DIRECTION ( 'NONE',  ( 0.0000000000000000000, 0.0000000000000000000, 1.000000000000000000 ) ) ;
#213 = DIRECTION ( 'NONE',  ( 1.000000000000000000, 0.0000000000000000000, 0.0000000000000000000 ) ) ;
#214 = DIRECTION ( 'NONE',  ( 0.0000000000000000000, 0.0000000000000000000, 1.000000000000000000 ) ) ;
#215 = DIRECTION ( 'NONE',  ( -1.000000000000000000, -0.0000000000000000000, -0.0000000000000000000 ) ) ;
#216 = CARTESIAN_POINT ( 'NONE',  ( -1.573951397329142400, 0.0000000000000000000, 0.0000000000000000000 ) ) ;
#217 = DIRECTION ( 'NONE',  ( 0.0000000000000000000, 0.0000000000000000000, -1.000000000000000000 ) ) ;
#218 = CARTESIAN_POINT ( 'NONE',  ( 9.500000000000001800, 0.0000000000000000000, 0.0000000000000000000 ) ) ;
#219 = DIRECTION ( 'NONE',  ( 0.0000000000000000000, 0.0000000000000000000, 1.000000000000000000 ) ) ;
#220 = DIRECTION ( 'NONE',  ( 0.0000000000000000000, 0.0000000000000000000, 1.000000000000000000 ) ) ;
#221 = ADVANCED_FACE ( 'NONE', ( #452 ), #256, .F. ) ;
#222 = DIRECTION ( 'NONE',  ( -1.000000000000000000, -0.0000000000000000000, -0.0000000000000000000 ) ) ;
#223 = CARTESIAN_POINT ( 'NONE',  ( 5.000000000000000900, -5.204707037421930600E-024, 1.999999999999997300 ) ) ;
#224 = CARTESIAN_POINT ( 'NONE',  ( 5.334314575050760800, 4.163799117101000600E-016, -3.399999999999999900 ) ) ;
#225 = CARTESIAN_POINT ( 'NONE',  ( 4.870025540113113400, -0.9685260385009241100, 1.999999999999997300 ) ) ;
#226 = CARTESIAN_POINT ( 'NONE',  ( 4.982493092828906200, -0.3895871167668738000, 1.999999999999997300 ) ) ;
#227 = CARTESIAN_POINT ( 'NONE',  ( 4.814093077491092400, -1.154700538379251700, 1.999999999999997300 ) ) ;
#228 = CARTESIAN_POINT ( 'NONE',  ( 4.917567792809484800, -0.7758645054915855900, 1.999999999999997800 ) ) ;
#229 = CARTESIAN_POINT ( 'NONE',  ( 0.0000000000000000000, 2.309401076758500700, -4.612521832883825100E-016 ) ) ;
#230 = CARTESIAN_POINT ( 'NONE',  ( 5.000000000000001800, -0.1954045354549402100, 1.999999999999997800 ) ) ;
#231 = CARTESIAN_POINT ( 'NONE',  ( 3.199999999999999700, 0.0000000000000000000, 5.000000000000000000 ) ) ;
#232 = CARTESIAN_POINT ( 'NONE',  ( 4.814093077491092400, -2.309401076758501100, -4.536615974342307600E-016 ) ) ;
#233 = DIRECTION ( 'NONE',  ( 0.0000000000000000000, 0.0000000000000000000, -1.000000000000000000 ) ) ;
#234 = DIRECTION ( 'NONE',  ( 1.000000000000000000, 0.0000000000000000000, 0.0000000000000000000 ) ) ;
#235 = DIRECTION ( 'NONE',  ( -1.000000000000000000, -0.0000000000000000000, -0.0000000000000000000 ) ) ;
#236 = CARTESIAN_POINT ( 'NONE',  ( 10.00099999999999900, 1.154700538379251700, -1.999999999999997300 ) ) ;
#237 = CARTESIAN_POINT ( 'NONE',  ( -1.573951397329142400, 0.0000000000000000000, 5.000000000000000000 ) ) ;
#238 = ADVANCED_FACE ( 'NONE', ( #453 ), #447, .F. ) ;
#239 = CARTESIAN_POINT ( 'NONE',  ( 3.200000000000000200, 0.0000000000000000000, 0.0000000000000000000 ) ) ;
#240 = DIRECTION ( 'NONE',  ( -1.000000000000000000, -0.0000000000000000000, -0.0000000000000000000 ) ) ;
#241 = DIRECTION ( 'NONE',  ( 0.0000000000000000000, 0.0000000000000000000, 1.000000000000000000 ) ) ;
#242 = DIRECTION ( 'NONE',  ( 0.0000000000000000000, -0.4999999999999997200, -0.8660254037844388200 ) ) ;
#243 = FILL_AREA_STYLE_COLOUR ( '', #483 ) ;
#244 = DIRECTION ( 'NONE',  ( -0.0000000000000000000, 0.0000000000000000000, 1.000000000000000000 ) ) ;
#245 = CARTESIAN_POINT ( 'NONE',  ( -1.573951397329142400, 0.0000000000000000000, 0.0000000000000000000 ) ) ;
#246 = DIRECTION ( 'NONE',  ( 0.0000000000000000000, -0.8660254037844388200, 0.4999999999999998300 ) ) ;
#247 = DIRECTION ( 'NONE',  ( 0.0000000000000000000, 0.0000000000000000000, -1.000000000000000000 ) ) ;
#248 = FILL_AREA_STYLE ('',( #243 ) ) ;
#249 = DIRECTION ( 'NONE',  ( 0.0000000000000000000, 0.0000000000000000000, 1.000000000000000000 ) ) ;
#250 = DIRECTION ( 'NONE',  ( -1.000000000000000000, -0.0000000000000000000, -0.0000000000000000000 ) ) ;
#251 = SURFACE_SIDE_STYLE ('',( #489 ) ) ;
#252 = DIRECTION ( 'NONE',  ( 0.0000000000000000000, 0.0000000000000000000, 1.000000000000000000 ) ) ;
#253 = SURFACE_STYLE_USAGE ( .BOTH. , #251 ) ;
#254 =( LENGTH_UNIT ( ) NAMED_UNIT ( * ) SI_UNIT ( .MILLI., .METRE. ) );
#255 =( NAMED_UNIT ( * ) PLANE_ANGLE_UNIT ( ) SI_UNIT ( $, .RADIAN. ) );
#256 = PLANE ( 'NONE',  #757 ) ;
#257 =( NAMED_UNIT ( * ) SI_UNIT ( $, .STERADIAN. ) SOLID_ANGLE_UNIT ( ) );
#258 = SHAPE_DEFINITION_REPRESENTATION ( #524, #1010 ) ;
#259 = FILL_AREA_STYLE_COLOUR ( '', #275 ) ;
#260 = DIRECTION ( 'NONE',  ( 0.0000000000000000000, 0.0000000000000000000, 1.000000000000000000 ) ) ;
#261 = CARTESIAN_POINT ( 'NONE',  ( 10.00099999999999900, 1.154700538379251700, -1.999999999999997300 ) ) ;
#262 = CARTESIAN_POINT ( 'NONE',  ( 6.099999999999996100, 0.0000000000000000000, 0.0000000000000000000 ) ) ;
#263 = FILL_AREA_STYLE_COLOUR ( '', #475 ) ;
#264 = DIRECTION ( 'NONE',  ( 1.000000000000000000, 0.0000000000000000000, 0.0000000000000000000 ) ) ;
#265 = DIRECTION ( 'NONE',  ( -1.000000000000000000, -0.0000000000000000000, -0.0000000000000000000 ) ) ;
#266 = CARTESIAN_POINT ( 'NONE',  ( -1.573951397329142400, 0.0000000000000000000, 0.0000000000000000000 ) ) ;
#267 = PLANE ( 'NONE',  #726 ) ;
#268 = DIRECTION ( 'NONE',  ( 0.0000000000000000000, 1.877893248421449800E-016, -1.000000000000000000 ) ) ;
#269 = DIRECTION ( 'NONE',  ( 0.0000000000000000000, 1.000000000000000000, 1.877893248421449800E-016 ) ) ;
#270 = PRESENTATION_STYLE_ASSIGNMENT (( #979 ) ) ;
#271 = CARTESIAN_POINT ( 'NONE',  ( 10.00099999999999900, -1.154700538379251200, -1.999999999999997800 ) ) ;
#272 = CARTESIAN_POINT ( 'NONE',  ( 10.00000000000000000, 4.000000000000000000, 0.0000000000000000000 ) ) ;
#273 = SURFACE_STYLE_FILL_AREA ( #978 ) ;
#274 = SURFACE_STYLE_USAGE ( .BOTH. , #841 ) ;
#275 = COLOUR_RGB ( '',0.7764705882352941300, 0.7568627450980391900, 0.7372549019607843600 ) ;
#276 = DIRECTION ( 'NONE',  ( 0.0000000000000000000, 0.0000000000000000000, 1.000000000000000000 ) ) ;
#277 = FILL_AREA_STYLE ('',( #263 ) ) ;
#278 =( LENGTH_UNIT ( ) NAMED_UNIT ( * ) SI_UNIT ( .MILLI., .METRE. ) );
#279 =( NAMED_UNIT ( * ) PLANE_ANGLE_UNIT ( ) SI_UNIT ( $, .RADIAN. ) );
#280 = ADVANCED_FACE ( 'NONE', ( #458 ), #456, .F. ) ;
#281 =( NAMED_UNIT ( * ) SI_UNIT ( $, .STERADIAN. ) SOLID_ANGLE_UNIT ( ) );
#282 = VECTOR ( 'NONE', #1045, 1000.000000000000000 ) ;
#283 = DIRECTION ( 'NONE',  ( 0.0000000000000000000, 0.0000000000000000000, 1.000000000000000000 ) ) ;
#284 = LINE ( 'NONE', #1055, #282 ) ;
#285 = CARTESIAN_POINT ( 'NONE',  ( 5.617157287525380100, 0.0000000000000000000, 0.0000000000000000000 ) ) ;
#286 = CIRCLE ( 'NONE', #836, 0.4000000000000001900 ) ;
#287 = DIRECTION ( 'NONE',  ( -1.000000000000000000, 0.0000000000000000000, -0.0000000000000000000 ) ) ;
#288 = CIRCLE ( 'NONE', #831, 5.000000000000000000 ) ;
#289 = CIRCLE ( 'NONE', #932, 5.000000000000000000 ) ;
#290 = CARTESIAN_POINT ( 'NONE',  ( -1.573951397329142400, 0.0000000000000000000, 0.0000000000000000000 ) ) ;
#291 = VECTOR ( 'NONE', #1046, 1000.000000000000000 ) ;
#292 = CIRCLE ( 'NONE', #832, 3.399999999999999900 ) ;
#293 = LINE ( 'NONE', #1023, #291 ) ;
#294 = PLANE ( 'NONE',  #742 ) ;
#295 = VECTOR ( 'NONE', #1021, 1000.000000000000100 ) ;
#296 = LINE ( 'NONE', #976, #295 ) ;
#297 = LINE ( 'NONE', #1048, #303 ) ;
#298 = VECTOR ( 'NONE', #840, 1000.000000000000000 ) ;
#299 = DIRECTION ( 'NONE',  ( -0.0000000000000000000, 0.0000000000000000000, 1.000000000000000000 ) ) ;
#300 = CIRCLE ( 'NONE', #953, 5.000000000000000000 ) ;
#301 = LINE ( 'NONE', #993, #298 ) ;
#302 = CIRCLE ( 'NONE', #826, 5.500000000000000000 ) ;
#303 = VECTOR ( 'NONE', #1029, 1000.000000000000000 ) ;
#304 = CIRCLE ( 'NONE', #825, 4.000000000000000000 ) ;
#305 = CIRCLE ( 'NONE', #824, 5.000000000000000000 ) ;
#306 = VECTOR ( 'NONE', #482, 1000.000000000000000 ) ;
#307 = DIRECTION ( 'NONE',  ( -1.000000000000000000, -0.0000000000000000000, -0.0000000000000000000 ) ) ;
#308 = CIRCLE ( 'NONE', #822, 5.500000000000000000 ) ;
#309 = ADVANCED_FACE ( 'NONE', ( #448, #446 ), #115, .F. ) ;
#310 = DIRECTION ( 'NONE',  ( 0.0000000000000000000, 0.0000000000000000000, 1.000000000000000000 ) ) ;
#311 = VECTOR ( 'NONE', #242, 1000.000000000000000 ) ;
#312 = CARTESIAN_POINT ( 'NONE',  ( 9.500000000000001800, 0.0000000000000000000, 0.0000000000000000000 ) ) ;
#313 = LINE ( 'NONE', #477, #306 ) ;
#314 = LINE ( 'NONE', #412, #311 ) ;
#315 = VECTOR ( 'NONE', #435, 1000.000000000000000 ) ;
#316 = CIRCLE ( 'NONE', #823, 3.399999999999999900 ) ;
#317 = VECTOR ( 'NONE', #428, 1000.000000000000000 ) ;
#318 = CARTESIAN_POINT ( 'NONE',  ( -1.573951397329142400, 0.0000000000000000000, 0.0000000000000000000 ) ) ;
#319 = CIRCLE ( 'NONE', #827, 4.000000000000000000 ) ;
#320 = VECTOR ( 'NONE', #376, 1000.000000000000000 ) ;
#321 = LINE ( 'NONE', #382, #317 ) ;
#322 = VECTOR ( 'NONE', #341, 1000.000000000000000 ) ;
#323 = LINE ( 'NONE', #348, #320 ) ;
#324 = DIRECTION ( 'NONE',  ( 0.0000000000000000000, 0.0000000000000000000, 1.000000000000000000 ) ) ;
#325 = VECTOR ( 'NONE', #235, 1000.000000000000000 ) ;
#326 = CONICAL_SURFACE ( 'NONE', #830, 4.000000000000000000, 0.7853981633974500600 ) ;
#327 = PRODUCT ( 'HB0', 'HB0', '', ( #872 ) ) ;
#328 = DIRECTION ( 'NONE',  ( 0.0000000000000000000, 0.0000000000000000000, 1.000000000000000000 ) ) ;
#329 = CIRCLE ( 'NONE', #821, 3.799999999999999800 ) ;
#330 = LINE ( 'NONE', #236, #315 ) ;
#331 = DIRECTION ( 'NONE',  ( -1.000000000000000000, -0.0000000000000000000, -0.0000000000000000000 ) ) ;
#332 = CIRCLE ( 'NONE', #820, 3.399999999999999900 ) ;
#333 = CYLINDRICAL_SURFACE ( 'NONE', #828, 3.399999999999999900 ) ;
#334 = LINE ( 'NONE', #271, #322 ) ;
#335 = CIRCLE ( 'NONE', #815, 3.517157287525381800 ) ;
#336 = FACE_OUTER_BOUND ( 'NONE', #888, .T. ) ;
#337 = FACE_OUTER_BOUND ( 'NONE', #771, .T. ) ;
#338 = DIRECTION ( 'NONE',  ( -1.000000000000000000, -0.0000000000000000000, -0.0000000000000000000 ) ) ;
#339 = FACE_OUTER_BOUND ( 'NONE', #688, .T. ) ;
#340 = FACE_OUTER_BOUND ( 'NONE', #638, .T. ) ;
#341 = DIRECTION ( 'NONE',  ( -1.000000000000000000, -0.0000000000000000000, -0.0000000000000000000 ) ) ;
#342 = TOROIDAL_SURFACE ( 'NONE', #816, 3.799999999999999800, 0.4000000000000000200 ) ;
#343 = FACE_BOUND ( 'NONE', #891, .T. ) ;
#344 = LINE ( 'NONE', #237, #325 ) ;
#345 = TOROIDAL_SURFACE ( 'NONE', #817, 3.799999999999999800, 0.4000000000000000200 ) ;
#346 = FACE_OUTER_BOUND ( 'NONE', #933, .T. ) ;
#347 = DIRECTION ( 'NONE',  ( -1.000000000000000000, -0.0000000000000000000, -0.0000000000000000000 ) ) ;
#348 = CARTESIAN_POINT ( 'NONE',  ( 10.00099999999999900, 1.154700538379251000, 1.999999999999997300 ) ) ;
#349 = SURFACE_STYLE_FILL_AREA ( #198 ) ;
#350 = CYLINDRICAL_SURFACE ( 'NONE', #806, 3.799999999999999800 ) ;
#351 = PRESENTATION_STYLE_ASSIGNMENT (( #204 ) ) ;
#352 = CYLINDRICAL_SURFACE ( 'NONE', #807, 5.000000000000000000 ) ;
#353 = FACE_OUTER_BOUND ( 'NONE', #725, .T. ) ;
#354 = COLOUR_RGB ( '',0.7764705882352941300, 0.7568627450980391900, 0.7372549019607843600 ) ;
#355 = FACE_OUTER_BOUND ( 'NONE', #724, .T. ) ;
#356 = FACE_OUTER_BOUND ( 'NONE', #893, .T. ) ;
#357 = TOROIDAL_SURFACE ( 'NONE', #808, 3.799999999999999800, 0.4000000000000000200 ) ;
#358 = VECTOR ( 'NONE', #147, 1000.000000000000000 ) ;
#359 = CIRCLE ( 'NONE', #804, 5.500000000000000000 ) ;
#360 = LINE ( 'NONE', #165, #358 ) ;
#361 = VECTOR ( 'NONE', #157, 1000.000000000000100 ) ;
#362 = CIRCLE ( 'NONE', #803, 4.000000000000000000 ) ;
#363 = CIRCLE ( 'NONE', #811, 5.000000000000000000 ) ;
#364 = CIRCLE ( 'NONE', #796, 5.000000000000000000 ) ;
#365 = CIRCLE ( 'NONE', #810, 3.499999999999999600 ) ;
#366 = CIRCLE ( 'NONE', #795, 5.000000000000000000 ) ;
#367 = CIRCLE ( 'NONE', #798, 3.799999999999999800 ) ;
#368 = LINE ( 'NONE', #161, #361 ) ;
#369 = VECTOR ( 'NONE', #124, 1000.000000000000000 ) ;
#370 = CIRCLE ( 'NONE', #791, 3.799999999999999800 ) ;
#371 = VECTOR ( 'NONE', #114, 1000.000000000000000 ) ;
#372 = CIRCLE ( 'NONE', #800, 3.799999999999999800 ) ;
#373 = LINE ( 'NONE', #119, #369 ) ;
#374 = LINE ( 'NONE', #120, #371 ) ;
#375 = VECTOR ( 'NONE', #110, 1000.000000000000000 ) ;
#376 = DIRECTION ( 'NONE',  ( -1.000000000000000000, -0.0000000000000000000, -0.0000000000000000000 ) ) ;
#377 = CIRCLE ( 'NONE', #801, 3.799999999999999800 ) ;
#378 = VECTOR ( 'NONE', #103, 1000.000000000000000 ) ;
#379 = LINE ( 'NONE', #109, #378 ) ;
#380 = LINE ( 'NONE', #125, #375 ) ;
#381 = CIRCLE ( 'NONE', #802, 0.4000000000000001900 ) ;
#382 = CARTESIAN_POINT ( 'NONE',  ( 9.500000000000001800, 0.0000000000000000000, 4.000000000000000000 ) ) ;
#383 = VECTOR ( 'NONE', #93, 1000.000000000000000 ) ;
#384 = CIRCLE ( 'NONE', #780, 5.500000000000000000 ) ;
#385 = LINE ( 'NONE', #83, #383 ) ;
#386 = CIRCLE ( 'NONE', #782, 3.399999999999999900 ) ;
#387 = CIRCLE ( 'NONE', #792, 3.799999999999999800 ) ;
#388 = ADVANCED_FACE ( 'NONE', ( #451 ), #443, .T. ) ;
#389 = UNCERTAINTY_MEASURE_WITH_UNIT (LENGTH_MEASURE( 1.000000000000000100E-005 ), #254, 'distance_accuracy_value', 'NONE');
#390 = VECTOR ( 'NONE', #81, 1000.000000000000000 ) ;
#391 = CIRCLE ( 'NONE', #783, 5.000000000000000000 ) ;
#392 = VECTOR ( 'NONE', #65, 1000.000000000000000 ) ;
#393 = CIRCLE ( 'NONE', #785, 0.4000000000000001900 ) ;
#394 = CIRCLE ( 'NONE', #777, 0.4000000000000001900 ) ;
#395 = ADVANCED_FACE ( 'NONE', ( #449 ), #195, .F. ) ;
#396 = VECTOR ( 'NONE', #48, 1000.000000000000200 ) ;
#397 = LINE ( 'NONE', #78, #390 ) ;
#398 = LINE ( 'NONE', #64, #392 ) ;
#399 = VECTOR ( 'NONE', #34, 1000.000000000000000 ) ;
#400 = CIRCLE ( 'NONE', #788, 4.000000000000000000 ) ;
#401 = VECTOR ( 'NONE', #47, 1000.000000000000000 ) ;
#402 = LINE ( 'NONE', #51, #396 ) ;
#403 = LINE ( 'NONE', #46, #399 ) ;
#404 = VECTOR ( 'NONE', #37, 1000.000000000000000 ) ;
#405 = LINE ( 'NONE', #39, #404 ) ;
#406 = LINE ( 'NONE', #45, #407 ) ;
#407 = VECTOR ( 'NONE', #38, 1000.000000000000000 ) ;
#408 = VECTOR ( 'NONE', #35, 1000.000000000000000 ) ;
#409 = ADVANCED_FACE ( 'NONE', ( #445 ), #437, .T. ) ;
#410 = LINE ( 'NONE', #40, #401 ) ;
#411 = VECTOR ( 'NONE', #32, 1000.000000000000000 ) ;
#412 = CARTESIAN_POINT ( 'NONE',  ( 0.0000000000000000000, 2.309401076758500700, -4.612521832883825100E-016 ) ) ;
#413 = LINE ( 'NONE', #31, #408 ) ;
#414 = VECTOR ( 'NONE', #24, 1000.000000000000000 ) ;
#415 = LINE ( 'NONE', #29, #418 ) ;
#416 = CONICAL_SURFACE ( 'NONE', #772, 1.999999999999998700, 1.029744258676653600 ) ;
#417 = CIRCLE ( 'NONE', #787, 3.499999999999999600 ) ;
#418 = VECTOR ( 'NONE', #26, 1000.000000000000100 ) ;
#419 = LINE ( 'NONE', #28, #414 ) ;
#420 = DIRECTION ( 'NONE',  ( 0.0000000000000000000, 0.4999999999999998900, -0.8660254037844386000 ) ) ;
#421 = LINE ( 'NONE', #30, #411 ) ;
#422 = CYLINDRICAL_SURFACE ( 'NONE', #779, 5.500000000000000000 ) ;
#423 = FACE_OUTER_BOUND ( 'NONE', #738, .T. ) ;
#424 = ADVANCED_FACE ( 'NONE', ( #450 ), #444, .T. ) ;
#425 = FACE_OUTER_BOUND ( 'NONE', #711, .T. ) ;
#426 = FACE_BOUND ( 'NONE', #799, .T. ) ;
#427 = CIRCLE ( 'NONE', #773, 3.517157287525381800 ) ;
#428 = DIRECTION ( 'NONE',  ( -0.7071067811865463500, 0.0000000000000000000, 0.7071067811865487900 ) ) ;
#429 = FACE_OUTER_BOUND ( 'NONE', #721, .T. ) ;
#430 = CARTESIAN_POINT ( 'NONE',  ( 6.099999999999996100, 0.0000000000000000000, 0.0000000000000000000 ) ) ;
#431 = COLOUR_RGB ( '',0.8784313725490196000, 1.000000000000000000, 0.9568627450980391500 ) ;
#432 = CYLINDRICAL_SURFACE ( 'NONE', #761, 3.799999999999999800 ) ;
#433 = PRESENTATION_STYLE_ASSIGNMENT (( #954 ) ) ;
#434 = FACE_OUTER_BOUND ( 'NONE', #660, .T. ) ;
#435 = DIRECTION ( 'NONE',  ( -1.000000000000000000, -0.0000000000000000000, -0.0000000000000000000 ) ) ;
#436 = FACE_OUTER_BOUND ( 'NONE', #654, .T. ) ;
#437 = CONICAL_SURFACE ( 'NONE', #756, 4.000000000000000000, 0.7853981633974516100 ) ;
#438 = FACE_OUTER_BOUND ( 'NONE', #784, .T. ) ;
#439 = SURFACE_STYLE_FILL_AREA ( #904 ) ;
#440 = DIRECTION ( 'NONE',  ( 0.0000000000000000000, 0.0000000000000000000, 1.000000000000000000 ) ) ;
#441 = FACE_OUTER_BOUND ( 'NONE', #739, .T. ) ;
#442 = FACE_BOUND ( 'NONE', #567, .T. ) ;
#443 = CYLINDRICAL_SURFACE ( 'NONE', #753, 5.500000000000000000 ) ;
#444 = CYLINDRICAL_SURFACE ( 'NONE', #760, 5.000000000000000000 ) ;
#445 = FACE_OUTER_BOUND ( 'NONE', #1000, .T. ) ;
#446 = FACE_BOUND ( 'NONE', #980, .T. ) ;
#447 = CONICAL_SURFACE ( 'NONE', #743, 1.999999999999998700, 1.029744258676653600 ) ;
#448 = FACE_OUTER_BOUND ( 'NONE', #889, .T. ) ;
#449 = FACE_OUTER_BOUND ( 'NONE', #572, .T. ) ;
#450 = FACE_OUTER_BOUND ( 'NONE', #709, .T. ) ;
#451 = FACE_OUTER_BOUND ( 'NONE', #563, .T. ) ;
#452 = FACE_OUTER_BOUND ( 'NONE', #639, .T. ) ;
#453 = FACE_OUTER_BOUND ( 'NONE', #663, .T. ) ;
#454 = CONICAL_SURFACE ( 'NONE', #740, 4.000000000000000000, 0.7853981633974500600 ) ;
#455 = FACE_OUTER_BOUND ( 'NONE', #551, .T. ) ;
#456 = CYLINDRICAL_SURFACE ( 'NONE', #749, 5.000000000000000000 ) ;
#457 = CARTESIAN_POINT ( 'NONE',  ( 4.000000000000000000, 0.0000000000000000000, 0.0000000000000000000 ) ) ;
#458 = FACE_OUTER_BOUND ( 'NONE', #634, .T. ) ;
#459 = DIRECTION ( 'NONE',  ( -1.000000000000000000, -0.0000000000000000000, -0.0000000000000000000 ) ) ;
#460 = CYLINDRICAL_SURFACE ( 'NONE', #745, 5.000000000000000000 ) ;
#461 = FACE_OUTER_BOUND ( 'NONE', #612, .T. ) ;
#462 = TOROIDAL_SURFACE ( 'NONE', #729, 3.799999999999999800, 0.4000000000000000200 ) ;
#463 = CYLINDRICAL_SURFACE ( 'NONE', #746, 4.000000000000000000 ) ;
#464 = CYLINDRICAL_SURFACE ( 'NONE', #744, 3.399999999999999900 ) ;
#465 = FACE_OUTER_BOUND ( 'NONE', #1049, .T. ) ;
#466 = FACE_OUTER_BOUND ( 'NONE', #1017, .T. ) ;
#467 = CARTESIAN_POINT ( 'NONE',  ( 5.334314575050760800, 0.0000000000000000000, 0.0000000000000000000 ) ) ;
#468 = FACE_OUTER_BOUND ( 'NONE', #994, .T. ) ;
#469 = DIRECTION ( 'NONE',  ( 0.0000000000000000000, 0.0000000000000000000, 1.000000000000000000 ) ) ;
#470 = ADVANCED_FACE ( 'NONE', ( #438 ), #959, .F. ) ;
#471 = ADVANCED_FACE ( 'NONE', ( #442, #434 ), #870, .F. ) ;
#472 = CONICAL_SURFACE ( 'NONE', #737, 4.000000000000000000, 0.7853981633974516100 ) ;
#473 = PRESENTATION_STYLE_ASSIGNMENT (( #274 ) ) ;
#474 = SURFACE_STYLE_FILL_AREA ( #277 ) ;
#475 = COLOUR_RGB ( '',0.7764705882352941300, 0.7568627450980391900, 0.7372549019607843600 ) ;
#476 = CYLINDRICAL_SURFACE ( 'NONE', #735, 4.000000000000000000 ) ;
#477 = CARTESIAN_POINT ( 'NONE',  ( -1.573951397329142400, 0.0000000000000000000, 4.000000000000000000 ) ) ;
#478 = FACE_OUTER_BOUND ( 'NONE', #894, .T. ) ;
#479 = FACE_OUTER_BOUND ( 'NONE', #713, .T. ) ;
#480 = FACE_OUTER_BOUND ( 'NONE', #585, .T. ) ;
#481 = ADVANCED_FACE ( 'NONE', ( #436 ), #432, .F. ) ;
#482 = DIRECTION ( 'NONE',  ( -1.000000000000000000, -0.0000000000000000000, -0.0000000000000000000 ) ) ;
#483 = COLOUR_RGB ( '',0.7764705882352941300, 0.7568627450980391900, 0.7372549019607843600 ) ;
#484 = FACE_OUTER_BOUND ( 'NONE', #1054, .T. ) ;
#485 = FACE_OUTER_BOUND ( 'NONE', #1019, .T. ) ;
#486 = ADVANCED_FACE ( 'NONE', ( #441 ), #903, .F. ) ;
#487 = DIRECTION ( 'NONE',  ( -1.000000000000000000, -0.0000000000000000000, -0.0000000000000000000 ) ) ;
#488 = PRESENTATION_STYLE_ASSIGNMENT (( #253 ) ) ;
#489 = SURFACE_STYLE_FILL_AREA ( #248 ) ;
#490 = FACE_BOUND ( 'NONE', #748, .T. ) ;
#491 = FACE_OUTER_BOUND ( 'NONE', #656, .T. ) ;
#492 = ORIENTED_EDGE ( 'NONE', *, *, #673, .T. ) ;
#493 = ORIENTED_EDGE ( 'NONE', *, *, #911, .T. ) ;
#494 = ORIENTED_EDGE ( 'NONE', *, *, #692, .T. ) ;
#495 = ORIENTED_EDGE ( 'NONE', *, *, #652, .T. ) ;
#496 = ORIENTED_EDGE ( 'NONE', *, *, #680, .T. ) ;
#497 = ORIENTED_EDGE ( 'NONE', *, *, #945, .T. ) ;
#498 = ORIENTED_EDGE ( 'NONE', *, *, #915, .T. ) ;
#499 = ORIENTED_EDGE ( 'NONE', *, *, #685, .F. ) ;
#500 = UNCERTAINTY_MEASURE_WITH_UNIT (LENGTH_MEASURE( 1.000000000000000100E-005 ), #201, 'distance_accuracy_value', 'NONE');
#501 = ORIENTED_EDGE ( 'NONE', *, *, #1013, .T. ) ;
#502 = ORIENTED_EDGE ( 'NONE', *, *, #706, .F. ) ;
#503 = ORIENTED_EDGE ( 'NONE', *, *, #921, .F. ) ;
#504 = ORIENTED_EDGE ( 'NONE', *, *, #681, .F. ) ;
#505 = ORIENTED_EDGE ( 'NONE', *, *, #922, .F. ) ;
#506 = CARTESIAN_POINT ( 'NONE',  ( 3.200000000000000200, 0.0000000000000000000, 5.000000000000000000 ) ) ;
#507 = ORIENTED_EDGE ( 'NONE', *, *, #708, .F. ) ;
#508 = CARTESIAN_POINT ( 'NONE',  ( 4.814093077491092400, -2.309401076758501100, -4.536615974342307600E-016 ) ) ;
#509 = ORIENTED_EDGE ( 'NONE', *, *, #914, .T. ) ;
#510 = ORIENTED_EDGE ( 'NONE', *, *, #712, .T. ) ;
#511 = ORIENTED_EDGE ( 'NONE', *, *, #680, .F. ) ;
#512 = CARTESIAN_POINT ( 'NONE',  ( 3.999999999999999100, 0.0000000000000000000, 0.0000000000000000000 ) ) ;
#513 = ORIENTED_EDGE ( 'NONE', *, *, #924, .T. ) ;
#514 = ORIENTED_EDGE ( 'NONE', *, *, #662, .T. ) ;
#515 = CARTESIAN_POINT ( 'NONE',  ( 4.927188794739420200, -2.121178195004136000, 0.3260115943455889600 ) ) ;
#516 = ORIENTED_EDGE ( 'NONE', *, *, #918, .T. ) ;
#517 = CARTESIAN_POINT ( 'NONE',  ( 10.00099999999999900, -2.309401076758501100, -6.141423107153985600E-016 ) ) ;
#518 = ORIENTED_EDGE ( 'NONE', *, *, #679, .F. ) ;
#519 = ORIENTED_EDGE ( 'NONE', *, *, #664, .T. ) ;
#520 = MANIFOLD_SOLID_BREP ( 'EOLASTIC Dichtung Vitan (9,9x6,5x1)', #896 ) ;
#521 = VERTEX_POINT ( 'NONE', #912 ) ;
#522 = DIRECTION ( 'NONE',  ( 0.0000000000000000000, 0.0000000000000000000, 1.000000000000000000 ) ) ;
#523 = VERTEX_POINT ( 'NONE', #936 ) ;
#524 = PRODUCT_DEFINITION_SHAPE ( 'NONE', 'NONE',  #951 ) ;
#525 = ORIENTED_EDGE ( 'NONE', *, *, #703, .F. ) ;
#526 = VERTEX_POINT ( 'NONE', #902 ) ;
#527 = ORIENTED_EDGE ( 'NONE', *, *, #1007, .F. ) ;
#528 = ORIENTED_EDGE ( 'NONE', *, *, #646, .T. ) ;
#529 = VERTEX_POINT ( 'NONE', #977 ) ;
#530 = ORIENTED_EDGE ( 'NONE', *, *, #702, .F. ) ;
#531 = CARTESIAN_POINT ( 'NONE',  ( 4.999696899736209200, -1.929937882507998900, 0.6572495320442463000 ) ) ;
#532 = ORIENTED_EDGE ( 'NONE', *, *, #1008, .T. ) ;
#533 = ORIENTED_EDGE ( 'NONE', *, *, #691, .T. ) ;
#534 = VERTEX_POINT ( 'NONE', #988 ) ;
#535 = ORIENTED_EDGE ( 'NONE', *, *, #661, .F. ) ;
#536 = ORIENTED_EDGE ( 'NONE', *, *, #1025, .F. ) ;
#537 = ORIENTED_EDGE ( 'NONE', *, *, #919, .T. ) ;
#538 = ORIENTED_EDGE ( 'NONE', *, *, #707, .T. ) ;
#539 = ORIENTED_EDGE ( 'NONE', *, *, #690, .F. ) ;
#540 = ORIENTED_EDGE ( 'NONE', *, *, #1030, .F. ) ;
#541 = ORIENTED_EDGE ( 'NONE', *, *, #916, .T. ) ;
#542 = CARTESIAN_POINT ( 'NONE',  ( 4.000000000000000000, 0.0000000000000000000, 0.0000000000000000000 ) ) ;
#543 = ORIENTED_EDGE ( 'NONE', *, *, #673, .F. ) ;
#544 = ORIENTED_EDGE ( 'NONE', *, *, #1012, .F. ) ;
#545 = EDGE_CURVE ( 'NONE', #986, #633, #427, .T. ) ;
#546 = DIRECTION ( 'NONE',  ( -1.000000000000000000, -0.0000000000000000000, -0.0000000000000000000 ) ) ;
#547 = ORIENTED_EDGE ( 'NONE', *, *, #929, .F. ) ;
#548 = ORIENTED_EDGE ( 'NONE', *, *, #666, .F. ) ;
#549 = CARTESIAN_POINT ( 'NONE',  ( 5.000150076440002400, -1.635025330132356100, 1.168053056548679700 ) ) ;
#550 = ORIENTED_EDGE ( 'NONE', *, *, #919, .F. ) ;
#551 = EDGE_LOOP ( 'NONE', ( #548, #539, #582, #544 ) ) ;
#552 = B_SPLINE_CURVE_WITH_KNOTS ( 'NONE', 3,
 ( #55, #49, #57, #58, #56, #61, #62, #63 ),
 .UNSPECIFIED., .F., .F.,
 ( 4, 2, 2, 4 ),
 ( 2.386335897417255900E-007, 0.001167194647185765600, 0.001750672653983777500, 0.002334150660781789600 ),
 .UNSPECIFIED. ) ;
#553 = VERTEX_POINT ( 'NONE', #1002 ) ;
#554 = CARTESIAN_POINT ( 'NONE',  ( 4.982351060012675200, -1.536747091613498700, 1.338275958941713000 ) ) ;
#555 = ORIENTED_EDGE ( 'NONE', *, *, #996, .F. ) ;
#556 = ADVANCED_FACE ( 'NONE', ( #425, #426 ), #981, .T. ) ;
#557 = ORIENTED_EDGE ( 'NONE', *, *, #671, .F. ) ;
#558 = ORIENTED_EDGE ( 'NONE', *, *, #926, .F. ) ;
#559 = VERTEX_POINT ( 'NONE', #1 ) ;
#560 = CARTESIAN_POINT ( 'NONE',  ( 3.600000000000001000, 0.0000000000000000000, 0.0000000000000000000 ) ) ;
#561 = CARTESIAN_POINT ( 'NONE',  ( 4.917516111939717000, -1.344052718542628300, 1.672032403433093100 ) ) ;
#562 = B_SPLINE_CURVE_WITH_KNOTS ( 'NONE', 3,
 ( #508, #515, #531, #549, #554, #561, #571, #577 ),
 .UNSPECIFIED., .F., .F.,
 ( 4, 2, 2, 4 ),
 ( 2.386335897420186100E-007, 0.001167194647185765800, 0.001750672653983777700, 0.002334150660781789600 ),
 .UNSPECIFIED. ) ;
#563 = EDGE_LOOP ( 'NONE', ( #499, #496, #528, #507 ) ) ;
#564 = ORIENTED_EDGE ( 'NONE', *, *, #1007, .T. ) ;
#565 = ORIENTED_EDGE ( 'NONE', *, *, #926, .T. ) ;
#566 = ORIENTED_EDGE ( 'NONE', *, *, #668, .F. ) ;
#567 = EDGE_LOOP ( 'NONE', ( #566, #578, #892, #505, #643, #527 ) ) ;
#568 = ORIENTED_EDGE ( 'NONE', *, *, #698, .T. ) ;
#569 = DIRECTION ( 'NONE',  ( -1.000000000000000000, 0.0000000000000000000, -0.0000000000000000000 ) ) ;
#570 = VERTEX_POINT ( 'NONE', #997 ) ;
#571 = CARTESIAN_POINT ( 'NONE',  ( 4.870724187307231100, -1.248950532507175900, 1.836754221557363800 ) ) ;
#572 = EDGE_LOOP ( 'NONE', ( #519, #631, #648, #541 ) ) ;
#573 = CARTESIAN_POINT ( 'NONE',  ( 10.00099999999999900, -1.154700538379251200, 1.999999999999997300 ) ) ;
#574 = PLANE ( 'NONE',  #704 ) ;
#575 = VERTEX_POINT ( 'NONE', #3 ) ;
#576 = VERTEX_POINT ( 'NONE', #4 ) ;
#577 = CARTESIAN_POINT ( 'NONE',  ( 4.814093077491092400, -1.154700538379251700, 1.999999999999997300 ) ) ;
#578 = ORIENTED_EDGE ( 'NONE', *, *, #664, .F. ) ;
#579 = ADVANCED_FACE ( 'NONE', ( #429 ), #416, .F. ) ;
#580 = ORIENTED_EDGE ( 'NONE', *, *, #655, .T. ) ;
#581 = ORIENTED_EDGE ( 'NONE', *, *, #1003, .T. ) ;
#582 = ORIENTED_EDGE ( 'NONE', *, *, #1030, .T. ) ;
#583 = PRODUCT ( 'HB0', 'HB0', '', ( #861 ) ) ;
#584 = ORIENTED_EDGE ( 'NONE', *, *, #655, .F. ) ;
#585 = EDGE_LOOP ( 'NONE', ( #535, #510, #513, #765 ) ) ;
#586 = ORIENTED_EDGE ( 'NONE', *, *, #545, .F. ) ;
#587 = VERTEX_POINT ( 'NONE', #7 ) ;
#588 = ORIENTED_EDGE ( 'NONE', *, *, #930, .F. ) ;
#589 = ORIENTED_EDGE ( 'NONE', *, *, #922, .T. ) ;
#590 = VERTEX_POINT ( 'NONE', #11 ) ;
#591 = ORIENTED_EDGE ( 'NONE', *, *, #948, .F. ) ;
#592 = ORIENTED_EDGE ( 'NONE', *, *, #687, .T. ) ;
#593 = ORIENTED_EDGE ( 'NONE', *, *, #677, .F. ) ;
#594 = VERTEX_POINT ( 'NONE', #9 ) ;
#595 = ORIENTED_EDGE ( 'NONE', *, *, #658, .T. ) ;
#596 = VERTEX_POINT ( 'NONE', #10 ) ;
#597 = ORIENTED_EDGE ( 'NONE', *, *, #665, .T. ) ;
#598 = ORIENTED_EDGE ( 'NONE', *, *, #545, .T. ) ;
#599 = ORIENTED_EDGE ( 'NONE', *, *, #650, .F. ) ;
#600 = ORIENTED_EDGE ( 'NONE', *, *, #910, .F. ) ;
#601 = ADVANCED_FACE ( 'NONE', ( #423 ), #422, .T. ) ;
#602 = ORIENTED_EDGE ( 'NONE', *, *, #938, .F. ) ;
#603 = ORIENTED_EDGE ( 'NONE', *, *, #644, .T. ) ;
#604 = ORIENTED_EDGE ( 'NONE', *, *, #666, .T. ) ;
#605 = ORIENTED_EDGE ( 'NONE', *, *, #914, .F. ) ;
#606 = VERTEX_POINT ( 'NONE', #16 ) ;
#607 = ORIENTED_EDGE ( 'NONE', *, *, #703, .T. ) ;
#608 = ORIENTED_EDGE ( 'NONE', *, *, #917, .F. ) ;
#609 = CARTESIAN_POINT ( 'NONE',  ( 9.500000000000001800, 0.0000000000000000000, 0.0000000000000000000 ) ) ;
#610 = ORIENTED_EDGE ( 'NONE', *, *, #661, .T. ) ;
#611 = ORIENTED_EDGE ( 'NONE', *, *, #698, .F. ) ;
#612 = EDGE_LOOP ( 'NONE', ( #774, #509, #494, #899 ) ) ;
#613 = VERTEX_POINT ( 'NONE', #20 ) ;
#614 = ORIENTED_EDGE ( 'NONE', *, *, #924, .F. ) ;
#615 = ORIENTED_EDGE ( 'NONE', *, *, #1025, .T. ) ;
#616 = ORIENTED_EDGE ( 'NONE', *, *, #699, .T. ) ;
#617 = VERTEX_POINT ( 'NONE', #8 ) ;
#618 = ORIENTED_EDGE ( 'NONE', *, *, #881, .T. ) ;
#619 = ORIENTED_EDGE ( 'NONE', *, *, #937, .F. ) ;
#620 = VERTEX_POINT ( 'NONE', #6 ) ;
#621 = VERTEX_POINT ( 'NONE', #21 ) ;
#622 = ORIENTED_EDGE ( 'NONE', *, *, #916, .F. ) ;
#623 = VERTEX_POINT ( 'NONE', #17 ) ;
#624 = VERTEX_POINT ( 'NONE', #18 ) ;
#625 = VERTEX_POINT ( 'NONE', #19 ) ;
#626 = DIRECTION ( 'NONE',  ( -1.000000000000000000, -0.0000000000000000000, -0.0000000000000000000 ) ) ;
#627 = ORIENTED_EDGE ( 'NONE', *, *, #692, .F. ) ;
#628 = ORIENTED_EDGE ( 'NONE', *, *, #685, .T. ) ;
#629 = VERTEX_POINT ( 'NONE', #23 ) ;
#630 = ORIENTED_EDGE ( 'NONE', *, *, #881, .F. ) ;
#631 = ORIENTED_EDGE ( 'NONE', *, *, #707, .F. ) ;
#632 = ORIENTED_EDGE ( 'NONE', *, *, #985, .F. ) ;
#633 = VERTEX_POINT ( 'NONE', #22 ) ;
#634 = EDGE_LOOP ( 'NONE', ( #886, #615, #647, #767 ) ) ;
#635 = ORIENTED_EDGE ( 'NONE', *, *, #689, .T. ) ;
#636 = ORIENTED_EDGE ( 'NONE', *, *, #925, .F. ) ;
#637 = VERTEX_POINT ( 'NONE', #25 ) ;
#638 = EDGE_LOOP ( 'NONE', ( #990, #604, #593, #540 ) ) ;
#639 = EDGE_LOOP ( 'NONE', ( #642, #584, #558, #538 ) ) ;
#640 = ORIENTED_EDGE ( 'NONE', *, *, #682, .F. ) ;
#641 = VERTEX_POINT ( 'NONE', #27 ) ;
#642 = ORIENTED_EDGE ( 'NONE', *, *, #668, .T. ) ;
#643 = ORIENTED_EDGE ( 'NONE', *, *, #644, .F. ) ;
#644 = EDGE_CURVE ( 'NONE', #594, #727, #415, .T. ) ;
#645 = ORIENTED_EDGE ( 'NONE', *, *, #681, .T. ) ;
#646 = EDGE_CURVE ( 'NONE', #697, #521, #419, .T. ) ;
#647 = ORIENTED_EDGE ( 'NONE', *, *, #930, .T. ) ;
#648 = ORIENTED_EDGE ( 'NONE', *, *, #665, .F. ) ;
#649 = EDGE_CURVE ( 'NONE', #789, #617, #421, .T. ) ;
#650 = EDGE_CURVE ( 'NONE', #733, #534, #413, .T. ) ;
#651 = VERTEX_POINT ( 'NONE', #36 ) ;
#652 = EDGE_CURVE ( 'NONE', #1001, #624, #417, .T. ) ;
#653 = VERTEX_POINT ( 'NONE', #33 ) ;
#654 = EDGE_LOOP ( 'NONE', ( #635, #581, #793, #599 ) ) ;
#655 = EDGE_CURVE ( 'NONE', #637, #620, #405, .T. ) ;
#656 = EDGE_LOOP ( 'NONE', ( #564, #608, #640, #630, #580 ) ) ;
#657 = EDGE_CURVE ( 'NONE', #1001, #754, #406, .T. ) ;
#658 = EDGE_CURVE ( 'NONE', #1020, #727, #410, .T. ) ;
#659 = ORIENTED_EDGE ( 'NONE', *, *, #646, .F. ) ;
#660 = EDGE_LOOP ( 'NONE', ( #790, #730 ) ) ;
#661 = EDGE_CURVE ( 'NONE', #754, #718, #403, .T. ) ;
#662 = EDGE_CURVE ( 'NONE', #718, #613, #400, .T. ) ;
#663 = EDGE_LOOP ( 'NONE', ( #1018, #1014, #1039, #1032, #683, #1043 ) ) ;
#664 = EDGE_CURVE ( 'NONE', #621, #587, #402, .T. ) ;
#665 = EDGE_CURVE ( 'NONE', #523, #719, #552, .T. ) ;
#666 = EDGE_CURVE ( 'NONE', #575, #617, #394, .T. ) ;
#667 = ORIENTED_EDGE ( 'NONE', *, *, #1003, .F. ) ;
#668 = EDGE_CURVE ( 'NONE', #587, #620, #398, .T. ) ;
#669 = ORIENTED_EDGE ( 'NONE', *, *, #985, .T. ) ;
#670 = VERTEX_POINT ( 'NONE', #70 ) ;
#671 = EDGE_CURVE ( 'NONE', #651, #523, #838, .T. ) ;
#672 = EDGE_CURVE ( 'NONE', #606, #651, #397, .T. ) ;
#673 = EDGE_CURVE ( 'NONE', #596, #633, #393, .T. ) ;
#674 = ORIENTED_EDGE ( 'NONE', *, *, #695, .T. ) ;
#675 = EDGE_CURVE ( 'NONE', #676, #641, #391, .T. ) ;
#676 = VERTEX_POINT ( 'NONE', #84 ) ;
#677 = EDGE_CURVE ( 'NONE', #696, #617, #386, .T. ) ;
#678 = ORIENTED_EDGE ( 'NONE', *, *, #694, .T. ) ;
#679 = EDGE_CURVE ( 'NONE', #998, #1022, #385, .T. ) ;
#680 = EDGE_CURVE ( 'NONE', #529, #697, #384, .T. ) ;
#681 = EDGE_CURVE ( 'NONE', #789, #986, #381, .T. ) ;
#682 = EDGE_CURVE ( 'NONE', #1037, #553, #972, .T. ) ;
#683 = ORIENTED_EDGE ( 'NONE', *, *, #948, .T. ) ;
#684 = ORIENTED_EDGE ( 'NONE', *, *, #702, .T. ) ;
#685 = EDGE_CURVE ( 'NONE', #529, #559, #379, .T. ) ;
#686 = ORIENTED_EDGE ( 'NONE', *, *, #679, .T. ) ;
#687 = EDGE_CURVE ( 'NONE', #629, #621, #380, .T. ) ;
#688 = EDGE_LOOP ( 'NONE', ( #992, #880, #1041, #627 ) ) ;
#689 = EDGE_CURVE ( 'NONE', #733, #570, #377, .T. ) ;
#690 = EDGE_CURVE ( 'NONE', #590, #575, #387, .T. ) ;
#691 = EDGE_CURVE ( 'NONE', #576, #526, #374, .T. ) ;
#692 = EDGE_CURVE ( 'NONE', #596, #696, #373, .T. ) ;
#693 = EDGE_CURVE ( 'NONE', #623, #534, #370, .T. ) ;
#694 = EDGE_CURVE ( 'NONE', #534, #623, #372, .T. ) ;
#695 = EDGE_CURVE ( 'NONE', #570, #733, #367, .T. ) ;
#696 = VERTEX_POINT ( 'NONE', #126 ) ;
#697 = VERTEX_POINT ( 'NONE', #136 ) ;
#698 = EDGE_CURVE ( 'NONE', #576, #998, #364, .T. ) ;
#699 = EDGE_CURVE ( 'NONE', #1022, #526, #366, .T. ) ;
#700 = EDGE_CURVE ( 'NONE', #553, #1020, #170, .T. ) ;
#701 = ORIENTED_EDGE ( 'NONE', *, *, #652, .F. ) ;
#702 = EDGE_CURVE ( 'NONE', #890, #625, #363, .T. ) ;
#703 = EDGE_CURVE ( 'NONE', #633, #613, #368, .T. ) ;
#704 = AXIS2_PLACEMENT_3D ( 'NONE', #573, #855, #857 ) ;
#705 = ORIENTED_EDGE ( 'NONE', *, *, #929, .T. ) ;
#706 = EDGE_CURVE ( 'NONE', #624, #1001, #365, .T. ) ;
#707 = EDGE_CURVE ( 'NONE', #719, #587, #360, .T. ) ;
#708 = EDGE_CURVE ( 'NONE', #559, #521, #359, .T. ) ;
#709 = EDGE_LOOP ( 'NONE', ( #797, #710, #686, #616 ) ) ;
#710 = ORIENTED_EDGE ( 'NONE', *, *, #945, .F. ) ;
#711 = EDGE_LOOP ( 'NONE', ( #497, #568 ) ) ;
#712 = EDGE_CURVE ( 'NONE', #754, #653, #362, .T. ) ;
#713 = EDGE_LOOP ( 'NONE', ( #525, #786, #669, #514 ) ) ;
#714 = ADVANCED_FACE ( 'NONE', ( #356 ), #352, .T. ) ;
#715 = AXIS2_PLACEMENT_3D ( 'NONE', #849, #569, #244 ) ;
#716 = ORIENTED_EDGE ( 'NONE', *, *, #706, .T. ) ;
#717 = STYLED_ITEM ( 'NONE', ( #488 ), #60 ) ;
#718 = VERTEX_POINT ( 'NONE', #187 ) ;
#719 = VERTEX_POINT ( 'NONE', #232 ) ;
#720 =( GEOMETRIC_REPRESENTATION_CONTEXT ( 3 ) GLOBAL_UNCERTAINTY_ASSIGNED_CONTEXT ( ( #389 ) ) GLOBAL_UNIT_ASSIGNED_CONTEXT ( ( #254, #255, #257 ) ) REPRESENTATION_CONTEXT ( 'NONE', 'WORKASPACE' ) );
#721 = EDGE_LOOP ( 'NONE', ( #999, #1004, #879, #597, #565, #618 ) ) ;
#722 = MECHANICAL_DESIGN_GEOMETRIC_PRESENTATION_REPRESENTATION (  '', ( #717 ), #720 ) ;
#723 = PRESENTATION_LAYER_ASSIGNMENT (  '', '', ( #717 ) ) ;
#724 = EDGE_LOOP ( 'NONE', ( #605, #645, #600, #543 ) ) ;
#725 = EDGE_LOOP ( 'NONE', ( #667, #674, #1051, #794 ) ) ;
#726 = AXIS2_PLACEMENT_3D ( 'NONE', #261, #268, #269 ) ;
#727 = VERTEX_POINT ( 'NONE', #229 ) ;
#728 = STYLED_ITEM ( 'NONE', ( #473 ), #74 ) ;
#729 = AXIS2_PLACEMENT_3D ( 'NONE', #560, #347, #249 ) ;
#730 = ORIENTED_EDGE ( 'NONE', *, *, #708, .T. ) ;
#731 =( GEOMETRIC_REPRESENTATION_CONTEXT ( 3 ) GLOBAL_UNCERTAINTY_ASSIGNED_CONTEXT ( ( #210 ) ) GLOBAL_UNIT_ASSIGNED_CONTEXT ( ( #278, #279, #281 ) ) REPRESENTATION_CONTEXT ( 'NONE', 'WORKASPACE' ) );
#732 = MECHANICAL_DESIGN_GEOMETRIC_PRESENTATION_REPRESENTATION (  '', ( #728 ), #731 ) ;
#733 = VERTEX_POINT ( 'NONE', #166 ) ;
#734 = PRESENTATION_LAYER_ASSIGNMENT (  '', '', ( #728 ) ) ;
#735 = AXIS2_PLACEMENT_3D ( 'NONE', #245, #546, #260 ) ;
#736 = ORIENTED_EDGE ( 'NONE', *, *, #657, .T. ) ;
#737 = AXIS2_PLACEMENT_3D ( 'NONE', #262, #264, #247 ) ;
#738 = EDGE_LOOP ( 'NONE', ( #882, #628, #602, #659 ) ) ;
#739 = EDGE_LOOP ( 'NONE', ( #589, #550, #591, #595 ) ) ;
#740 = AXIS2_PLACEMENT_3D ( 'NONE', #312, #307, #310 ) ;
#741 = ORIENTED_EDGE ( 'NONE', *, *, #675, .T. ) ;
#742 = AXIS2_PLACEMENT_3D ( 'NONE', #272, #287, #299 ) ;
#743 = AXIS2_PLACEMENT_3D ( 'NONE', #79, #250, #252 ) ;
#744 = AXIS2_PLACEMENT_3D ( 'NONE', #318, #338, #324 ) ;
#745 = AXIS2_PLACEMENT_3D ( 'NONE', #290, #884, #971 ) ;
#746 = AXIS2_PLACEMENT_3D ( 'NONE', #266, #265, #283 ) ;
#747 = ADVANCED_FACE ( 'NONE', ( #353 ), #350, .F. ) ;
#748 = EDGE_LOOP ( 'NONE', ( #900, #493 ) ) ;
#749 = AXIS2_PLACEMENT_3D ( 'NONE', #82, #138, #80 ) ;
#750 = ORIENTED_EDGE ( 'NONE', *, *, #699, .F. ) ;
#751 = AXIS2_PLACEMENT_3D ( 'NONE', #159, #203, #420 ) ;
#752 = ORIENTED_EDGE ( 'NONE', *, *, #712, .F. ) ;
#753 = AXIS2_PLACEMENT_3D ( 'NONE', #151, #113, #148 ) ;
#754 = VERTEX_POINT ( 'NONE', #186 ) ;
#755 = AXIS2_PLACEMENT_3D ( 'NONE', #112, #111, #150 ) ;
#756 = AXIS2_PLACEMENT_3D ( 'NONE', #430, #192, #196 ) ;
#757 = AXIS2_PLACEMENT_3D ( 'NONE', #517, #246, #77 ) ;
#758 = AXIS2_PLACEMENT_3D ( 'NONE', #863, #984, #966 ) ;
#759 = ORIENTED_EDGE ( 'NONE', *, *, #937, .T. ) ;
#760 = AXIS2_PLACEMENT_3D ( 'NONE', #457, #858, #440 ) ;
#761 = AXIS2_PLACEMENT_3D ( 'NONE', #878, #860, #871 ) ;
#762 = AXIS2_PLACEMENT_3D ( 'NONE', #907, #987, #877 ) ;
#763 = STYLED_ITEM ( 'NONE', ( #433 ), #520 ) ;
#764 = UNCERTAINTY_MEASURE_WITH_UNIT (LENGTH_MEASURE( 1.000000000000000100E-005 ), #970, 'distance_accuracy_value', 'NONE');
#765 = ORIENTED_EDGE ( 'NONE', *, *, #662, .F. ) ;
#766 = ADVANCED_FACE ( 'NONE', ( #355 ), #357, .F. ) ;
#767 = ORIENTED_EDGE ( 'NONE', *, *, #915, .F. ) ;
#768 =( GEOMETRIC_REPRESENTATION_CONTEXT ( 3 ) GLOBAL_UNCERTAINTY_ASSIGNED_CONTEXT ( ( #1047 ) ) GLOBAL_UNIT_ASSIGNED_CONTEXT ( ( #957, #962, #964 ) ) REPRESENTATION_CONTEXT ( 'NONE', 'WORKASPACE' ) );
#769 = MECHANICAL_DESIGN_GEOMETRIC_PRESENTATION_REPRESENTATION (  '', ( #763 ), #768 ) ;
#770 = AXIS2_PLACEMENT_3D ( 'NONE', #542, #968, #1033 ) ;
#771 = EDGE_LOOP ( 'NONE', ( #750, #901 ) ) ;
#772 = AXIS2_PLACEMENT_3D ( 'NONE', #2, #1044, #5 ) ;
#773 = AXIS2_PLACEMENT_3D ( 'NONE', #1006, #1011, #1026 ) ;
#774 = ORIENTED_EDGE ( 'NONE', *, *, #649, .F. ) ;
#775 = PRESENTATION_LAYER_ASSIGNMENT (  '', '', ( #763 ) ) ;
#776 = AXIS2_PLACEMENT_3D ( 'NONE', #883, #906, #908 ) ;
#777 = AXIS2_PLACEMENT_3D ( 'NONE', #59, #67, #68 ) ;
#778 = ORIENTED_EDGE ( 'NONE', *, *, #675, .F. ) ;
#779 = AXIS2_PLACEMENT_3D ( 'NONE', #15, #14, #13 ) ;
#780 = AXIS2_PLACEMENT_3D ( 'NONE', #99, #100, #101 ) ;
#781 = ORIENTED_EDGE ( 'NONE', *, *, #695, .F. ) ;
#782 = AXIS2_PLACEMENT_3D ( 'NONE', #94, #96, #95 ) ;
#783 = AXIS2_PLACEMENT_3D ( 'NONE', #90, #91, #92 ) ;
#784 = EDGE_LOOP ( 'NONE', ( #603, #895, #1009, #1015 ) ) ;
#785 = AXIS2_PLACEMENT_3D ( 'NONE', #85, #86, #88 ) ;
#786 = ORIENTED_EDGE ( 'NONE', *, *, #910, .T. ) ;
#787 = AXIS2_PLACEMENT_3D ( 'NONE', #41, #42, #44 ) ;
#788 = AXIS2_PLACEMENT_3D ( 'NONE', #52, #53, #54 ) ;
#789 = VERTEX_POINT ( 'NONE', #224 ) ;
#790 = ORIENTED_EDGE ( 'NONE', *, *, #938, .T. ) ;
#791 = AXIS2_PLACEMENT_3D ( 'NONE', #127, #129, #130 ) ;
#792 = AXIS2_PLACEMENT_3D ( 'NONE', #121, #122, #123 ) ;
#793 = ORIENTED_EDGE ( 'NONE', *, *, #694, .F. ) ;
#794 = ORIENTED_EDGE ( 'NONE', *, *, #693, .F. ) ;
#795 = AXIS2_PLACEMENT_3D ( 'NONE', #144, #145, #146 ) ;
#796 = AXIS2_PLACEMENT_3D ( 'NONE', #175, #172, #142 ) ;
#797 = ORIENTED_EDGE ( 'NONE', *, *, #691, .F. ) ;
#798 = AXIS2_PLACEMENT_3D ( 'NONE', #137, #131, #140 ) ;
#799 = EDGE_LOOP ( 'NONE', ( #897, #781 ) ) ;
#800 = AXIS2_PLACEMENT_3D ( 'NONE', #133, #134, #135 ) ;
#801 = AXIS2_PLACEMENT_3D ( 'NONE', #116, #117, #118 ) ;
#802 = AXIS2_PLACEMENT_3D ( 'NONE', #106, #132, #128 ) ;
#803 = AXIS2_PLACEMENT_3D ( 'NONE', #181, #183, #184 ) ;
#804 = AXIS2_PLACEMENT_3D ( 'NONE', #177, #176, #178 ) ;
#805 = MANIFOLD_SOLID_BREP ( 'Metallkörper', #898 ) ;
#806 = AXIS2_PLACEMENT_3D ( 'NONE', #185, #215, #220 ) ;
#807 = AXIS2_PLACEMENT_3D ( 'NONE', #179, #167, #180 ) ;
#808 = AXIS2_PLACEMENT_3D ( 'NONE', #188, #189, #190 ) ;
#809 = STYLED_ITEM ( 'NONE', ( #351 ), #805 ) ;
#810 = AXIS2_PLACEMENT_3D ( 'NONE', #168, #173, #174 ) ;
#811 = AXIS2_PLACEMENT_3D ( 'NONE', #162, #163, #164 ) ;
#812 =( GEOMETRIC_REPRESENTATION_CONTEXT ( 3 ) GLOBAL_UNCERTAINTY_ASSIGNED_CONTEXT ( ( #500 ) ) GLOBAL_UNIT_ASSIGNED_CONTEXT ( ( #201, #205, #206 ) ) REPRESENTATION_CONTEXT ( 'NONE', 'WORKASPACE' ) );
#813 = AXIS2_PLACEMENT_3D ( 'NONE', #211, #213, #217 ) ;
#814 = ADVANCED_FACE ( 'NONE', ( #346 ), #345, .F. ) ;
#815 = AXIS2_PLACEMENT_3D ( 'NONE', #285, #234, #233 ) ;
#816 = AXIS2_PLACEMENT_3D ( 'NONE', #209, #194, #214 ) ;
#817 = AXIS2_PLACEMENT_3D ( 'NONE', #193, #197, #207 ) ;
#818 = MECHANICAL_DESIGN_GEOMETRIC_PRESENTATION_REPRESENTATION (  '', ( #809 ), #812 ) ;
#819 = PRESENTATION_LAYER_ASSIGNMENT (  '', '', ( #809 ) ) ;
#820 = AXIS2_PLACEMENT_3D ( 'NONE', #829, #331, #328 ) ;
#821 = AXIS2_PLACEMENT_3D ( 'NONE', #239, #240, #241 ) ;
#822 = AXIS2_PLACEMENT_3D ( 'NONE', #512, #487, #522 ) ;
#823 = AXIS2_PLACEMENT_3D ( 'NONE', #467, #459, #469 ) ;
#824 = AXIS2_PLACEMENT_3D ( 'NONE', #1058, #1042, #1034 ) ;
#825 = AXIS2_PLACEMENT_3D ( 'NONE', #609, #626, #834 ) ;
#826 = AXIS2_PLACEMENT_3D ( 'NONE', #851, #853, #865 ) ;
#827 = AXIS2_PLACEMENT_3D ( 'NONE', #843, #845, #848 ) ;
#828 = AXIS2_PLACEMENT_3D ( 'NONE', #216, #208, #212 ) ;
#829 = CARTESIAN_POINT ( 'NONE',  ( 5.334314575050760800, 0.0000000000000000000, 0.0000000000000000000 ) ) ;
#830 = AXIS2_PLACEMENT_3D ( 'NONE', #218, #222, #219 ) ;
#831 = AXIS2_PLACEMENT_3D ( 'NONE', #909, #995, #905 ) ;
#832 = AXIS2_PLACEMENT_3D ( 'NONE', #859, #974, #276 ) ;
#833 = ADVANCED_FACE ( 'NONE', ( #340 ), #342, .F. ) ;
#834 = DIRECTION ( 'NONE',  ( 0.0000000000000000000, 0.0000000000000000000, 1.000000000000000000 ) ) ;
#835 =( GEOMETRIC_REPRESENTATION_CONTEXT ( 3 ) GLOBAL_UNCERTAINTY_ASSIGNED_CONTEXT ( ( #764 ) ) GLOBAL_UNIT_ASSIGNED_CONTEXT ( ( #970, #983, #43 ) ) REPRESENTATION_CONTEXT ( 'NONE', 'WORKASPACE' ) );
#836 = AXIS2_PLACEMENT_3D ( 'NONE', #913, #876, #989 ) ;
#837 = PRODUCT_RELATED_PRODUCT_CATEGORY ( 'part', '', ( #327 ) ) ;
#838 = B_SPLINE_CURVE_WITH_KNOTS ( 'NONE', 3,
 ( #72, #73, #69, #139, #75, #76 ),
 .UNSPECIFIED., .F., .F.,
 ( 4, 2, 4 ),
 ( 0.009459384118810388100, 0.01004479872205501000, 0.01063021332529963000 ),
 .UNSPECIFIED. ) ;
#839 = PRODUCT_DEFINITION_FORMATION_WITH_SPECIFIED_SOURCE ( 'ANY', '', #327, .NOT_KNOWN. ) ;
#840 = DIRECTION ( 'NONE',  ( -0.5150380749100549300, 0.0000000000000000000, 0.8571673007021118900 ) ) ;
#841 = SURFACE_SIDE_STYLE ('',( #474 ) ) ;
#842 = PLANE ( 'NONE',  #715 ) ;
#843 = CARTESIAN_POINT ( 'NONE',  ( 6.099999999999996100, 0.0000000000000000000, 0.0000000000000000000 ) ) ;
#844 = B_SPLINE_CURVE_WITH_KNOTS ( 'NONE', 3,
 ( #939, #946, #958, #963, #967, #965, #969, #973 ),
 .UNSPECIFIED., .F., .F.,
 ( 4, 2, 2, 4 ),
 ( 2.386335897419775800E-007, 0.001167194647185765100, 0.001750672653983776800, 0.002334150660781788800 ),
 .UNSPECIFIED. ) ;
#845 = DIRECTION ( 'NONE',  ( -1.000000000000000000, -0.0000000000000000000, -0.0000000000000000000 ) ) ;
#846 = ADVANCED_FACE ( 'NONE', ( #337, #343 ), #200, .F. ) ;
#847 = ADVANCED_FACE ( 'NONE', ( #339 ), #333, .T. ) ;
#848 = DIRECTION ( 'NONE',  ( 0.0000000000000000000, 0.0000000000000000000, 1.000000000000000000 ) ) ;
#849 = CARTESIAN_POINT ( 'NONE',  ( 3.200000000000000200, 5.000000000000000000, 0.0000000000000000000 ) ) ;
#850 = CARTESIAN_POINT ( 'NONE',  ( 5.617157287525380100, 0.0000000000000000000, -3.517157287525381800 ) ) ;
#851 = CARTESIAN_POINT ( 'NONE',  ( 0.0000000000000000000, 0.0000000000000000000, 0.0000000000000000000 ) ) ;
#852 = APPLICATION_PROTOCOL_DEFINITION ( 'draft international standard', 'automotive_design', 1998, #875 ) ;
#853 = DIRECTION ( 'NONE',  ( -1.000000000000000000, -0.0000000000000000000, -0.0000000000000000000 ) ) ;
#854 =( NAMED_UNIT ( * ) SI_UNIT ( $, .STERADIAN. ) SOLID_ANGLE_UNIT ( ) );
#855 = DIRECTION ( 'NONE',  ( 0.0000000000000000000, 0.0000000000000000000, 1.000000000000000000 ) ) ;
#856 = B_SPLINE_CURVE_WITH_KNOTS ( 'NONE', 3,
 ( #227, #225, #228, #226, #230, #223 ),
 .UNSPECIFIED., .F., .F.,
 ( 4, 2, 4 ),
 ( 0.01113818194569529300, 0.01171004186287849500, 0.01228190178006169700 ),
 .UNSPECIFIED. ) ;
#857 = DIRECTION ( 'NONE',  ( 1.000000000000000000, 0.0000000000000000000, -0.0000000000000000000 ) ) ;
#858 = DIRECTION ( 'NONE',  ( -1.000000000000000000, -0.0000000000000000000, -0.0000000000000000000 ) ) ;
#859 = CARTESIAN_POINT ( 'NONE',  ( 3.600000000000001000, 0.0000000000000000000, 0.0000000000000000000 ) ) ;
#860 = DIRECTION ( 'NONE',  ( -1.000000000000000000, -0.0000000000000000000, -0.0000000000000000000 ) ) ;
#861 = PRODUCT_CONTEXT ( 'NONE', #875, 'mechanical' ) ;
#862 = DIRECTION ( 'NONE',  ( 1.000000000000000000, 0.0000000000000000000, 0.0000000000000000000 ) ) ;
#863 = CARTESIAN_POINT ( 'NONE',  ( 10.00099999999999900, 1.154700538379251000, 1.999999999999997300 ) ) ;
#864 = ADVANCED_FACE ( 'NONE', ( #336 ), #326, .T. ) ;
#865 = DIRECTION ( 'NONE',  ( 0.0000000000000000000, 0.0000000000000000000, 1.000000000000000000 ) ) ;
#866 = APPLICATION_CONTEXT ( 'automotive_design' ) ;
#867 = APPLICATION_PROTOCOL_DEFINITION ( 'draft international standard', 'automotive_design', 1998, #868 ) ;
#868 = APPLICATION_CONTEXT ( 'automotive_design' ) ;
#869 = DIRECTION ( 'NONE',  ( 1.000000000000000000, 0.0000000000000000000, 0.0000000000000000000 ) ) ;
#870 = PLANE ( 'NONE',  #762 ) ;
#871 = DIRECTION ( 'NONE',  ( 0.0000000000000000000, 0.0000000000000000000, 1.000000000000000000 ) ) ;
#872 = PRODUCT_CONTEXT ( 'NONE', #887, 'mechanical' ) ;
#873 = APPLICATION_PROTOCOL_DEFINITION ( 'draft international standard', 'automotive_design', 1998, #866 ) ;
#874 = APPLICATION_PROTOCOL_DEFINITION ( 'draft international standard', 'automotive_design', 1998, #887 ) ;
#875 = APPLICATION_CONTEXT ( 'automotive_design' ) ;
#876 = DIRECTION ( 'NONE',  ( 0.0000000000000000000, -1.000000000000000000, 0.0000000000000000000 ) ) ;
#877 = DIRECTION ( 'NONE',  ( 0.0000000000000000000, 0.0000000000000000000, -1.000000000000000000 ) ) ;
#878 = CARTESIAN_POINT ( 'NONE',  ( 4.000000000000000000, 0.0000000000000000000, 0.0000000000000000000 ) ) ;
#879 = ORIENTED_EDGE ( 'NONE', *, *, #671, .T. ) ;
#880 = ORIENTED_EDGE ( 'NONE', *, *, #649, .T. ) ;
#881 = EDGE_CURVE ( 'NONE', #637, #1037, #856, .T. ) ;
#882 = ORIENTED_EDGE ( 'NONE', *, *, #925, .T. ) ;
#883 = CARTESIAN_POINT ( 'NONE',  ( 10.00099999999999900, 2.309401076758500700, -4.612521832883825100E-016 ) ) ;
#884 = DIRECTION ( 'NONE',  ( -1.000000000000000000, -0.0000000000000000000, -0.0000000000000000000 ) ) ;
#885 = ORIENTED_EDGE ( 'NONE', *, *, #693, .T. ) ;
#886 = ORIENTED_EDGE ( 'NONE', *, *, #1013, .F. ) ;
#887 = APPLICATION_CONTEXT ( 'automotive_design' ) ;
#888 = EDGE_LOOP ( 'NONE', ( #1053, #502, #516, #752 ) ) ;
#889 = EDGE_LOOP ( 'NONE', ( #636, #511 ) ) ;
#890 = VERTEX_POINT ( 'NONE', #231 ) ;
#891 = EDGE_LOOP ( 'NONE', ( #678, #885 ) ) ;
#892 = ORIENTED_EDGE ( 'NONE', *, *, #687, .F. ) ;
#893 = EDGE_LOOP ( 'NONE', ( #611, #533, #532, #518 ) ) ;
#894 = EDGE_LOOP ( 'NONE', ( #592, #622, #557, #555, #537 ) ) ;
#895 = ORIENTED_EDGE ( 'NONE', *, *, #658, .F. ) ;
#896 = CLOSED_SHELL ( 'NONE', ( #481, #714, #556, #846, #424, #747 ) ) ;
#897 = ORIENTED_EDGE ( 'NONE', *, *, #689, .F. ) ;
#898 = CLOSED_SHELL ( 'NONE', ( #579, #833, #766, #154, #60, #409, #847, #280, #601, #471, #388, #309, #104, #50, #158, #66, #74, #97, #864, #814, #199, #486, #71, #395, #221, #12, #470, #238 ) ) ;
#899 = ORIENTED_EDGE ( 'NONE', *, *, #677, .T. ) ;
#900 = ORIENTED_EDGE ( 'NONE', *, *, #690, .T. ) ;
#901 = ORIENTED_EDGE ( 'NONE', *, *, #1008, .F. ) ;
#902 = CARTESIAN_POINT ( 'NONE',  ( 3.200000000000000200, 6.123233995736766300E-016, -5.000000000000000000 ) ) ;
#903 = PLANE ( 'NONE',  #776 ) ;
#904 = FILL_AREA_STYLE ('',( #934 ) ) ;
#905 = DIRECTION ( 'NONE',  ( 0.0000000000000000000, 0.0000000000000000000, 1.000000000000000000 ) ) ;
#906 = DIRECTION ( 'NONE',  ( 0.0000000000000000000, 0.8660254037844388200, -0.4999999999999997800 ) ) ;
#907 = CARTESIAN_POINT ( 'NONE',  ( 0.0000000000000000000, 0.0000000000000000000, 0.0000000000000000000 ) ) ;
#908 = DIRECTION ( 'NONE',  ( 0.0000000000000000000, 0.4999999999999997200, 0.8660254037844387100 ) ) ;
#909 = CARTESIAN_POINT ( 'NONE',  ( 4.000000000000000000, 0.0000000000000000000, 0.0000000000000000000 ) ) ;
#910 = EDGE_CURVE ( 'NONE', #633, #986, #335, .T. ) ;
#911 = EDGE_CURVE ( 'NONE', #575, #590, #329, .T. ) ;
#912 = CARTESIAN_POINT ( 'NONE',  ( 0.0000000000000000000, 0.0000000000000000000, 5.500000000000000000 ) ) ;
#913 = CARTESIAN_POINT ( 'NONE',  ( 3.600000000000001000, 0.0000000000000000000, 3.799999999999999800 ) ) ;
#914 = EDGE_CURVE ( 'NONE', #789, #596, #332, .T. ) ;
#915 = EDGE_CURVE ( 'NONE', #676, #890, #344, .T. ) ;
#916 = EDGE_CURVE ( 'NONE', #523, #621, #334, .T. ) ;
#917 = EDGE_CURVE ( 'NONE', #553, #594, #323, .T. ) ;
#918 = EDGE_CURVE ( 'NONE', #624, #653, #321, .T. ) ;
#919 = EDGE_CURVE ( 'NONE', #670, #629, #330, .T. ) ;
#920 = DIRECTION ( 'NONE',  ( 0.0000000000000000000, 0.0000000000000000000, 1.000000000000000000 ) ) ;
#921 = EDGE_CURVE ( 'NONE', #596, #789, #316, .T. ) ;
#922 = EDGE_CURVE ( 'NONE', #727, #629, #314, .T. ) ;
#923 = CARTESIAN_POINT ( 'NONE',  ( 0.0000000000000000000, 0.0000000000000000000, 0.0000000000000000000 ) ) ;
#924 = EDGE_CURVE ( 'NONE', #653, #613, #313, .T. ) ;
#925 = EDGE_CURVE ( 'NONE', #697, #529, #308, .T. ) ;
#926 = EDGE_CURVE ( 'NONE', #719, #637, #562, .T. ) ;
#927 = STYLED_ITEM ( 'NONE', ( #270 ), #1010 ) ;
#928 = CARTESIAN_POINT ( 'NONE',  ( 0.0000000000000000000, 0.0000000000000000000, 0.0000000000000000000 ) ) ;
#929 = EDGE_CURVE ( 'NONE', #653, #754, #304, .T. ) ;
#930 = EDGE_CURVE ( 'NONE', #625, #890, #305, .T. ) ;
#931 = PRODUCT_RELATED_PRODUCT_CATEGORY ( 'part', '', ( #583 ) ) ;
#932 = AXIS2_PLACEMENT_3D ( 'NONE', #1050, #1056, #1052 ) ;
#933 = EDGE_LOOP ( 'NONE', ( #504, #503, #492, #586 ) ) ;
#934 = FILL_AREA_STYLE_COLOUR ( '', #431 ) ;
#935 = PRODUCT_DEFINITION_FORMATION_WITH_SPECIFIED_SOURCE ( 'ANY', '', #583, .NOT_KNOWN. ) ;
#936 = CARTESIAN_POINT ( 'NONE',  ( 4.814093077491091500, -1.154700538379251000, -1.999999999999997800 ) ) ;
#937 = EDGE_CURVE ( 'NONE', #613, #718, #319, .T. ) ;
#938 = EDGE_CURVE ( 'NONE', #521, #559, #302, .T. ) ;
#939 = CARTESIAN_POINT ( 'NONE',  ( 4.814093077491092400, 2.309401076758500700, -4.961124279125277600E-016 ) ) ;
#940 = AXIS2_PLACEMENT_3D ( 'NONE', #928, #920, #869 ) ;
#941 = AXIS2_PLACEMENT_3D ( 'NONE', #923, #1005, #862 ) ;
#942 = MECHANICAL_DESIGN_GEOMETRIC_PRESENTATION_REPRESENTATION (  '', ( #927 ), #961 ) ;
#943 = DIRECTION ( 'NONE',  ( 0.0000000000000000000, 0.0000000000000000000, -1.000000000000000000 ) ) ;
#944 = EDGE_CURVE ( 'NONE', #606, #1037, #301, .T. ) ;
#945 = EDGE_CURVE ( 'NONE', #998, #576, #300, .T. ) ;
#946 = CARTESIAN_POINT ( 'NONE',  ( 4.927188794739420200, 2.121178195004136000, -0.3260115943455899600 ) ) ;
#947 = SURFACE_SIDE_STYLE ('',( #439 ) ) ;
#948 = EDGE_CURVE ( 'NONE', #1020, #670, #844, .T. ) ;
#949 = CARTESIAN_POINT ( 'NONE',  ( 4.000000000000000000, 0.0000000000000000000, 0.0000000000000000000 ) ) ;
#950 = DIRECTION ( 'NONE',  ( 1.000000000000000000, 0.0000000000000000000, 0.0000000000000000000 ) ) ;
#951 = PRODUCT_DEFINITION ( 'UNKNOWN', '', #839, #171 ) ;
#952 = B_SPLINE_CURVE_WITH_KNOTS ( 'NONE', 3,
 ( #1027, #1016, #1031, #1038, #1036, #1035 ),
 .UNSPECIFIED., .F., .F.,
 ( 4, 2, 4 ),
 ( 0.008289886814196340300, 0.008874635466503364200, 0.009459384118810388100 ),
 .UNSPECIFIED. ) ;
#953 = AXIS2_PLACEMENT_3D ( 'NONE', #949, #950, #943 ) ;
#954 = SURFACE_STYLE_USAGE ( .BOTH. , #947 ) ;
#955 = PRODUCT_DEFINITION ( 'UNKNOWN', '', #935, #182 ) ;
#956 = PRESENTATION_LAYER_ASSIGNMENT (  '', '', ( #927 ) ) ;
#957 =( LENGTH_UNIT ( ) NAMED_UNIT ( * ) SI_UNIT ( .MILLI., .METRE. ) );
#958 = CARTESIAN_POINT ( 'NONE',  ( 4.999696899736210100, 1.929937882507999600, -0.6572495320442474100 ) ) ;
#959 = PLANE ( 'NONE',  #758 ) ;
#960 =( NAMED_UNIT ( * ) PLANE_ANGLE_UNIT ( ) SI_UNIT ( $, .RADIAN. ) );
#961 =( GEOMETRIC_REPRESENTATION_CONTEXT ( 3 ) GLOBAL_UNCERTAINTY_ASSIGNED_CONTEXT ( ( #87 ) ) GLOBAL_UNIT_ASSIGNED_CONTEXT ( ( #975, #960, #854 ) ) REPRESENTATION_CONTEXT ( 'NONE', 'WORKASPACE' ) );
#962 =( NAMED_UNIT ( * ) PLANE_ANGLE_UNIT ( ) SI_UNIT ( $, .RADIAN. ) );
#963 = CARTESIAN_POINT ( 'NONE',  ( 5.000150076440002400, 1.635025330132355800, -1.168053056548680000 ) ) ;
#964 =( NAMED_UNIT ( * ) SI_UNIT ( $, .STERADIAN. ) SOLID_ANGLE_UNIT ( ) );
#965 = CARTESIAN_POINT ( 'NONE',  ( 4.917516111939717900, 1.344052718542628100, -1.672032403433094400 ) ) ;
#966 = DIRECTION ( 'NONE',  ( 0.0000000000000000000, -0.4999999999999997800, 0.8660254037844387100 ) ) ;
#967 = CARTESIAN_POINT ( 'NONE',  ( 4.982351060012675200, 1.536747091613498700, -1.338275958941713700 ) ) ;
#968 = DIRECTION ( 'NONE',  ( 1.000000000000000000, 0.0000000000000000000, 0.0000000000000000000 ) ) ;
#969 = CARTESIAN_POINT ( 'NONE',  ( 4.870724187307232000, 1.248950532507176600, -1.836754221557364700 ) ) ;
#970 =( LENGTH_UNIT ( ) NAMED_UNIT ( * ) SI_UNIT ( .MILLI., .METRE. ) );
#971 = DIRECTION ( 'NONE',  ( 0.0000000000000000000, 0.0000000000000000000, 1.000000000000000000 ) ) ;
#972 = B_SPLINE_CURVE_WITH_KNOTS ( 'NONE', 3,
 ( #89, #98, #102, #105, #107, #108 ),
 .UNSPECIFIED., .F., .F.,
 ( 4, 2, 4 ),
 ( 0.01228190178006169700, 0.01285311116573188700, 0.01342432055140207700 ),
 .UNSPECIFIED. ) ;
#973 = CARTESIAN_POINT ( 'NONE',  ( 4.814093077491092400, 1.154700538379251700, -1.999999999999997300 ) ) ;
#974 = DIRECTION ( 'NONE',  ( 1.000000000000000000, 0.0000000000000000000, 0.0000000000000000000 ) ) ;
#975 =( LENGTH_UNIT ( ) NAMED_UNIT ( * ) SI_UNIT ( .MILLI., .METRE. ) );
#976 = CARTESIAN_POINT ( 'NONE',  ( 6.099999999999996100, 0.0000000000000000000, -4.000000000000000000 ) ) ;
#977 = CARTESIAN_POINT ( 'NONE',  ( 3.999999999999999100, 6.735557395310442000E-016, -5.500000000000000000 ) ) ;
#978 = FILL_AREA_STYLE ('',( #259 ) ) ;
#979 = SURFACE_STYLE_USAGE ( .BOTH. , #982 ) ;
#980 = EDGE_LOOP ( 'NONE', ( #741, #501 ) ) ;
#981 = PLANE ( 'NONE',  #770 ) ;
#982 = SURFACE_SIDE_STYLE ('',( #273 ) ) ;
#983 =( NAMED_UNIT ( * ) PLANE_ANGLE_UNIT ( ) SI_UNIT ( $, .RADIAN. ) );
#984 = DIRECTION ( 'NONE',  ( -0.0000000000000000000, 0.8660254037844388200, 0.4999999999999998300 ) ) ;
#985 = EDGE_CURVE ( 'NONE', #986, #718, #296, .T. ) ;
#986 = VERTEX_POINT ( 'NONE', #850 ) ;
#987 = DIRECTION ( 'NONE',  ( 1.000000000000000000, 0.0000000000000000000, 0.0000000000000000000 ) ) ;
#988 = CARTESIAN_POINT ( 'NONE',  ( 3.200000000000000200, 0.0000000000000000000, 3.799999999999999800 ) ) ;
#989 = DIRECTION ( 'NONE',  ( 0.0000000000000000000, 0.0000000000000000000, -1.000000000000000000 ) ) ;
#990 = ORIENTED_EDGE ( 'NONE', *, *, #911, .F. ) ;
#991 = CARTESIAN_POINT ( 'NONE',  ( 5.000000000000000900, -5.204707037421930600E-024, 1.999999999999997300 ) ) ;
#992 = ORIENTED_EDGE ( 'NONE', *, *, #921, .T. ) ;
#993 = CARTESIAN_POINT ( 'NONE',  ( 5.000000000000000000, 0.0000000000000000000, 1.999999999999998700 ) ) ;
#994 = EDGE_LOOP ( 'NONE', ( #536, #778, #498, #684 ) ) ;
#995 = DIRECTION ( 'NONE',  ( -1.000000000000000000, -0.0000000000000000000, -0.0000000000000000000 ) ) ;
#996 = EDGE_CURVE ( 'NONE', #670, #651, #952, .T. ) ;
#997 = CARTESIAN_POINT ( 'NONE',  ( 4.000000000000000000, 4.653657836759942700E-016, -3.799999999999999800 ) ) ;
#998 = VERTEX_POINT ( 'NONE', #1024 ) ;
#999 = ORIENTED_EDGE ( 'NONE', *, *, #944, .F. ) ;
#1000 = EDGE_LOOP ( 'NONE', ( #598, #607, #759, #632 ) ) ;
#1001 = VERTEX_POINT ( 'NONE', #1040 ) ;
#1002 = CARTESIAN_POINT ( 'NONE',  ( 4.814093077491092400, 1.154700538379251000, 1.999999999999997300 ) ) ;
#1003 = EDGE_CURVE ( 'NONE', #570, #623, #293, .T. ) ;
#1004 = ORIENTED_EDGE ( 'NONE', *, *, #672, .T. ) ;
#1005 = DIRECTION ( 'NONE',  ( 0.0000000000000000000, 0.0000000000000000000, 1.000000000000000000 ) ) ;
#1006 = CARTESIAN_POINT ( 'NONE',  ( 5.617157287525380100, 0.0000000000000000000, 0.0000000000000000000 ) ) ;
#1007 = EDGE_CURVE ( 'NONE', #620, #594, #297, .T. ) ;
#1008 = EDGE_CURVE ( 'NONE', #526, #1022, #289, .T. ) ;
#1009 = ORIENTED_EDGE ( 'NONE', *, *, #700, .F. ) ;
#1010 = ADVANCED_BREP_SHAPE_REPRESENTATION ( 'HB0', ( #805, #520, #940 ), #835 ) ;
#1011 = DIRECTION ( 'NONE',  ( 1.000000000000000000, 0.0000000000000000000, 0.0000000000000000000 ) ) ;
#1012 = EDGE_CURVE ( 'NONE', #617, #696, #292, .T. ) ;
#1013 = EDGE_CURVE ( 'NONE', #641, #676, #288, .T. ) ;
#1014 = ORIENTED_EDGE ( 'NONE', *, *, #944, .T. ) ;
#1015 = ORIENTED_EDGE ( 'NONE', *, *, #917, .T. ) ;
#1016 = CARTESIAN_POINT ( 'NONE',  ( 4.870087994979396500, 0.9683181537958610600, -1.999999999999997300 ) ) ;
#1017 = EDGE_LOOP ( 'NONE', ( #716, #495 ) ) ;
#1018 = ORIENTED_EDGE ( 'NONE', *, *, #672, .F. ) ;
#1019 = EDGE_LOOP ( 'NONE', ( #705, #610, #619, #614 ) ) ;
#1020 = VERTEX_POINT ( 'NONE', #1057 ) ;
#1021 = DIRECTION ( 'NONE',  ( 0.7071067811865452400, 0.0000000000000000000, -0.7071067811865499000 ) ) ;
#1022 = VERTEX_POINT ( 'NONE', #506 ) ;
#1023 = CARTESIAN_POINT ( 'NONE',  ( 4.000000000000000000, 4.653657836759942700E-016, -3.799999999999999800 ) ) ;
#1024 = CARTESIAN_POINT ( 'NONE',  ( 4.000000000000000000, 0.0000000000000000000, 5.000000000000000000 ) ) ;
#1025 = EDGE_CURVE ( 'NONE', #641, #625, #284, .T. ) ;
#1026 = DIRECTION ( 'NONE',  ( 0.0000000000000000000, 0.0000000000000000000, -1.000000000000000000 ) ) ;
#1027 = CARTESIAN_POINT ( 'NONE',  ( 4.814093077491092400, 1.154700538379251700, -1.999999999999997300 ) ) ;
#1028 = ORIENTED_EDGE ( 'NONE', *, *, #918, .F. ) ;
#1029 = DIRECTION ( 'NONE',  ( 0.0000000000000000000, 1.000000000000000000, 0.0000000000000000000 ) ) ;
#1030 = EDGE_CURVE ( 'NONE', #590, #696, #286, .T. ) ;
#1031 = CARTESIAN_POINT ( 'NONE',  ( 4.916806945515097600, 0.7792988962212127300, -1.999999999999997800 ) ) ;
#1032 = ORIENTED_EDGE ( 'NONE', *, *, #700, .T. ) ;
#1033 = DIRECTION ( 'NONE',  ( 0.0000000000000000000, 0.0000000000000000000, -1.000000000000000000 ) ) ;
#1034 = DIRECTION ( 'NONE',  ( 0.0000000000000000000, 0.0000000000000000000, 1.000000000000000000 ) ) ;
#1035 = CARTESIAN_POINT ( 'NONE',  ( 5.000000000000000900, 2.449293546244918900E-016, -1.999999999999997800 ) ) ;
#1036 = CARTESIAN_POINT ( 'NONE',  ( 5.000000000000000900, 0.1951822488344022400, -1.999999999999997800 ) ) ;
#1037 = VERTEX_POINT ( 'NONE', #991 ) ;
#1038 = CARTESIAN_POINT ( 'NONE',  ( 4.982058068883720400, 0.3932477444147576800, -1.999999999999997300 ) ) ;
#1039 = ORIENTED_EDGE ( 'NONE', *, *, #682, .T. ) ;
#1040 = CARTESIAN_POINT ( 'NONE',  ( 10.00000000000000000, 4.592425496802574000E-016, -3.499999999999999600 ) ) ;
#1041 = ORIENTED_EDGE ( 'NONE', *, *, #1012, .T. ) ;
#1042 = DIRECTION ( 'NONE',  ( -1.000000000000000000, -0.0000000000000000000, -0.0000000000000000000 ) ) ;
#1043 = ORIENTED_EDGE ( 'NONE', *, *, #996, .T. ) ;
#1044 = DIRECTION ( 'NONE',  ( -1.000000000000000000, -0.0000000000000000000, -0.0000000000000000000 ) ) ;
#1045 = DIRECTION ( 'NONE',  ( -1.000000000000000000, -0.0000000000000000000, -0.0000000000000000000 ) ) ;
#1046 = DIRECTION ( 'NONE',  ( -1.000000000000000000, -0.0000000000000000000, -0.0000000000000000000 ) ) ;
#1047 = UNCERTAINTY_MEASURE_WITH_UNIT (LENGTH_MEASURE( 1.000000000000000100E-005 ), #957, 'distance_accuracy_value', 'NONE');
#1048 = CARTESIAN_POINT ( 'NONE',  ( 0.0000000000000000000, -1.154700538379251200, 1.999999999999997300 ) ) ;
#1049 = EDGE_LOOP ( 'NONE', ( #701, #736, #547, #1028 ) ) ;
#1050 = CARTESIAN_POINT ( 'NONE',  ( 3.200000000000000200, 0.0000000000000000000, 0.0000000000000000000 ) ) ;
#1051 = ORIENTED_EDGE ( 'NONE', *, *, #650, .T. ) ;
#1052 = DIRECTION ( 'NONE',  ( 0.0000000000000000000, 0.0000000000000000000, -1.000000000000000000 ) ) ;
#1053 = ORIENTED_EDGE ( 'NONE', *, *, #657, .F. ) ;
#1054 = EDGE_LOOP ( 'NONE', ( #530, #588 ) ) ;
#1055 = CARTESIAN_POINT ( 'NONE',  ( -1.573951397329142400, 6.123233995736766300E-016, -5.000000000000000000 ) ) ;
#1056 = DIRECTION ( 'NONE',  ( 1.000000000000000000, 0.0000000000000000000, 0.0000000000000000000 ) ) ;
#1057 = CARTESIAN_POINT ( 'NONE',  ( 4.814093077491092400, 2.309401076758500700, -4.961124279125277600E-016 ) ) ;
#1058 = CARTESIAN_POINT ( 'NONE',  ( 3.199999999999999700, 0.0000000000000000000, 0.0000000000000000000 ) ) ;
ENDSEC;
END-ISO-10303-21;
