ply
format ascii 1.0
comment engineering surface Gaussians; no scene training
element vertex 252
property float x
property float y
property float z
property float nx
property float ny
property float nz
property float f_dc_0
property float f_dc_1
property float f_dc_2
property float opacity
property float scale_0
property float scale_1
property float scale_2
property float rot_0
property float rot_1
property float rot_2
property float rot_3
end_header
-0.0244046229 -0.026106727 0.05 -0.983843693 -0.179029573 0 0.531736155 0.531736155 0.531736155 2.94443898 -2.99573227 -2.99573227 -11.5129255 0.542915641 0.542915641 -0.453037092 -0.453037092
-0.0244046229 -0.026106727 0.15 -0.983843693 -0.179029573 0 0.531736155 0.531736155 0.531736155 2.94443898 -2.99573227 -2.99573227 -11.5129255 0.542915641 0.542915641 -0.453037092 -0.453037092
-0.0244046229 -0.026106727 0.25 -0.983843693 -0.179029573 0 0.531736155 0.531736155 0.531736155 2.94443898 -2.99573227 -2.99573227 -11.5129255 0.542915641 0.542915641 -0.453037092 -0.453037092
-0.0244046229 -0.026106727 0.35 -0.983843693 -0.179029573 0 0.531736155 0.531736155 0.531736155 2.94443898 -2.99573227 -2.99573227 -11.5129255 0.542915641 0.542915641 -0.453037092 -0.453037092
-0.0244046229 -0.026106727 0.45 -0.983843693 -0.179029573 0 0.531736155 0.531736155 0.531736155 2.94443898 -2.99573227 -2.99573227 -11.5129255 0.542915641 0.542915641 -0.453037092 -0.453037092
-0.0244046229 -0.026106727 0.55 -0.983843693 -0.179029573 0 0.531736155 0.531736155 0.531736155 2.94443898 -2.99573227 -2.99573227 -11.5129255 0.542915641 0.542915641 -0.453037092 -0.453037092
-0.0244046229 -0.026106727 0.65 -0.983843693 -0.179029573 0 0.531736155 0.531736155 0.531736155 2.94443898 -2.99573227 -2.99573227 -11.5129255 0.542915641 0.542915641 -0.453037092 -0.453037092
-0.0244046229 -0.026106727 0.75 -0.983843693 -0.179029573 0 0.531736155 0.531736155 0.531736155 2.94443898 -2.99573227 -2.99573227 -11.5129255 0.542915641 0.542915641 -0.453037092 -0.453037092
-0.0244046229 -0.026106727 0.85 -0.983843693 -0.179029573 0 0.531736155 0.531736155 0.531736155 2.94443898 -2.99573227 -2.99573227 -11.5129255 0.542915641 0.542915641 -0.453037092 -0.453037092
-0.0244046229 -0.026106727 0.95 -0.983843693 -0.179029573 0 0.531736155 0.531736155 0.531736155 2.94443898 -2.99573227 -2.99573227 -11.5129255 0.542915641 0.542915641 -0.453037092 -0.453037092
-0.0105339258 -0.0744037638 0.05 0.179029573 -0.983843693 0 0.531736155 0.531736155 0.531736155 2.94443898 -5.29831737 -2.99573227 -11.5129255 0.704244931 0.704244931 0.0635537315 0.0635537315
-0.0105339258 -0.0744037638 0.15 0.179029573 -0.983843693 0 0.531736155 0.531736155 0.531736155 2.94443898 -5.29831737 -2.99573227 -11.5129255 0.704244931 0.704244931 0.0635537315 0.0635537315
-0.0105339258 -0.0744037638 0.25 0.179029573 -0.983843693 0 0.531736155 0.531736155 0.531736155 2.94443898 -5.29831737 -2.99573227 -11.5129255 0.704244931 0.704244931 0.0635537315 0.0635537315
-0.0105339258 -0.0744037638 0.35 0.179029573 -0.983843693 0 0.531736155 0.531736155 0.531736155 2.94443898 -5.29831737 -2.99573227 -11.5129255 0.704244931 0.704244931 0.0635537315 0.0635537315
-0.0105339258 -0.0744037638 0.45 0.179029573 -0.983843693 0 0.531736155 0.531736155 0.531736155 2.94443898 -5.29831737 -2.99573227 -11.5129255 0.704244931 0.704244931 0.0635537315 0.0635537315
-0.0105339258 -0.0744037638 0.55 0.179029573 -0.983843693 0 0.531736155 0.531736155 0.531736155 2.94443898 -5.29831737 -2.99573227 -11.5129255 0.704244931 0.704244931 0.0635537315 0.0635537315
-0.0105339258 -0.0744037638 0.65 0.179029573 -0.983843693 0 0.531736155 0.531736155 0.531736155 2.94443898 -5.29831737 -2.99573227 -11.5129255 0.704244931 0.704244931 0.0635537315 0.0635537315
-0.0105339258 -0.0744037638 0.75 0.179029573 -0.983843693 0 0.531736155 0.531736155 0.531736155 2.94443898 -5.29831737 -2.99573227 -11.5129255 0.704244931 0.704244931 0.0635537315 0.0635537315
-0.0105339258 -0.0744037638 0.85 0.179029573 -0.983843693 0 0.531736155 0.531736155 0.531736155 2.94443898 -5.29831737 -2.99573227 -11.5129255 0.704244931 0.704244931 0.0635537315 0.0635537315
-0.0105339258 -0.0744037638 0.95 0.179029573 -0.983843693 0 0.531736155 0.531736155 0.531736155 2.94443898 -5.29831737 -2.99573227 -11.5129255 0.704244931 0.704244931 0.0635537315 0.0635537315
-0.0136710381 -0.0292356497 0.05 0.983843693 0.179029573 0 0.531736155 0.531736155 0.531736155 2.94443898 -3.10109279 -2.99573227 -11.5129255 0.453037092 0.453037092 0.542915641 0.542915641
-0.0136710381 -0.0292356497 0.15 0.983843693 0.179029573 0 0.531736155 0.531736155 0.531736155 2.94443898 -3.10109279 -2.99573227 -11.5129255 0.453037092 0.453037092 0.542915641 0.542915641
-0.0136710381 -0.0292356497 0.25 0.983843693 0.179029573 0 0.531736155 0.531736155 0.531736155 2.94443898 -3.10109279 -2.99573227 -11.5129255 0.453037092 0.453037092 0.542915641 0.542915641
-0.0136710381 -0.0292356497 0.35 0.983843693 0.179029573 0 0.531736155 0.531736155 0.531736155 2.94443898 -3.10109279 -2.99573227 -11.5129255 0.453037092 0.453037092 0.542915641 0.542915641
-0.0136710381 -0.0292356497 0.45 0.983843693 0.179029573 0 0.531736155 0.531736155 0.531736155 2.94443898 -3.10109279 -2.99573227 -11.5129255 0.453037092 0.453037092 0.542915641 0.542915641
-0.0136710381 -0.0292356497 0.55 0.983843693 0.179029573 0 0.531736155 0.531736155 0.531736155 2.94443898 -3.10109279 -2.99573227 -11.5129255 0.453037092 0.453037092 0.542915641 0.542915641
-0.0136710381 -0.0292356497 0.65 0.983843693 0.179029573 0 0.531736155 0.531736155 0.531736155 2.94443898 -3.10109279 -2.99573227 -11.5129255 0.453037092 0.453037092 0.542915641 0.542915641
-0.0136710381 -0.0292356497 0.75 0.983843693 0.179029573 0 0.531736155 0.531736155 0.531736155 2.94443898 -3.10109279 -2.99573227 -11.5129255 0.453037092 0.453037092 0.542915641 0.542915641
-0.0136710381 -0.0292356497 0.85 0.983843693 0.179029573 0 0.531736155 0.531736155 0.531736155 2.94443898 -3.10109279 -2.99573227 -11.5129255 0.453037092 0.453037092 0.542915641 0.542915641
-0.0136710381 -0.0292356497 0.95 0.983843693 0.179029573 0 0.531736155 0.531736155 0.531736155 2.94443898 -3.10109279 -2.99573227 -11.5129255 0.453037092 0.453037092 0.542915641 0.542915641
0.0225455973 0.0230936472 0.05 0.179029573 -0.983843693 0 0.531736155 0.531736155 0.531736155 2.94443898 -3.10109279 -2.99573227 -11.5129255 0.704244931 0.704244931 0.0635537315 0.0635537315
0.0225455973 0.0230936472 0.15 0.179029573 -0.983843693 0 0.531736155 0.531736155 0.531736155 2.94443898 -3.10109279 -2.99573227 -11.5129255 0.704244931 0.704244931 0.0635537315 0.0635537315
0.0225455973 0.0230936472 0.25 0.179029573 -0.983843693 0 0.531736155 0.531736155 0.531736155 2.94443898 -3.10109279 -2.99573227 -11.5129255 0.704244931 0.704244931 0.0635537315 0.0635537315
0.0225455973 0.0230936472 0.35 0.179029573 -0.983843693 0 0.531736155 0.531736155 0.531736155 2.94443898 -3.10109279 -2.99573227 -11.5129255 0.704244931 0.704244931 0.0635537315 0.0635537315
0.0225455973 0.0230936472 0.45 0.179029573 -0.983843693 0 0.531736155 0.531736155 0.531736155 2.94443898 -3.10109279 -2.99573227 -11.5129255 0.704244931 0.704244931 0.0635537315 0.0635537315
0.0225455973 0.0230936472 0.55 0.179029573 -0.983843693 0 0.531736155 0.531736155 0.531736155 2.94443898 -3.10109279 -2.99573227 -11.5129255 0.704244931 0.704244931 0.0635537315 0.0635537315
0.0225455973 0.0230936472 0.65 0.179029573 -0.983843693 0 0.531736155 0.531736155 0.531736155 2.94443898 -3.10109279 -2.99573227 -11.5129255 0.704244931 0.704244931 0.0635537315 0.0635537315
0.0225455973 0.0230936472 0.75 0.179029573 -0.983843693 0 0.531736155 0.531736155 0.531736155 2.94443898 -3.10109279 -2.99573227 -11.5129255 0.704244931 0.704244931 0.0635537315 0.0635537315
0.0225455973 0.0230936472 0.85 0.179029573 -0.983843693 0 0.531736155 0.531736155 0.531736155 2.94443898 -3.10109279 -2.99573227 -11.5129255 0.704244931 0.704244931 0.0635537315 0.0635537315
0.0225455973 0.0230936472 0.95 0.179029573 -0.983843693 0 0.531736155 0.531736155 0.531736155 2.94443898 -3.10109279 -2.99573227 -11.5129255 0.704244931 0.704244931 0.0635537315 0.0635537315
0.0659234156 0.0360691965 0.05 0.983843693 0.179029573 0 0.531736155 0.531736155 0.531736155 2.94443898 -5.29831737 -2.99573227 -11.5129255 0.453037092 0.453037092 0.542915641 0.542915641
0.0659234156 0.0360691965 0.15 0.983843693 0.179029573 0 0.531736155 0.531736155 0.531736155 2.94443898 -5.29831737 -2.99573227 -11.5129255 0.453037092 0.453037092 0.542915641 0.542915641
0.0659234156 0.0360691965 0.25 0.983843693 0.179029573 0 0.531736155 0.531736155 0.531736155 2.94443898 -5.29831737 -2.99573227 -11.5129255 0.453037092 0.453037092 0.542915641 0.542915641
0.0659234156 0.0360691965 0.35 0.983843693 0.179029573 0 0.531736155 0.531736155 0.531736155 2.94443898 -5.29831737 -2.99573227 -11.5129255 0.453037092 0.453037092 0.542915641 0.542915641
0.0659234156 0.0360691965 0.45 0.983843693 0.179029573 0 0.531736155 0.531736155 0.531736155 2.94443898 -5.29831737 -2.99573227 -11.5129255 0.453037092 0.453037092 0.542915641 0.542915641
0.0659234156 0.0360691965 0.55 0.983843693 0.179029573 0 0.531736155 0.531736155 0.531736155 2.94443898 -5.29831737 -2.99573227 -11.5129255 0.453037092 0.453037092 0.542915641 0.542915641
0.0659234156 0.0360691965 0.65 0.983843693 0.179029573 0 0.531736155 0.531736155 0.531736155 2.94443898 -5.29831737 -2.99573227 -11.5129255 0.453037092 0.453037092 0.542915641 0.542915641
0.0659234156 0.0360691965 0.75 0.983843693 0.179029573 0 0.531736155 0.531736155 0.531736155 2.94443898 -5.29831737 -2.99573227 -11.5129255 0.453037092 0.453037092 0.542915641 0.542915641
0.0659234156 0.0360691965 0.85 0.983843693 0.179029573 0 0.531736155 0.531736155 0.531736155 2.94443898 -5.29831737 -2.99573227 -11.5129255 0.453037092 0.453037092 0.542915641 0.542915641
0.0659234156 0.0360691965 0.95 0.983843693 0.179029573 0 0.531736155 0.531736155 0.531736155 2.94443898 -5.29831737 -2.99573227 -11.5129255 0.453037092 0.453037092 0.542915641 0.542915641
0.0158360831 0.0320369363 0.05 -0.179029573 0.983843693 0 0.531736155 0.531736155 0.531736155 2.94443898 -2.99573227 -2.99573227 -11.5129255 -0.0635537315 -0.0635537315 0.704244931 0.704244931
0.0158360831 0.0320369363 0.15 -0.179029573 0.983843693 0 0.531736155 0.531736155 0.531736155 2.94443898 -2.99573227 -2.99573227 -11.5129255 -0.0635537315 -0.0635537315 0.704244931 0.704244931
0.0158360831 0.0320369363 0.25 -0.179029573 0.983843693 0 0.531736155 0.531736155 0.531736155 2.94443898 -2.99573227 -2.99573227 -11.5129255 -0.0635537315 -0.0635537315 0.704244931 0.704244931
0.0158360831 0.0320369363 0.35 -0.179029573 0.983843693 0 0.531736155 0.531736155 0.531736155 2.94443898 -2.99573227 -2.99573227 -11.5129255 -0.0635537315 -0.0635537315 0.704244931 0.704244931
0.0158360831 0.0320369363 0.45 -0.179029573 0.983843693 0 0.531736155 0.531736155 0.531736155 2.94443898 -2.99573227 -2.99573227 -11.5129255 -0.0635537315 -0.0635537315 0.704244931 0.704244931
0.0158360831 0.0320369363 0.55 -0.179029573 0.983843693 0 0.531736155 0.531736155 0.531736155 2.94443898 -2.99573227 -2.99573227 -11.5129255 -0.0635537315 -0.0635537315 0.704244931 0.704244931
0.0158360831 0.0320369363 0.65 -0.179029573 0.983843693 0 0.531736155 0.531736155 0.531736155 2.94443898 -2.99573227 -2.99573227 -11.5129255 -0.0635537315 -0.0635537315 0.704244931 0.704244931
0.0158360831 0.0320369363 0.75 -0.179029573 0.983843693 0 0.531736155 0.531736155 0.531736155 2.94443898 -2.99573227 -2.99573227 -11.5129255 -0.0635537315 -0.0635537315 0.704244931 0.704244931
0.0158360831 0.0320369363 0.85 -0.179029573 0.983843693 0 0.531736155 0.531736155 0.531736155 2.94443898 -2.99573227 -2.99573227 -11.5129255 -0.0635537315 -0.0635537315 0.704244931 0.704244931
0.0158360831 0.0320369363 0.95 -0.179029573 0.983843693 0 0.531736155 0.531736155 0.531736155 2.94443898 -2.99573227 -2.99573227 -11.5129255 -0.0635537315 -0.0635537315 0.704244931 0.704244931
-0.0194854045 -0.0252115791 0 0 0 -1 0.531736155 0.531736155 0.531736155 2.94443898 -2.99573227 -5.29831737 -11.5129255 0 0.767798663 -0.6406912 0
0.0216504494 0.0280128657 0 0 0 -1 0.531736155 0.531736155 0.531736155 2.94443898 -5.29831737 -3.10109279 -11.5129255 0 0.767798663 -0.6406912 0
-0.0194854045 -0.0252115791 1 0 0 1 0.531736155 0.531736155 0.531736155 2.94443898 -2.99573227 -5.29831737 -11.5129255 0.767798663 0 0 -0.6406912
0.0216504494 0.0280128657 1 0 0 1 0.531736155 0.531736155 0.531736155 2.94443898 -5.29831737 -3.10109279 -11.5129255 0.767798663 0 0 -0.6406912
0.981230057 -0.0294042553 0.0478967241 0 -1 0 0.531736155 0.531736155 0.531736155 2.94443898 -2.99573227 -3.05462379 -11.5129255 0.653281482 0.653281482 -0.27059805 0.27059805
0.914563391 -0.0294042553 0.114563391 0 -1 0 0.531736155 0.531736155 0.531736155 2.94443898 -2.99573227 -3.05462379 -11.5129255 0.653281482 0.653281482 -0.27059805 0.27059805
0.847896724 -0.0294042553 0.181230057 0 -1 0 0.531736155 0.531736155 0.531736155 2.94443898 -2.99573227 -3.05462379 -11.5129255 0.653281482 0.653281482 -0.27059805 0.27059805
0.781230057 -0.0294042553 0.247896724 0 -1 0 0.531736155 0.531736155 0.531736155 2.94443898 -2.99573227 -3.05462379 -11.5129255 0.653281482 0.653281482 -0.27059805 0.27059805
0.714563391 -0.0294042553 0.314563391 0 -1 0 0.531736155 0.531736155 0.531736155 2.94443898 -2.99573227 -3.05462379 -11.5129255 0.653281482 0.653281482 -0.27059805 0.27059805
0.647896724 -0.0294042553 0.381230057 0 -1 0 0.531736155 0.531736155 0.531736155 2.94443898 -2.99573227 -3.05462379 -11.5129255 0.653281482 0.653281482 -0.27059805 0.27059805
0.581230057 -0.0294042553 0.447896724 0 -1 0 0.531736155 0.531736155 0.531736155 2.94443898 -2.99573227 -3.05462379 -11.5129255 0.653281482 0.653281482 -0.27059805 0.27059805
0.514563391 -0.0294042553 0.514563391 0 -1 0 0.531736155 0.531736155 0.531736155 2.94443898 -2.99573227 -3.05462379 -11.5129255 0.653281482 0.653281482 -0.27059805 0.27059805
0.447896724 -0.0294042553 0.581230057 0 -1 0 0.531736155 0.531736155 0.531736155 2.94443898 -2.99573227 -3.05462379 -11.5129255 0.653281482 0.653281482 -0.27059805 0.27059805
0.381230057 -0.0294042553 0.647896724 0 -1 0 0.531736155 0.531736155 0.531736155 2.94443898 -2.99573227 -3.05462379 -11.5129255 0.653281482 0.653281482 -0.27059805 0.27059805
0.314563391 -0.0294042553 0.714563391 0 -1 0 0.531736155 0.531736155 0.531736155 2.94443898 -2.99573227 -3.05462379 -11.5129255 0.653281482 0.653281482 -0.27059805 0.27059805
0.247896724 -0.0294042553 0.781230057 0 -1 0 0.531736155 0.531736155 0.531736155 2.94443898 -2.99573227 -3.05462379 -11.5129255 0.653281482 0.653281482 -0.27059805 0.27059805
0.181230057 -0.0294042553 0.847896724 0 -1 0 0.531736155 0.531736155 0.531736155 2.94443898 -2.99573227 -3.05462379 -11.5129255 0.653281482 0.653281482 -0.27059805 0.27059805
0.114563391 -0.0294042553 0.914563391 0 -1 0 0.531736155 0.531736155 0.531736155 2.94443898 -2.99573227 -3.05462379 -11.5129255 0.653281482 0.653281482 -0.27059805 0.27059805
0.0478967241 -0.0294042553 0.981230057 0 -1 0 0.531736155 0.531736155 0.531736155 2.94443898 -2.99573227 -3.05462379 -11.5129255 0.653281482 0.653281482 -0.27059805 0.27059805
1.0165854 -0.0234042553 0.0832520631 0.707106781 0 0.707106781 0.531736155 0.531736155 0.531736155 2.94443898 -5.11599581 -3.05462379 -11.5129255 0.653281482 0.27059805 0.27059805 0.653281482
0.94991873 -0.0234042553 0.14991873 0.707106781 0 0.707106781 0.531736155 0.531736155 0.531736155 2.94443898 -5.11599581 -3.05462379 -11.5129255 0.653281482 0.27059805 0.27059805 0.653281482
0.883252063 -0.0234042553 0.216585396 0.707106781 0 0.707106781 0.531736155 0.531736155 0.531736155 2.94443898 -5.11599581 -3.05462379 -11.5129255 0.653281482 0.27059805 0.27059805 0.653281482
0.816585396 -0.0234042553 0.283252063 0.707106781 0 0.707106781 0.531736155 0.531736155 0.531736155 2.94443898 -5.11599581 -3.05462379 -11.5129255 0.653281482 0.27059805 0.27059805 0.653281482
0.74991873 -0.0234042553 0.34991873 0.707106781 0 0.707106781 0.531736155 0.531736155 0.531736155 2.94443898 -5.11599581 -3.05462379 -11.5129255 0.653281482 0.27059805 0.27059805 0.653281482
0.683252063 -0.0234042553 0.416585396 0.707106781 0 0.707106781 0.531736155 0.531736155 0.531736155 2.94443898 -5.11599581 -3.05462379 -11.5129255 0.653281482 0.27059805 0.27059805 0.653281482
0.616585396 -0.0234042553 0.483252063 0.707106781 0 0.707106781 0.531736155 0.531736155 0.531736155 2.94443898 -5.11599581 -3.05462379 -11.5129255 0.653281482 0.27059805 0.27059805 0.653281482
0.54991873 -0.0234042553 0.54991873 0.707106781 0 0.707106781 0.531736155 0.531736155 0.531736155 2.94443898 -5.11599581 -3.05462379 -11.5129255 0.653281482 0.27059805 0.27059805 0.653281482
0.483252063 -0.0234042553 0.616585396 0.707106781 0 0.707106781 0.531736155 0.531736155 0.531736155 2.94443898 -5.11599581 -3.05462379 -11.5129255 0.653281482 0.27059805 0.27059805 0.653281482
0.416585396 -0.0234042553 0.683252063 0.707106781 0 0.707106781 0.531736155 0.531736155 0.531736155 2.94443898 -5.11599581 -3.05462379 -11.5129255 0.653281482 0.27059805 0.27059805 0.653281482
0.34991873 -0.0234042553 0.74991873 0.707106781 0 0.707106781 0.531736155 0.531736155 0.531736155 2.94443898 -5.11599581 -3.05462379 -11.5129255 0.653281482 0.27059805 0.27059805 0.653281482
0.283252063 -0.0234042553 0.816585396 0.707106781 0 0.707106781 0.531736155 0.531736155 0.531736155 2.94443898 -5.11599581 -3.05462379 -11.5129255 0.653281482 0.27059805 0.27059805 0.653281482
0.216585396 -0.0234042553 0.883252063 0.707106781 0 0.707106781 0.531736155 0.531736155 0.531736155 2.94443898 -5.11599581 -3.05462379 -11.5129255 0.653281482 0.27059805 0.27059805 0.653281482
0.14991873 -0.0234042553 0.94991873 0.707106781 0 0.707106781 0.531736155 0.531736155 0.531736155 2.94443898 -5.11599581 -3.05462379 -11.5129255 0.653281482 0.27059805 0.27059805 0.653281482
0.0832520631 -0.0234042553 1.0165854 0.707106781 0 0.707106781 0.531736155 0.531736155 0.531736155 2.94443898 -5.11599581 -3.05462379 -11.5129255 0.653281482 0.27059805 0.27059805 0.653281482
0.985472698 -0.0174042553 0.0521393647 0 1 0 0.531736155 0.531736155 0.531736155 2.94443898 -3.12356565 -3.05462379 -11.5129255 0.27059805 -0.27059805 0.653281482 0.653281482
0.918806031 -0.0174042553 0.118806031 0 1 0 0.531736155 0.531736155 0.531736155 2.94443898 -3.12356565 -3.05462379 -11.5129255 0.27059805 -0.27059805 0.653281482 0.653281482
0.852139365 -0.0174042553 0.185472698 0 1 0 0.531736155 0.531736155 0.531736155 2.94443898 -3.12356565 -3.05462379 -11.5129255 0.27059805 -0.27059805 0.653281482 0.653281482
0.785472698 -0.0174042553 0.252139365 0 1 0 0.531736155 0.531736155 0.531736155 2.94443898 -3.12356565 -3.05462379 -11.5129255 0.27059805 -0.27059805 0.653281482 0.653281482
0.718806031 -0.0174042553 0.318806031 0 1 0 0.531736155 0.531736155 0.531736155 2.94443898 -3.12356565 -3.05462379 -11.5129255 0.27059805 -0.27059805 0.653281482 0.653281482
0.652139365 -0.0174042553 0.385472698 0 1 0 0.531736155 0.531736155 0.531736155 2.94443898 -3.12356565 -3.05462379 -11.5129255 0.27059805 -0.27059805 0.653281482 0.653281482
0.585472698 -0.0174042553 0.452139365 0 1 0 0.531736155 0.531736155 0.531736155 2.94443898 -3.12356565 -3.05462379 -11.5129255 0.27059805 -0.27059805 0.653281482 0.653281482
0.518806031 -0.0174042553 0.518806031 0 1 0 0.531736155 0.531736155 0.531736155 2.94443898 -3.12356565 -3.05462379 -11.5129255 0.27059805 -0.27059805 0.653281482 0.653281482
0.452139365 -0.0174042553 0.585472698 0 1 0 0.531736155 0.531736155 0.531736155 2.94443898 -3.12356565 -3.05462379 -11.5129255 0.27059805 -0.27059805 0.653281482 0.653281482
0.385472698 -0.0174042553 0.652139365 0 1 0 0.531736155 0.531736155 0.531736155 2.94443898 -3.12356565 -3.05462379 -11.5129255 0.27059805 -0.27059805 0.653281482 0.653281482
0.318806031 -0.0174042553 0.718806031 0 1 0 0.531736155 0.531736155 0.531736155 2.94443898 -3.12356565 -3.05462379 -11.5129255 0.27059805 -0.27059805 0.653281482 0.653281482
0.252139365 -0.0174042553 0.785472698 0 1 0 0.531736155 0.531736155 0.531736155 2.94443898 -3.12356565 -3.05462379 -11.5129255 0.27059805 -0.27059805 0.653281482 0.653281482
0.185472698 -0.0174042553 0.852139365 0 1 0 0.531736155 0.531736155 0.531736155 2.94443898 -3.12356565 -3.05462379 -11.5129255 0.27059805 -0.27059805 0.653281482 0.653281482
0.118806031 -0.0174042553 0.918806031 0 1 0 0.531736155 0.531736155 0.531736155 2.94443898 -3.12356565 -3.05462379 -11.5129255 0.27059805 -0.27059805 0.653281482 0.653281482
0.0521393647 -0.0174042553 0.985472698 0 1 0 0.531736155 0.531736155 0.531736155 2.94443898 -3.12356565 -3.05462379 -11.5129255 0.27059805 -0.27059805 0.653281482 0.653281482
0.95436 0.0265957447 0.0210266664 0.707106781 0 0.707106781 0.531736155 0.531736155 0.531736155 2.94443898 -3.12356565 -3.05462379 -11.5129255 0.653281482 0.27059805 0.27059805 0.653281482
0.887693333 0.0265957447 0.087693333 0.707106781 0 0.707106781 0.531736155 0.531736155 0.531736155 2.94443898 -3.12356565 -3.05462379 -11.5129255 0.653281482 0.27059805 0.27059805 0.653281482
0.821026666 0.0265957447 0.15436 0.707106781 0 0.707106781 0.531736155 0.531736155 0.531736155 2.94443898 -3.12356565 -3.05462379 -11.5129255 0.653281482 0.27059805 0.27059805 0.653281482
0.75436 0.0265957447 0.221026666 0.707106781 0 0.707106781 0.531736155 0.531736155 0.531736155 2.94443898 -3.12356565 -3.05462379 -11.5129255 0.653281482 0.27059805 0.27059805 0.653281482
0.687693333 0.0265957447 0.287693333 0.707106781 0 0.707106781 0.531736155 0.531736155 0.531736155 2.94443898 -3.12356565 -3.05462379 -11.5129255 0.653281482 0.27059805 0.27059805 0.653281482
0.621026666 0.0265957447 0.35436 0.707106781 0 0.707106781 0.531736155 0.531736155 0.531736155 2.94443898 -3.12356565 -3.05462379 -11.5129255 0.653281482 0.27059805 0.27059805 0.653281482
0.55436 0.0265957447 0.421026666 0.707106781 0 0.707106781 0.531736155 0.531736155 0.531736155 2.94443898 -3.12356565 -3.05462379 -11.5129255 0.653281482 0.27059805 0.27059805 0.653281482
0.487693333 0.0265957447 0.487693333 0.707106781 0 0.707106781 0.531736155 0.531736155 0.531736155 2.94443898 -3.12356565 -3.05462379 -11.5129255 0.653281482 0.27059805 0.27059805 0.653281482
0.421026666 0.0265957447 0.55436 0.707106781 0 0.707106781 0.531736155 0.531736155 0.531736155 2.94443898 -3.12356565 -3.05462379 -11.5129255 0.653281482 0.27059805 0.27059805 0.653281482
0.35436 0.0265957447 0.621026666 0.707106781 0 0.707106781 0.531736155 0.531736155 0.531736155 2.94443898 -3.12356565 -3.05462379 -11.5129255 0.653281482 0.27059805 0.27059805 0.653281482
0.287693333 0.0265957447 0.687693333 0.707106781 0 0.707106781 0.531736155 0.531736155 0.531736155 2.94443898 -3.12356565 -3.05462379 -11.5129255 0.653281482 0.27059805 0.27059805 0.653281482
0.221026666 0.0265957447 0.75436 0.707106781 0 0.707106781 0.531736155 0.531736155 0.531736155 2.94443898 -3.12356565 -3.05462379 -11.5129255 0.653281482 0.27059805 0.27059805 0.653281482
0.15436 0.0265957447 0.821026666 0.707106781 0 0.707106781 0.531736155 0.531736155 0.531736155 2.94443898 -3.12356565 -3.05462379 -11.5129255 0.653281482 0.27059805 0.27059805 0.653281482
0.087693333 0.0265957447 0.887693333 0.707106781 0 0.707106781 0.531736155 0.531736155 0.531736155 2.94443898 -3.12356565 -3.05462379 -11.5129255 0.653281482 0.27059805 0.27059805 0.653281482
0.0210266664 0.0265957447 0.95436 0.707106781 0 0.707106781 0.531736155 0.531736155 0.531736155 2.94443898 -3.12356565 -3.05462379 -11.5129255 0.653281482 0.27059805 0.27059805 0.653281482
0.950117359 0.0705957447 0.0167840257 0 1 0 0.531736155 0.531736155 0.531736155 2.94443898 -5.11599581 -3.05462379 -11.5129255 0.27059805 -0.27059805 0.653281482 0.653281482
0.883450692 0.0705957447 0.0834506924 0 1 0 0.531736155 0.531736155 0.531736155 2.94443898 -5.11599581 -3.05462379 -11.5129255 0.27059805 -0.27059805 0.653281482 0.653281482
0.816784026 0.0705957447 0.150117359 0 1 0 0.531736155 0.531736155 0.531736155 2.94443898 -5.11599581 -3.05462379 -11.5129255 0.27059805 -0.27059805 0.653281482 0.653281482
0.750117359 0.0705957447 0.216784026 0 1 0 0.531736155 0.531736155 0.531736155 2.94443898 -5.11599581 -3.05462379 -11.5129255 0.27059805 -0.27059805 0.653281482 0.653281482
0.683450692 0.0705957447 0.283450692 0 1 0 0.531736155 0.531736155 0.531736155 2.94443898 -5.11599581 -3.05462379 -11.5129255 0.27059805 -0.27059805 0.653281482 0.653281482
0.616784026 0.0705957447 0.350117359 0 1 0 0.531736155 0.531736155 0.531736155 2.94443898 -5.11599581 -3.05462379 -11.5129255 0.27059805 -0.27059805 0.653281482 0.653281482
0.550117359 0.0705957447 0.416784026 0 1 0 0.531736155 0.531736155 0.531736155 2.94443898 -5.11599581 -3.05462379 -11.5129255 0.27059805 -0.27059805 0.653281482 0.653281482
0.483450692 0.0705957447 0.483450692 0 1 0 0.531736155 0.531736155 0.531736155 2.94443898 -5.11599581 -3.05462379 -11.5129255 0.27059805 -0.27059805 0.653281482 0.653281482
0.416784026 0.0705957447 0.550117359 0 1 0 0.531736155 0.531736155 0.531736155 2.94443898 -5.11599581 -3.05462379 -11.5129255 0.27059805 -0.27059805 0.653281482 0.653281482
0.350117359 0.0705957447 0.616784026 0 1 0 0.531736155 0.531736155 0.531736155 2.94443898 -5.11599581 -3.05462379 -11.5129255 0.27059805 -0.27059805 0.653281482 0.653281482
0.283450692 0.0705957447 0.683450692 0 1 0 0.531736155 0.531736155 0.531736155 2.94443898 -5.11599581 -3.05462379 -11.5129255 0.27059805 -0.27059805 0.653281482 0.653281482
0.216784026 0.0705957447 0.750117359 0 1 0 0.531736155 0.531736155 0.531736155 2.94443898 -5.11599581 -3.05462379 -11.5129255 0.27059805 -0.27059805 0.653281482 0.653281482
0.150117359 0.0705957447 0.816784026 0 1 0 0.531736155 0.531736155 0.531736155 2.94443898 -5.11599581 -3.05462379 -11.5129255 0.27059805 -0.27059805 0.653281482 0.653281482
0.0834506924 0.0705957447 0.883450692 0 1 0 0.531736155 0.531736155 0.531736155 2.94443898 -5.11599581 -3.05462379 -11.5129255 0.27059805 -0.27059805 0.653281482 0.653281482
0.0167840257 0.0705957447 0.950117359 0 1 0 0.531736155 0.531736155 0.531736155 2.94443898 -5.11599581 -3.05462379 -11.5129255 0.27059805 -0.27059805 0.653281482 0.653281482
0.945874718 0.0205957447 0.012541385 -0.707106781 0 -0.707106781 0.531736155 0.531736155 0.531736155 2.94443898 -2.99573227 -3.05462379 -11.5129255 0.27059805 0.653281482 -0.653281482 -0.27059805
0.879208052 0.0205957447 0.0792080517 -0.707106781 0 -0.707106781 0.531736155 0.531736155 0.531736155 2.94443898 -2.99573227 -3.05462379 -11.5129255 0.27059805 0.653281482 -0.653281482 -0.27059805
0.812541385 0.0205957447 0.145874718 -0.707106781 0 -0.707106781 0.531736155 0.531736155 0.531736155 2.94443898 -2.99573227 -3.05462379 -11.5129255 0.27059805 0.653281482 -0.653281482 -0.27059805
0.745874718 0.0205957447 0.212541385 -0.707106781 0 -0.707106781 0.531736155 0.531736155 0.531736155 2.94443898 -2.99573227 -3.05462379 -11.5129255 0.27059805 0.653281482 -0.653281482 -0.27059805
0.679208052 0.0205957447 0.279208052 -0.707106781 0 -0.707106781 0.531736155 0.531736155 0.531736155 2.94443898 -2.99573227 -3.05462379 -11.5129255 0.27059805 0.653281482 -0.653281482 -0.27059805
0.612541385 0.0205957447 0.345874718 -0.707106781 0 -0.707106781 0.531736155 0.531736155 0.531736155 2.94443898 -2.99573227 -3.05462379 -11.5129255 0.27059805 0.653281482 -0.653281482 -0.27059805
0.545874718 0.0205957447 0.412541385 -0.707106781 0 -0.707106781 0.531736155 0.531736155 0.531736155 2.94443898 -2.99573227 -3.05462379 -11.5129255 0.27059805 0.653281482 -0.653281482 -0.27059805
0.479208052 0.0205957447 0.479208052 -0.707106781 0 -0.707106781 0.531736155 0.531736155 0.531736155 2.94443898 -2.99573227 -3.05462379 -11.5129255 0.27059805 0.653281482 -0.653281482 -0.27059805
0.412541385 0.0205957447 0.545874718 -0.707106781 0 -0.707106781 0.531736155 0.531736155 0.531736155 2.94443898 -2.99573227 -3.05462379 -11.5129255 0.27059805 0.653281482 -0.653281482 -0.27059805
0.345874718 0.0205957447 0.612541385 -0.707106781 0 -0.707106781 0.531736155 0.531736155 0.531736155 2.94443898 -2.99573227 -3.05462379 -11.5129255 0.27059805 0.653281482 -0.653281482 -0.27059805
0.279208052 0.0205957447 0.679208052 -0.707106781 0 -0.707106781 0.531736155 0.531736155 0.531736155 2.94443898 -2.99573227 -3.05462379 -11.5129255 0.27059805 0.653281482 -0.653281482 -0.27059805
0.212541385 0.0205957447 0.745874718 -0.707106781 0 -0.707106781 0.531736155 0.531736155 0.531736155 2.94443898 -2.99573227 -3.05462379 -11.5129255 0.27059805 0.653281482 -0.653281482 -0.27059805
0.145874718 0.0205957447 0.812541385 -0.707106781 0 -0.707106781 0.531736155 0.531736155 0.531736155 2.94443898 -2.99573227 -3.05462379 -11.5129255 0.27059805 0.653281482 -0.653281482 -0.27059805
0.0792080517 0.0205957447 0.879208052 -0.707106781 0 -0.707106781 0.531736155 0.531736155 0.531736155 2.94443898 -2.99573227 -3.05462379 -11.5129255 0.27059805 0.653281482 -0.653281482 -0.27059805
0.012541385 0.0205957447 0.945874718 -0.707106781 0 -0.707106781 0.531736155 0.531736155 0.531736155 2.94443898 -2.99573227 -3.05462379 -11.5129255 0.27059805 0.653281482 -0.653281482 -0.27059805
1.01456339 -0.0234042553 0.0145633907 0.707106781 0 -0.707106781 0.531736155 0.531736155 0.531736155 2.94443898 -2.99573227 -5.11599581 -11.5129255 0 0.923879533 0 0.382683432
0.983450692 0.0265957447 -0.0165493076 0.707106781 0 -0.707106781 0.531736155 0.531736155 0.531736155 2.94443898 -5.11599581 -3.12356565 -11.5129255 0 0.923879533 0 0.382683432
0.0145633907 -0.0234042553 1.01456339 -0.707106781 0 0.707106781 0.531736155 0.531736155 0.531736155 2.94443898 -2.99573227 -5.11599581 -11.5129255 0.923879533 0 -0.382683432 0
-0.0165493076 0.0265957447 0.983450692 -0.707106781 0 0.707106781 0.531736155 0.531736155 0.531736155 2.94443898 -5.11599581 -3.12356565 -11.5129255 0.923879533 0 -0.382683432 0
-0.0294042553 0.952103276 0.0187699426 -1 0 0 0.531736155 0.531736155 0.531736155 2.94443898 -2.99573227 -3.05462379 -11.5129255 0.27059805 0.653281482 -0.27059805 -0.653281482
-0.0294042553 0.885436609 0.0854366093 -1 0 0 0.531736155 0.531736155 0.531736155 2.94443898 -2.99573227 -3.05462379 -11.5129255 0.27059805 0.653281482 -0.27059805 -0.653281482
-0.0294042553 0.818769943 0.152103276 -1 0 0 0.531736155 0.531736155 0.531736155 2.94443898 -2.99573227 -3.05462379 -11.5129255 0.27059805 0.653281482 -0.27059805 -0.653281482
-0.0294042553 0.752103276 0.218769943 -1 0 0 0.531736155 0.531736155 0.531736155 2.94443898 -2.99573227 -3.05462379 -11.5129255 0.27059805 0.653281482 -0.27059805 -0.653281482
-0.0294042553 0.685436609 0.285436609 -1 0 0 0.531736155 0.531736155 0.531736155 2.94443898 -2.99573227 -3.05462379 -11.5129255 0.27059805 0.653281482 -0.27059805 -0.653281482
-0.0294042553 0.618769943 0.352103276 -1 0 0 0.531736155 0.531736155 0.531736155 2.94443898 -2.99573227 -3.05462379 -11.5129255 0.27059805 0.653281482 -0.27059805 -0.653281482
-0.0294042553 0.552103276 0.418769943 -1 0 0 0.531736155 0.531736155 0.531736155 2.94443898 -2.99573227 -3.05462379 -11.5129255 0.27059805 0.653281482 -0.27059805 -0.653281482
-0.0294042553 0.485436609 0.485436609 -1 0 0 0.531736155 0.531736155 0.531736155 2.94443898 -2.99573227 -3.05462379 -11.5129255 0.27059805 0.653281482 -0.27059805 -0.653281482
-0.0294042553 0.418769943 0.552103276 -1 0 0 0.531736155 0.531736155 0.531736155 2.94443898 -2.99573227 -3.05462379 -11.5129255 0.27059805 0.653281482 -0.27059805 -0.653281482
-0.0294042553 0.352103276 0.618769943 -1 0 0 0.531736155 0.531736155 0.531736155 2.94443898 -2.99573227 -3.05462379 -11.5129255 0.27059805 0.653281482 -0.27059805 -0.653281482
-0.0294042553 0.285436609 0.685436609 -1 0 0 0.531736155 0.531736155 0.531736155 2.94443898 -2.99573227 -3.05462379 -11.5129255 0.27059805 0.653281482 -0.27059805 -0.653281482
-0.0294042553 0.218769943 0.752103276 -1 0 0 0.531736155 0.531736155 0.531736155 2.94443898 -2.99573227 -3.05462379 -11.5129255 0.27059805 0.653281482 -0.27059805 -0.653281482
-0.0294042553 0.152103276 0.818769943 -1 0 0 0.531736155 0.531736155 0.531736155 2.94443898 -2.99573227 -3.05462379 -11.5129255 0.27059805 0.653281482 -0.27059805 -0.653281482
-0.0294042553 0.0854366093 0.885436609 -1 0 0 0.531736155 0.531736155 0.531736155 2.94443898 -2.99573227 -3.05462379 -11.5129255 0.27059805 0.653281482 -0.27059805 -0.653281482
-0.0294042553 0.0187699426 0.952103276 -1 0 0 0.531736155 0.531736155 0.531736155 2.94443898 -2.99573227 -3.05462379 -11.5129255 0.27059805 0.653281482 -0.27059805 -0.653281482
-0.0234042553 0.916747937 -0.0165853965 0 -0.707106781 -0.707106781 0.531736155 0.531736155 0.531736155 2.94443898 -5.11599581 -3.05462379 -11.5129255 0.382683432 0.923879533 0 0
-0.0234042553 0.85008127 0.0500812702 0 -0.707106781 -0.707106781 0.531736155 0.531736155 0.531736155 2.94443898 -5.11599581 -3.05462379 -11.5129255 0.382683432 0.923879533 0 0
-0.0234042553 0.783414604 0.116747937 0 -0.707106781 -0.707106781 0.531736155 0.531736155 0.531736155 2.94443898 -5.11599581 -3.05462379 -11.5129255 0.382683432 0.923879533 0 0
-0.0234042553 0.716747937 0.183414604 0 -0.707106781 -0.707106781 0.531736155 0.531736155 0.531736155 2.94443898 -5.11599581 -3.05462379 -11.5129255 0.382683432 0.923879533 0 0
-0.0234042553 0.65008127 0.25008127 0 -0.707106781 -0.707106781 0.531736155 0.531736155 0.531736155 2.94443898 -5.11599581 -3.05462379 -11.5129255 0.382683432 0.923879533 0 0
-0.0234042553 0.583414604 0.316747937 0 -0.707106781 -0.707106781 0.531736155 0.531736155 0.531736155 2.94443898 -5.11599581 -3.05462379 -11.5129255 0.382683432 0.923879533 0 0
-0.0234042553 0.516747937 0.383414604 0 -0.707106781 -0.707106781 0.531736155 0.531736155 0.531736155 2.94443898 -5.11599581 -3.05462379 -11.5129255 0.382683432 0.923879533 0 0
-0.0234042553 0.45008127 0.45008127 0 -0.707106781 -0.707106781 0.531736155 0.531736155 0.531736155 2.94443898 -5.11599581 -3.05462379 -11.5129255 0.382683432 0.923879533 0 0
-0.0234042553 0.383414604 0.516747937 0 -0.707106781 -0.707106781 0.531736155 0.531736155 0.531736155 2.94443898 -5.11599581 -3.05462379 -11.5129255 0.382683432 0.923879533 0 0
-0.0234042553 0.316747937 0.583414604 0 -0.707106781 -0.707106781 0.531736155 0.531736155 0.531736155 2.94443898 -5.11599581 -3.05462379 -11.5129255 0.382683432 0.923879533 0 0
-0.0234042553 0.25008127 0.65008127 0 -0.707106781 -0.707106781 0.531736155 0.531736155 0.531736155 2.94443898 -5.11599581 -3.05462379 -11.5129255 0.382683432 0.923879533 0 0
-0.0234042553 0.183414604 0.716747937 0 -0.707106781 -0.707106781 0.531736155 0.531736155 0.531736155 2.94443898 -5.11599581 -3.05462379 -11.5129255 0.382683432 0.923879533 0 0
-0.0234042553 0.116747937 0.783414604 0 -0.707106781 -0.707106781 0.531736155 0.531736155 0.531736155 2.94443898 -5.11599581 -3.05462379 -11.5129255 0.382683432 0.923879533 0 0
-0.0234042553 0.0500812702 0.85008127 0 -0.707106781 -0.707106781 0.531736155 0.531736155 0.531736155 2.94443898 -5.11599581 -3.05462379 -11.5129255 0.382683432 0.923879533 0 0
-0.0234042553 -0.0165853965 0.916747937 0 -0.707106781 -0.707106781 0.531736155 0.531736155 0.531736155 2.94443898 -5.11599581 -3.05462379 -11.5129255 0.382683432 0.923879533 0 0
-0.0174042553 0.947860635 0.0145273019 1 0 0 0.531736155 0.531736155 0.531736155 2.94443898 -3.12356565 -3.05462379 -11.5129255 0.27059805 0.653281482 0.27059805 0.653281482
-0.0174042553 0.881193969 0.0811939686 1 0 0 0.531736155 0.531736155 0.531736155 2.94443898 -3.12356565 -3.05462379 -11.5129255 0.27059805 0.653281482 0.27059805 0.653281482
-0.0174042553 0.814527302 0.147860635 1 0 0 0.531736155 0.531736155 0.531736155 2.94443898 -3.12356565 -3.05462379 -11.5129255 0.27059805 0.653281482 0.27059805 0.653281482
-0.0174042553 0.747860635 0.214527302 1 0 0 0.531736155 0.531736155 0.531736155 2.94443898 -3.12356565 -3.05462379 -11.5129255 0.27059805 0.653281482 0.27059805 0.653281482
-0.0174042553 0.681193969 0.281193969 1 0 0 0.531736155 0.531736155 0.531736155 2.94443898 -3.12356565 -3.05462379 -11.5129255 0.27059805 0.653281482 0.27059805 0.653281482
-0.0174042553 0.614527302 0.347860635 1 0 0 0.531736155 0.531736155 0.531736155 2.94443898 -3.12356565 -3.05462379 -11.5129255 0.27059805 0.653281482 0.27059805 0.653281482
-0.0174042553 0.547860635 0.414527302 1 0 0 0.531736155 0.531736155 0.531736155 2.94443898 -3.12356565 -3.05462379 -11.5129255 0.27059805 0.653281482 0.27059805 0.653281482
-0.0174042553 0.481193969 0.481193969 1 0 0 0.531736155 0.531736155 0.531736155 2.94443898 -3.12356565 -3.05462379 -11.5129255 0.27059805 0.653281482 0.27059805 0.653281482
-0.0174042553 0.414527302 0.547860635 1 0 0 0.531736155 0.531736155 0.531736155 2.94443898 -3.12356565 -3.05462379 -11.5129255 0.27059805 0.653281482 0.27059805 0.653281482
-0.0174042553 0.347860635 0.614527302 1 0 0 0.531736155 0.531736155 0.531736155 2.94443898 -3.12356565 -3.05462379 -11.5129255 0.27059805 0.653281482 0.27059805 0.653281482
-0.0174042553 0.281193969 0.681193969 1 0 0 0.531736155 0.531736155 0.531736155 2.94443898 -3.12356565 -3.05462379 -11.5129255 0.27059805 0.653281482 0.27059805 0.653281482
-0.0174042553 0.214527302 0.747860635 1 0 0 0.531736155 0.531736155 0.531736155 2.94443898 -3.12356565 -3.05462379 -11.5129255 0.27059805 0.653281482 0.27059805 0.653281482
-0.0174042553 0.147860635 0.814527302 1 0 0 0.531736155 0.531736155 0.531736155 2.94443898 -3.12356565 -3.05462379 -11.5129255 0.27059805 0.653281482 0.27059805 0.653281482
-0.0174042553 0.0811939686 0.881193969 1 0 0 0.531736155 0.531736155 0.531736155 2.94443898 -3.12356565 -3.05462379 -11.5129255 0.27059805 0.653281482 0.27059805 0.653281482
-0.0174042553 0.0145273019 0.947860635 1 0 0 0.531736155 0.531736155 0.531736155 2.94443898 -3.12356565 -3.05462379 -11.5129255 0.27059805 0.653281482 0.27059805 0.653281482
0.0265957447 0.978973334 0.0456400003 0 -0.707106781 -0.707106781 0.531736155 0.531736155 0.531736155 2.94443898 -3.12356565 -3.05462379 -11.5129255 0.382683432 0.923879533 0 0
0.0265957447 0.912306667 0.112306667 0 -0.707106781 -0.707106781 0.531736155 0.531736155 0.531736155 2.94443898 -3.12356565 -3.05462379 -11.5129255 0.382683432 0.923879533 0 0
0.0265957447 0.84564 0.178973334 0 -0.707106781 -0.707106781 0.531736155 0.531736155 0.531736155 2.94443898 -3.12356565 -3.05462379 -11.5129255 0.382683432 0.923879533 0 0
0.0265957447 0.778973334 0.24564 0 -0.707106781 -0.707106781 0.531736155 0.531736155 0.531736155 2.94443898 -3.12356565 -3.05462379 -11.5129255 0.382683432 0.923879533 0 0
0.0265957447 0.712306667 0.312306667 0 -0.707106781 -0.707106781 0.531736155 0.531736155 0.531736155 2.94443898 -3.12356565 -3.05462379 -11.5129255 0.382683432 0.923879533 0 0
0.0265957447 0.64564 0.378973334 0 -0.707106781 -0.707106781 0.531736155 0.531736155 0.531736155 2.94443898 -3.12356565 -3.05462379 -11.5129255 0.382683432 0.923879533 0 0
0.0265957447 0.578973334 0.44564 0 -0.707106781 -0.707106781 0.531736155 0.531736155 0.531736155 2.94443898 -3.12356565 -3.05462379 -11.5129255 0.382683432 0.923879533 0 0
0.0265957447 0.512306667 0.512306667 0 -0.707106781 -0.707106781 0.531736155 0.531736155 0.531736155 2.94443898 -3.12356565 -3.05462379 -11.5129255 0.382683432 0.923879533 0 0
0.0265957447 0.44564 0.578973334 0 -0.707106781 -0.707106781 0.531736155 0.531736155 0.531736155 2.94443898 -3.12356565 -3.05462379 -11.5129255 0.382683432 0.923879533 0 0
0.0265957447 0.378973334 0.64564 0 -0.707106781 -0.707106781 0.531736155 0.531736155 0.531736155 2.94443898 -3.12356565 -3.05462379 -11.5129255 0.382683432 0.923879533 0 0
0.0265957447 0.312306667 0.712306667 0 -0.707106781 -0.707106781 0.531736155 0.531736155 0.531736155 2.94443898 -3.12356565 -3.05462379 -11.5129255 0.382683432 0.923879533 0 0
0.0265957447 0.24564 0.778973334 0 -0.707106781 -0.707106781 0.531736155 0.531736155 0.531736155 2.94443898 -3.12356565 -3.05462379 -11.5129255 0.382683432 0.923879533 0 0
0.0265957447 0.178973334 0.84564 0 -0.707106781 -0.707106781 0.531736155 0.531736155 0.531736155 2.94443898 -3.12356565 -3.05462379 -11.5129255 0.382683432 0.923879533 0 0
0.0265957447 0.112306667 0.912306667 0 -0.707106781 -0.707106781 0.531736155 0.531736155 0.531736155 2.94443898 -3.12356565 -3.05462379 -11.5129255 0.382683432 0.923879533 0 0
0.0265957447 0.0456400003 0.978973334 0 -0.707106781 -0.707106781 0.531736155 0.531736155 0.531736155 2.94443898 -3.12356565 -3.05462379 -11.5129255 0.382683432 0.923879533 0 0
0.0705957447 0.983215974 0.049882641 1 0 0 0.531736155 0.531736155 0.531736155 2.94443898 -5.11599581 -3.05462379 -11.5129255 0.27059805 0.653281482 0.27059805 0.653281482
0.0705957447 0.916549308 0.116549308 1 0 0 0.531736155 0.531736155 0.531736155 2.94443898 -5.11599581 -3.05462379 -11.5129255 0.27059805 0.653281482 0.27059805 0.653281482
0.0705957447 0.849882641 0.183215974 1 0 0 0.531736155 0.531736155 0.531736155 2.94443898 -5.11599581 -3.05462379 -11.5129255 0.27059805 0.653281482 0.27059805 0.653281482
0.0705957447 0.783215974 0.249882641 1 0 0 0.531736155 0.531736155 0.531736155 2.94443898 -5.11599581 -3.05462379 -11.5129255 0.27059805 0.653281482 0.27059805 0.653281482
0.0705957447 0.716549308 0.316549308 1 0 0 0.531736155 0.531736155 0.531736155 2.94443898 -5.11599581 -3.05462379 -11.5129255 0.27059805 0.653281482 0.27059805 0.653281482
0.0705957447 0.649882641 0.383215974 1 0 0 0.531736155 0.531736155 0.531736155 2.94443898 -5.11599581 -3.05462379 -11.5129255 0.27059805 0.653281482 0.27059805 0.653281482
0.0705957447 0.583215974 0.449882641 1 0 0 0.531736155 0.531736155 0.531736155 2.94443898 -5.11599581 -3.05462379 -11.5129255 0.27059805 0.653281482 0.27059805 0.653281482
0.0705957447 0.516549308 0.516549308 1 0 0 0.531736155 0.531736155 0.531736155 2.94443898 -5.11599581 -3.05462379 -11.5129255 0.27059805 0.653281482 0.27059805 0.653281482
0.0705957447 0.449882641 0.583215974 1 0 0 0.531736155 0.531736155 0.531736155 2.94443898 -5.11599581 -3.05462379 -11.5129255 0.27059805 0.653281482 0.27059805 0.653281482
0.0705957447 0.383215974 0.649882641 1 0 0 0.531736155 0.531736155 0.531736155 2.94443898 -5.11599581 -3.05462379 -11.5129255 0.27059805 0.653281482 0.27059805 0.653281482
0.0705957447 0.316549308 0.716549308 1 0 0 0.531736155 0.531736155 0.531736155 2.94443898 -5.11599581 -3.05462379 -11.5129255 0.27059805 0.653281482 0.27059805 0.653281482
0.0705957447 0.249882641 0.783215974 1 0 0 0.531736155 0.531736155 0.531736155 2.94443898 -5.11599581 -3.05462379 -11.5129255 0.27059805 0.653281482 0.27059805 0.653281482
0.0705957447 0.183215974 0.849882641 1 0 0 0.531736155 0.531736155 0.531736155 2.94443898 -5.11599581 -3.05462379 -11.5129255 0.27059805 0.653281482 0.27059805 0.653281482
0.0705957447 0.116549308 0.916549308 1 0 0 0.531736155 0.531736155 0.531736155 2.94443898 -5.11599581 -3.05462379 -11.5129255 0.27059805 0.653281482 0.27059805 0.653281482
0.0705957447 0.049882641 0.983215974 1 0 0 0.531736155 0.531736155 0.531736155 2.94443898 -5.11599581 -3.05462379 -11.5129255 0.27059805 0.653281482 0.27059805 0.653281482
0.0205957447 0.987458615 0.0541252817 0 0.707106781 0.707106781 0.531736155 0.531736155 0.531736155 2.94443898 -2.99573227 -3.05462379 -11.5129255 0 0 0.382683432 0.923879533
0.0205957447 0.920791948 0.120791948 0 0.707106781 0.707106781 0.531736155 0.531736155 0.531736155 2.94443898 -2.99573227 -3.05462379 -11.5129255 0 0 0.382683432 0.923879533
0.0205957447 0.854125282 0.187458615 0 0.707106781 0.707106781 0.531736155 0.531736155 0.531736155 2.94443898 -2.99573227 -3.05462379 -11.5129255 0 0 0.382683432 0.923879533
0.0205957447 0.787458615 0.254125282 0 0.707106781 0.707106781 0.531736155 0.531736155 0.531736155 2.94443898 -2.99573227 -3.05462379 -11.5129255 0 0 0.382683432 0.923879533
0.0205957447 0.720791948 0.320791948 0 0.707106781 0.707106781 0.531736155 0.531736155 0.531736155 2.94443898 -2.99573227 -3.05462379 -11.5129255 0 0 0.382683432 0.923879533
0.0205957447 0.654125282 0.387458615 0 0.707106781 0.707106781 0.531736155 0.531736155 0.531736155 2.94443898 -2.99573227 -3.05462379 -11.5129255 0 0 0.382683432 0.923879533
0.0205957447 0.587458615 0.454125282 0 0.707106781 0.707106781 0.531736155 0.531736155 0.531736155 2.94443898 -2.99573227 -3.05462379 -11.5129255 0 0 0.382683432 0.923879533
0.0205957447 0.520791948 0.520791948 0 0.707106781 0.707106781 0.531736155 0.531736155 0.531736155 2.94443898 -2.99573227 -3.05462379 -11.5129255 0 0 0.382683432 0.923879533
0.0205957447 0.454125282 0.587458615 0 0.707106781 0.707106781 0.531736155 0.531736155 0.531736155 2.94443898 -2.99573227 -3.05462379 -11.5129255 0 0 0.382683432 0.923879533
0.0205957447 0.387458615 0.654125282 0 0.707106781 0.707106781 0.531736155 0.531736155 0.531736155 2.94443898 -2.99573227 -3.05462379 -11.5129255 0 0 0.382683432 0.923879533
0.0205957447 0.320791948 0.720791948 0 0.707106781 0.707106781 0.531736155 0.531736155 0.531736155 2.94443898 -2.99573227 -3.05462379 -11.5129255 0 0 0.382683432 0.923879533
0.0205957447 0.254125282 0.787458615 0 0.707106781 0.707106781 0.531736155 0.531736155 0.531736155 2.94443898 -2.99573227 -3.05462379 -11.5129255 0 0 0.382683432 0.923879533
0.0205957447 0.187458615 0.854125282 0 0.707106781 0.707106781 0.531736155 0.531736155 0.531736155 2.94443898 -2.99573227 -3.05462379 -11.5129255 0 0 0.382683432 0.923879533
0.0205957447 0.120791948 0.920791948 0 0.707106781 0.707106781 0.531736155 0.531736155 0.531736155 2.94443898 -2.99573227 -3.05462379 -11.5129255 0 0 0.382683432 0.923879533
0.0205957447 0.0541252817 0.987458615 0 0.707106781 0.707106781 0.531736155 0.531736155 0.531736155 2.94443898 -2.99573227 -3.05462379 -11.5129255 0 0 0.382683432 0.923879533
-0.0234042553 0.985436609 -0.0145633907 0 0.707106781 -0.707106781 0.531736155 0.531736155 0.531736155 2.94443898 -2.99573227 -5.11599581 -11.5129255 -0.27059805 0.653281482 -0.653281482 -0.27059805
0.0265957447 1.01654931 0.0165493076 0 0.707106781 -0.707106781 0.531736155 0.531736155 0.531736155 2.94443898 -5.11599581 -3.12356565 -11.5129255 -0.27059805 0.653281482 -0.653281482 -0.27059805
-0.0234042553 -0.0145633907 0.985436609 0 -0.707106781 0.707106781 0.531736155 0.531736155 0.531736155 2.94443898 -2.99573227 -5.11599581 -11.5129255 -0.653281482 -0.27059805 -0.27059805 0.653281482
0.0265957447 0.0165493076 1.01654931 0 -0.707106781 0.707106781 0.531736155 0.531736155 0.531736155 2.94443898 -5.11599581 -3.12356565 -11.5129255 -0.653281482 -0.27059805 -0.27059805 0.653281482
